<svg width="800" height="568" viewBox="0 0 800 568" fill="none" xmlns="http://www.w3.org/2000/svg">
<rect width="800" height="567.742" rx="10" fill="url(#paint0_linear_9_38)"/>
<path d="M143.969 214.125H159.156C158.906 218.812 157.625 222.953 155.312 226.547C153.031 230.109 149.859 232.906 145.797 234.938C141.734 236.938 136.906 237.938 131.312 237.938C126.844 237.938 122.844 237.172 119.312 235.641C115.781 234.109 112.781 231.922 110.312 229.078C107.875 226.203 106 222.75 104.688 218.719C103.406 214.656 102.766 210.078 102.766 204.984V200.812C102.766 195.719 103.438 191.141 104.781 187.078C106.125 183.016 108.047 179.547 110.547 176.672C113.047 173.797 116.047 171.594 119.547 170.062C123.047 168.531 126.953 167.766 131.266 167.766C137.078 167.766 141.984 168.812 145.984 170.906C149.984 173 153.078 175.875 155.266 179.531C157.484 183.188 158.812 187.359 159.25 192.047H144.016C143.891 189.391 143.391 187.156 142.516 185.344C141.641 183.5 140.297 182.109 138.484 181.172C136.672 180.234 134.266 179.766 131.266 179.766C129.078 179.766 127.156 180.172 125.5 180.984C123.875 181.797 122.516 183.062 121.422 184.781C120.359 186.5 119.562 188.688 119.031 191.344C118.5 193.969 118.234 197.094 118.234 200.719V204.984C118.234 208.578 118.469 211.688 118.938 214.312C119.406 216.938 120.156 219.109 121.188 220.828C122.25 222.547 123.609 223.828 125.266 224.672C126.922 225.516 128.938 225.938 131.312 225.938C134.031 225.938 136.297 225.516 138.109 224.672C139.922 223.797 141.312 222.484 142.281 220.734C143.25 218.984 143.812 216.781 143.969 214.125ZM167.641 168.75H193.844C199.062 168.75 203.578 169.531 207.391 171.094C211.234 172.656 214.188 174.969 216.25 178.031C218.312 181.094 219.344 184.875 219.344 189.375C219.344 193.125 218.734 196.312 217.516 198.938C216.297 201.562 214.578 203.734 212.359 205.453C210.172 207.172 207.609 208.562 204.672 209.625L199.703 212.344H177.391L177.297 200.484H193.891C196.172 200.484 198.062 200.078 199.562 199.266C201.062 198.453 202.188 197.312 202.938 195.844C203.719 194.344 204.109 192.594 204.109 190.594C204.109 188.531 203.719 186.75 202.938 185.25C202.156 183.75 201 182.609 199.469 181.828C197.969 181.016 196.094 180.609 193.844 180.609H182.922V237H167.641V168.75ZM205.422 237L190.094 206.672L206.219 206.625L221.781 236.297V237H205.422ZM267.062 168.75H282.344V213.562C282.344 218.875 281.219 223.344 278.969 226.969C276.75 230.594 273.656 233.328 269.688 235.172C265.719 237.016 261.125 237.938 255.906 237.938C250.656 237.938 246.031 237.016 242.031 235.172C238.062 233.328 234.938 230.594 232.656 226.969C230.406 223.344 229.281 218.875 229.281 213.562V168.75H244.609V213.562C244.609 216.5 245.047 218.906 245.922 220.781C246.828 222.625 248.125 223.984 249.812 224.859C251.5 225.703 253.531 226.125 255.906 226.125C258.281 226.125 260.297 225.703 261.953 224.859C263.641 223.984 264.906 222.625 265.75 220.781C266.625 218.906 267.062 216.5 267.062 213.562V168.75ZM314.875 237H299.875L299.969 225.188H314.875C318.281 225.188 321.156 224.406 323.5 222.844C325.844 221.25 327.625 218.906 328.844 215.812C330.062 212.688 330.672 208.891 330.672 204.422V201.281C330.672 197.906 330.328 194.938 329.641 192.375C328.953 189.781 327.938 187.609 326.594 185.859C325.25 184.109 323.578 182.797 321.578 181.922C319.609 181.047 317.344 180.609 314.781 180.609H299.594V168.75H314.781C319.406 168.75 323.625 169.531 327.438 171.094C331.281 172.656 334.594 174.891 337.375 177.797C340.188 180.703 342.359 184.141 343.891 188.109C345.422 192.078 346.188 196.5 346.188 201.375V204.422C346.188 209.266 345.422 213.688 343.891 217.688C342.359 221.656 340.188 225.094 337.375 228C334.594 230.875 331.297 233.094 327.484 234.656C323.672 236.219 319.469 237 314.875 237ZM308.547 168.75V237H293.266V168.75H308.547Z" fill="black"/>
<path d="M117.188 299.281V350H105.844V299.281H117.188ZM105.094 285.969C105.094 284.25 105.656 282.828 106.781 281.703C107.938 280.547 109.531 279.969 111.562 279.969C113.562 279.969 115.141 280.547 116.297 281.703C117.453 282.828 118.031 284.25 118.031 285.969C118.031 287.656 117.453 289.062 116.297 290.188C115.141 291.312 113.562 291.875 111.562 291.875C109.531 291.875 107.938 291.312 106.781 290.188C105.656 289.062 105.094 287.656 105.094 285.969ZM140.766 310.109V350H129.469V299.281H140.109L140.766 310.109ZM138.75 322.766L135.094 322.719C135.125 319.125 135.625 315.828 136.594 312.828C137.594 309.828 138.969 307.25 140.719 305.094C142.5 302.938 144.625 301.281 147.094 300.125C149.562 298.938 152.312 298.344 155.344 298.344C157.781 298.344 159.984 298.688 161.953 299.375C163.953 300.031 165.656 301.109 167.062 302.609C168.5 304.109 169.594 306.062 170.344 308.469C171.094 310.844 171.469 313.766 171.469 317.234V350H160.125V317.188C160.125 314.75 159.766 312.828 159.047 311.422C158.359 309.984 157.344 308.969 156 308.375C154.688 307.75 153.047 307.438 151.078 307.438C149.141 307.438 147.406 307.844 145.875 308.656C144.344 309.469 143.047 310.578 141.984 311.984C140.953 313.391 140.156 315.016 139.594 316.859C139.031 318.703 138.75 320.672 138.75 322.766ZM236.109 329.516V281.75H247.828V329.516C247.828 334.047 246.859 337.906 244.922 341.094C242.984 344.281 240.344 346.719 237 348.406C233.656 350.094 229.859 350.938 225.609 350.938C221.266 350.938 217.406 350.203 214.031 348.734C210.688 347.266 208.062 345.016 206.156 341.984C204.25 338.953 203.297 335.109 203.297 330.453H215.109C215.109 333.141 215.531 335.312 216.375 336.969C217.25 338.594 218.469 339.781 220.031 340.531C221.625 341.25 223.484 341.609 225.609 341.609C227.641 341.609 229.438 341.156 231 340.25C232.594 339.312 233.844 337.953 234.75 336.172C235.656 334.359 236.109 332.141 236.109 329.516ZM288.844 339.828V315.641C288.844 313.828 288.516 312.266 287.859 310.953C287.203 309.641 286.203 308.625 284.859 307.906C283.547 307.188 281.891 306.828 279.891 306.828C278.047 306.828 276.453 307.141 275.109 307.766C273.766 308.391 272.719 309.234 271.969 310.297C271.219 311.359 270.844 312.562 270.844 313.906H259.594C259.594 311.906 260.078 309.969 261.047 308.094C262.016 306.219 263.422 304.547 265.266 303.078C267.109 301.609 269.312 300.453 271.875 299.609C274.438 298.766 277.312 298.344 280.5 298.344C284.312 298.344 287.688 298.984 290.625 300.266C293.594 301.547 295.922 303.484 297.609 306.078C299.328 308.641 300.188 311.859 300.188 315.734V338.281C300.188 340.594 300.344 342.672 300.656 344.516C301 346.328 301.484 347.906 302.109 349.25V350H290.531C290 348.781 289.578 347.234 289.266 345.359C288.984 343.453 288.844 341.609 288.844 339.828ZM290.484 319.156L290.578 326.141H282.469C280.375 326.141 278.531 326.344 276.938 326.75C275.344 327.125 274.016 327.688 272.953 328.438C271.891 329.188 271.094 330.094 270.562 331.156C270.031 332.219 269.766 333.422 269.766 334.766C269.766 336.109 270.078 337.344 270.703 338.469C271.328 339.562 272.234 340.422 273.422 341.047C274.641 341.672 276.109 341.984 277.828 341.984C280.141 341.984 282.156 341.516 283.875 340.578C285.625 339.609 287 338.438 288 337.062C289 335.656 289.531 334.328 289.594 333.078L293.25 338.094C292.875 339.375 292.234 340.75 291.328 342.219C290.422 343.688 289.234 345.094 287.766 346.438C286.328 347.75 284.594 348.828 282.562 349.672C280.562 350.516 278.25 350.938 275.625 350.938C272.312 350.938 269.359 350.281 266.766 348.969C264.172 347.625 262.141 345.828 260.672 343.578C259.203 341.297 258.469 338.719 258.469 335.844C258.469 333.156 258.969 330.781 259.969 328.719C261 326.625 262.5 324.875 264.469 323.469C266.469 322.062 268.906 321 271.781 320.281C274.656 319.531 277.938 319.156 281.625 319.156H290.484ZM327.75 341.047L340.172 299.281H351.891L334.266 350H326.953L327.75 341.047ZM318.234 299.281L330.891 341.234L331.5 350H324.188L306.469 299.281H318.234ZM386.719 339.828V315.641C386.719 313.828 386.391 312.266 385.734 310.953C385.078 309.641 384.078 308.625 382.734 307.906C381.422 307.188 379.766 306.828 377.766 306.828C375.922 306.828 374.328 307.141 372.984 307.766C371.641 308.391 370.594 309.234 369.844 310.297C369.094 311.359 368.719 312.562 368.719 313.906H357.469C357.469 311.906 357.953 309.969 358.922 308.094C359.891 306.219 361.297 304.547 363.141 303.078C364.984 301.609 367.188 300.453 369.75 299.609C372.312 298.766 375.188 298.344 378.375 298.344C382.188 298.344 385.562 298.984 388.5 300.266C391.469 301.547 393.797 303.484 395.484 306.078C397.203 308.641 398.062 311.859 398.062 315.734V338.281C398.062 340.594 398.219 342.672 398.531 344.516C398.875 346.328 399.359 347.906 399.984 349.25V350H388.406C387.875 348.781 387.453 347.234 387.141 345.359C386.859 343.453 386.719 341.609 386.719 339.828ZM388.359 319.156L388.453 326.141H380.344C378.25 326.141 376.406 326.344 374.812 326.75C373.219 327.125 371.891 327.688 370.828 328.438C369.766 329.188 368.969 330.094 368.438 331.156C367.906 332.219 367.641 333.422 367.641 334.766C367.641 336.109 367.953 337.344 368.578 338.469C369.203 339.562 370.109 340.422 371.297 341.047C372.516 341.672 373.984 341.984 375.703 341.984C378.016 341.984 380.031 341.516 381.75 340.578C383.5 339.609 384.875 338.438 385.875 337.062C386.875 335.656 387.406 334.328 387.469 333.078L391.125 338.094C390.75 339.375 390.109 340.75 389.203 342.219C388.297 343.688 387.109 345.094 385.641 346.438C384.203 347.75 382.469 348.828 380.438 349.672C378.438 350.516 376.125 350.938 373.5 350.938C370.188 350.938 367.234 350.281 364.641 348.969C362.047 347.625 360.016 345.828 358.547 343.578C357.078 341.297 356.344 338.719 356.344 335.844C356.344 333.156 356.844 330.781 357.844 328.719C358.875 326.625 360.375 324.875 362.344 323.469C364.344 322.062 366.781 321 369.656 320.281C372.531 319.531 375.812 319.156 379.5 319.156H388.359ZM446.906 332.422C446.906 331.016 446.688 329.766 446.25 328.672C445.844 327.578 445.109 326.578 444.047 325.672C442.984 324.766 441.484 323.891 439.547 323.047C437.641 322.172 435.203 321.281 432.234 320.375C428.984 319.375 425.984 318.266 423.234 317.047C420.516 315.797 418.141 314.359 416.109 312.734C414.078 311.078 412.5 309.188 411.375 307.062C410.25 304.906 409.688 302.422 409.688 299.609C409.688 296.828 410.266 294.297 411.422 292.016C412.609 289.734 414.281 287.766 416.438 286.109C418.625 284.422 421.203 283.125 424.172 282.219C427.141 281.281 430.422 280.812 434.016 280.812C439.078 280.812 443.438 281.75 447.094 283.625C450.781 285.5 453.609 288.016 455.578 291.172C457.578 294.328 458.578 297.812 458.578 301.625H446.906C446.906 299.375 446.422 297.391 445.453 295.672C444.516 293.922 443.078 292.547 441.141 291.547C439.234 290.547 436.812 290.047 433.875 290.047C431.094 290.047 428.781 290.469 426.938 291.312C425.094 292.156 423.719 293.297 422.812 294.734C421.906 296.172 421.453 297.797 421.453 299.609C421.453 300.891 421.75 302.062 422.344 303.125C422.938 304.156 423.844 305.125 425.062 306.031C426.281 306.906 427.812 307.734 429.656 308.516C431.5 309.297 433.672 310.047 436.172 310.766C439.953 311.891 443.25 313.141 446.062 314.516C448.875 315.859 451.219 317.391 453.094 319.109C454.969 320.828 456.375 322.781 457.312 324.969C458.25 327.125 458.719 329.578 458.719 332.328C458.719 335.203 458.141 337.797 456.984 340.109C455.828 342.391 454.172 344.344 452.016 345.969C449.891 347.562 447.328 348.797 444.328 349.672C441.359 350.516 438.047 350.938 434.391 350.938C431.109 350.938 427.875 350.5 424.688 349.625C421.531 348.75 418.656 347.422 416.062 345.641C413.469 343.828 411.406 341.578 409.875 338.891C408.344 336.172 407.578 333 407.578 329.375H419.344C419.344 331.594 419.719 333.484 420.469 335.047C421.25 336.609 422.328 337.891 423.703 338.891C425.078 339.859 426.672 340.578 428.484 341.047C430.328 341.516 432.297 341.75 434.391 341.75C437.141 341.75 439.438 341.359 441.281 340.578C443.156 339.797 444.562 338.703 445.5 337.297C446.438 335.891 446.906 334.266 446.906 332.422ZM488.719 341.938C490.562 341.938 492.219 341.578 493.688 340.859C495.188 340.109 496.391 339.078 497.297 337.766C498.234 336.453 498.75 334.938 498.844 333.219H509.484C509.422 336.5 508.453 339.484 506.578 342.172C504.703 344.859 502.219 347 499.125 348.594C496.031 350.156 492.609 350.938 488.859 350.938C484.984 350.938 481.609 350.281 478.734 348.969C475.859 347.625 473.469 345.781 471.562 343.438C469.656 341.094 468.219 338.391 467.25 335.328C466.312 332.266 465.844 328.984 465.844 325.484V323.844C465.844 320.344 466.312 317.062 467.25 314C468.219 310.906 469.656 308.188 471.562 305.844C473.469 303.5 475.859 301.672 478.734 300.359C481.609 299.016 484.969 298.344 488.812 298.344C492.875 298.344 496.438 299.156 499.5 300.781C502.562 302.375 504.969 304.609 506.719 307.484C508.5 310.328 509.422 313.641 509.484 317.422H498.844C498.75 315.547 498.281 313.859 497.438 312.359C496.625 310.828 495.469 309.609 493.969 308.703C492.5 307.797 490.734 307.344 488.672 307.344C486.391 307.344 484.5 307.812 483 308.75C481.5 309.656 480.328 310.906 479.484 312.5C478.641 314.062 478.031 315.828 477.656 317.797C477.312 319.734 477.141 321.75 477.141 323.844V325.484C477.141 327.578 477.312 329.609 477.656 331.578C478 333.547 478.594 335.312 479.438 336.875C480.312 338.406 481.5 339.641 483 340.578C484.5 341.484 486.406 341.938 488.719 341.938ZM529.5 308.938V350H518.203V299.281H528.984L529.5 308.938ZM545.016 298.953L544.922 309.453C544.234 309.328 543.484 309.234 542.672 309.172C541.891 309.109 541.109 309.078 540.328 309.078C538.391 309.078 536.688 309.359 535.219 309.922C533.75 310.453 532.516 311.234 531.516 312.266C530.547 313.266 529.797 314.484 529.266 315.922C528.734 317.359 528.422 318.969 528.328 320.75L525.75 320.938C525.75 317.75 526.062 314.797 526.688 312.078C527.312 309.359 528.25 306.969 529.5 304.906C530.781 302.844 532.375 301.234 534.281 300.078C536.219 298.922 538.453 298.344 540.984 298.344C541.672 298.344 542.406 298.406 543.188 298.531C544 298.656 544.609 298.797 545.016 298.953ZM564.188 299.281V350H552.844V299.281H564.188ZM552.094 285.969C552.094 284.25 552.656 282.828 553.781 281.703C554.938 280.547 556.531 279.969 558.562 279.969C560.562 279.969 562.141 280.547 563.297 281.703C564.453 282.828 565.031 284.25 565.031 285.969C565.031 287.656 564.453 289.062 563.297 290.188C562.141 291.312 560.562 291.875 558.562 291.875C556.531 291.875 554.938 291.312 553.781 290.188C552.656 289.062 552.094 287.656 552.094 285.969ZM587.906 309.031V369.5H576.609V299.281H587.016L587.906 309.031ZM620.953 324.172V325.156C620.953 328.844 620.516 332.266 619.641 335.422C618.797 338.547 617.531 341.281 615.844 343.625C614.188 345.938 612.141 347.734 609.703 349.016C607.266 350.297 604.453 350.938 601.266 350.938C598.109 350.938 595.344 350.359 592.969 349.203C590.625 348.016 588.641 346.344 587.016 344.188C585.391 342.031 584.078 339.5 583.078 336.594C582.109 333.656 581.422 330.438 581.016 326.938V323.141C581.422 319.422 582.109 316.047 583.078 313.016C584.078 309.984 585.391 307.375 587.016 305.188C588.641 303 590.625 301.312 592.969 300.125C595.312 298.938 598.047 298.344 601.172 298.344C604.359 298.344 607.188 298.969 609.656 300.219C612.125 301.438 614.203 303.188 615.891 305.469C617.578 307.719 618.844 310.438 619.688 313.625C620.531 316.781 620.953 320.297 620.953 324.172ZM609.656 325.156V324.172C609.656 321.828 609.438 319.656 609 317.656C608.562 315.625 607.875 313.844 606.938 312.312C606 310.781 604.797 309.594 603.328 308.75C601.891 307.875 600.156 307.438 598.125 307.438C596.125 307.438 594.406 307.781 592.969 308.469C591.531 309.125 590.328 310.047 589.359 311.234C588.391 312.422 587.641 313.812 587.109 315.406C586.578 316.969 586.203 318.672 585.984 320.516V329.609C586.359 331.859 587 333.922 587.906 335.797C588.812 337.672 590.094 339.172 591.75 340.297C593.438 341.391 595.594 341.938 598.219 341.938C600.25 341.938 601.984 341.5 603.422 340.625C604.859 339.75 606.031 338.547 606.938 337.016C607.875 335.453 608.562 333.656 609 331.625C609.438 329.594 609.656 327.438 609.656 325.156ZM653.812 299.281V307.531H625.219V299.281H653.812ZM633.469 286.859H644.766V335.984C644.766 337.547 644.984 338.75 645.422 339.594C645.891 340.406 646.531 340.953 647.344 341.234C648.156 341.516 649.109 341.656 650.203 341.656C650.984 341.656 651.734 341.609 652.453 341.516C653.172 341.422 653.75 341.328 654.188 341.234L654.234 349.859C653.297 350.141 652.203 350.391 650.953 350.609C649.734 350.828 648.328 350.938 646.734 350.938C644.141 350.938 641.844 350.484 639.844 349.578C637.844 348.641 636.281 347.125 635.156 345.031C634.031 342.938 633.469 340.156 633.469 336.688V286.859Z" fill="black"/>
<path d="M720 488H800V558C800 563.523 795.523 568 790 568H720V488Z" fill="#03449D"/>
<path d="M757.461 538.934V542H742.402V538.934H757.461ZM743.164 513.562V542H739.395V513.562H743.164ZM755.469 525.789V528.855H742.402V525.789H755.469ZM757.266 513.562V516.648H742.402V513.562H757.266ZM764.57 513.562L771.406 524.461L778.242 513.562H782.637L773.652 527.645L782.852 542H778.418L771.406 530.887L764.395 542H759.961L769.16 527.645L760.176 513.562H764.57Z" fill="#F8F7F2"/>
<defs>
<linearGradient id="paint0_linear_9_38" x1="400" y1="0" x2="400" y2="567.742" gradientUnits="userSpaceOnUse">
<stop stop-color="#C0B020" stop-opacity="0.71"/>
<stop offset="1" stop-color="#E6D53D"/>
</linearGradient>
</defs>
</svg>
