<svg width="800" height="568" viewBox="0 0 800 568" fill="none" xmlns="http://www.w3.org/2000/svg">
<rect width="800" height="567.742" rx="10" fill="url(#paint0_linear_10_2)"/>
<path d="M115.828 224.766V186.281H130.547V237H116.766L115.828 224.766ZM117.375 214.406L121.406 214.312C121.406 217.719 121 220.859 120.188 223.734C119.406 226.609 118.219 229.109 116.625 231.234C115.062 233.359 113.109 235.016 110.766 236.203C108.453 237.359 105.75 237.938 102.656 237.938C100.156 237.938 97.8594 237.594 95.7656 236.906C93.7031 236.188 91.9219 235.078 90.4219 233.578C88.9219 232.047 87.7656 230.094 86.9531 227.719C86.1406 225.312 85.7344 222.438 85.7344 219.094V186.281H100.359V219.188C100.359 220.5 100.516 221.625 100.828 222.562C101.172 223.469 101.625 224.219 102.188 224.812C102.781 225.406 103.5 225.844 104.344 226.125C105.219 226.406 106.172 226.547 107.203 226.547C109.797 226.547 111.828 226.016 113.297 224.953C114.797 223.859 115.844 222.406 116.438 220.594C117.062 218.75 117.375 216.688 117.375 214.406ZM167.062 222.891C167.062 221.953 166.766 221.125 166.172 220.406C165.609 219.688 164.578 219.031 163.078 218.438C161.609 217.844 159.531 217.25 156.844 216.656C154.312 216.125 151.953 215.438 149.766 214.594C147.578 213.719 145.672 212.672 144.047 211.453C142.422 210.203 141.156 208.734 140.25 207.047C139.344 205.328 138.891 203.375 138.891 201.188C138.891 199.062 139.344 197.047 140.25 195.141C141.188 193.234 142.531 191.547 144.281 190.078C146.062 188.609 148.219 187.453 150.75 186.609C153.312 185.766 156.219 185.344 159.469 185.344C163.938 185.344 167.797 186.047 171.047 187.453C174.297 188.828 176.797 190.766 178.547 193.266C180.297 195.734 181.172 198.562 181.172 201.75H166.547C166.547 200.438 166.297 199.297 165.797 198.328C165.297 197.359 164.531 196.609 163.5 196.078C162.469 195.516 161.109 195.234 159.422 195.234C158.109 195.234 156.953 195.469 155.953 195.938C154.984 196.375 154.219 196.984 153.656 197.766C153.125 198.547 152.859 199.453 152.859 200.484C152.859 201.203 153.016 201.859 153.328 202.453C153.672 203.016 154.188 203.547 154.875 204.047C155.594 204.516 156.516 204.938 157.641 205.312C158.797 205.688 160.203 206.047 161.859 206.391C165.391 207.047 168.609 207.969 171.516 209.156C174.453 210.344 176.797 211.984 178.547 214.078C180.328 216.172 181.219 218.938 181.219 222.375C181.219 224.625 180.703 226.688 179.672 228.562C178.672 230.438 177.219 232.078 175.312 233.484C173.406 234.891 171.125 235.984 168.469 236.766C165.812 237.547 162.812 237.938 159.469 237.938C154.688 237.938 150.641 237.078 147.328 235.359C144.016 233.641 141.516 231.484 139.828 228.891C138.172 226.266 137.344 223.578 137.344 220.828H151.078C151.141 222.516 151.562 223.891 152.344 224.953C153.156 226.016 154.203 226.797 155.484 227.297C156.766 227.766 158.203 228 159.797 228C161.391 228 162.719 227.781 163.781 227.344C164.844 226.906 165.656 226.312 166.219 225.562C166.781 224.781 167.062 223.891 167.062 222.891ZM213.281 237.938C209.25 237.938 205.641 237.297 202.453 236.016C199.266 234.734 196.562 232.969 194.344 230.719C192.156 228.438 190.484 225.812 189.328 222.844C188.172 219.875 187.594 216.703 187.594 213.328V211.547C187.594 207.766 188.125 204.281 189.188 201.094C190.25 197.906 191.797 195.141 193.828 192.797C195.891 190.422 198.422 188.594 201.422 187.312C204.422 186 207.844 185.344 211.688 185.344C215.281 185.344 218.484 185.938 221.297 187.125C224.109 188.281 226.484 189.953 228.422 192.141C230.359 194.297 231.828 196.906 232.828 199.969C233.859 203 234.375 206.406 234.375 210.188V216.188H193.5V206.766H220.031V205.641C220.031 203.859 219.703 202.297 219.047 200.953C218.422 199.609 217.484 198.578 216.234 197.859C215.016 197.109 213.469 196.734 211.594 196.734C209.812 196.734 208.328 197.109 207.141 197.859C205.953 198.609 205 199.672 204.281 201.047C203.594 202.391 203.094 203.969 202.781 205.781C202.469 207.562 202.312 209.484 202.312 211.547V213.328C202.312 215.297 202.578 217.094 203.109 218.719C203.641 220.344 204.422 221.734 205.453 222.891C206.484 224.047 207.734 224.953 209.203 225.609C210.672 226.266 212.344 226.594 214.219 226.594C216.531 226.594 218.734 226.156 220.828 225.281C222.922 224.375 224.734 222.969 226.266 221.062L233.109 228.891C232.078 230.391 230.625 231.844 228.75 233.25C226.906 234.625 224.688 235.75 222.094 236.625C219.5 237.5 216.562 237.938 213.281 237.938ZM277.641 219C277.641 217.844 277.469 216.812 277.125 215.906C276.781 214.969 276.156 214.109 275.25 213.328C274.344 212.547 273.062 211.766 271.406 210.984C269.75 210.172 267.578 209.344 264.891 208.5C261.828 207.5 258.906 206.375 256.125 205.125C253.375 203.844 250.922 202.359 248.766 200.672C246.609 198.984 244.906 197.016 243.656 194.766C242.438 192.516 241.828 189.891 241.828 186.891C241.828 183.984 242.469 181.359 243.75 179.016C245.031 176.672 246.828 174.672 249.141 173.016C251.453 171.328 254.172 170.047 257.297 169.172C260.422 168.266 263.859 167.812 267.609 167.812C272.609 167.812 277 168.703 280.781 170.484C284.594 172.234 287.562 174.703 289.688 177.891C291.812 181.047 292.875 184.719 292.875 188.906H277.688C277.688 187.062 277.297 185.438 276.516 184.031C275.766 182.594 274.609 181.469 273.047 180.656C271.516 179.844 269.594 179.438 267.281 179.438C265.031 179.438 263.141 179.781 261.609 180.469C260.109 181.125 258.969 182.031 258.188 183.188C257.438 184.344 257.062 185.609 257.062 186.984C257.062 188.078 257.344 189.078 257.906 189.984C258.5 190.859 259.344 191.688 260.438 192.469C261.562 193.219 262.938 193.938 264.562 194.625C266.188 195.312 268.047 195.969 270.141 196.594C273.797 197.75 277.031 199.031 279.844 200.438C282.688 201.844 285.078 203.438 287.016 205.219C288.953 207 290.406 209.016 291.375 211.266C292.375 213.516 292.875 216.062 292.875 218.906C292.875 221.938 292.281 224.625 291.094 226.969C289.938 229.312 288.25 231.312 286.031 232.969C283.844 234.594 281.219 235.828 278.156 236.672C275.094 237.516 271.672 237.938 267.891 237.938C264.453 237.938 261.062 237.5 257.719 236.625C254.375 235.719 251.344 234.344 248.625 232.5C245.938 230.656 243.781 228.312 242.156 225.469C240.562 222.594 239.766 219.188 239.766 215.25H255.047C255.047 217.312 255.344 219.062 255.938 220.5C256.531 221.906 257.375 223.047 258.469 223.922C259.594 224.797 260.953 225.422 262.547 225.797C264.141 226.172 265.922 226.359 267.891 226.359C270.172 226.359 272.016 226.047 273.422 225.422C274.859 224.766 275.922 223.875 276.609 222.75C277.297 221.625 277.641 220.375 277.641 219ZM326.906 186.281V196.547H296.812V186.281H326.906ZM303.703 173.719H318.375V221.109C318.375 222.516 318.547 223.594 318.891 224.344C319.234 225.094 319.797 225.625 320.578 225.938C321.359 226.219 322.359 226.359 323.578 226.359C324.453 226.359 325.203 226.328 325.828 226.266C326.453 226.203 327.031 226.125 327.562 226.031V236.625C326.312 237.031 324.984 237.344 323.578 237.562C322.172 237.812 320.641 237.938 318.984 237.938C315.828 237.938 313.094 237.422 310.781 236.391C308.5 235.359 306.75 233.734 305.531 231.516C304.312 229.266 303.703 226.344 303.703 222.75V173.719ZM360.797 224.906V203.156C360.797 201.625 360.562 200.312 360.094 199.219C359.625 198.125 358.891 197.266 357.891 196.641C356.891 196.016 355.594 195.703 354 195.703C352.656 195.703 351.484 195.938 350.484 196.406C349.516 196.875 348.766 197.547 348.234 198.422C347.734 199.297 347.484 200.375 347.484 201.656H332.859C332.859 199.375 333.375 197.25 334.406 195.281C335.438 193.312 336.906 191.578 338.812 190.078C340.75 188.578 343.062 187.422 345.75 186.609C348.438 185.766 351.453 185.344 354.797 185.344C358.766 185.344 362.297 186.016 365.391 187.359C368.516 188.672 370.984 190.656 372.797 193.312C374.609 195.938 375.516 199.25 375.516 203.25V224.484C375.516 227.547 375.688 229.953 376.031 231.703C376.406 233.422 376.938 234.922 377.625 236.203V237H362.859C362.172 235.531 361.656 233.719 361.312 231.562C360.969 229.375 360.797 227.156 360.797 224.906ZM362.625 206.062L362.719 214.125H355.453C353.828 214.125 352.422 214.328 351.234 214.734C350.078 215.141 349.141 215.703 348.422 216.422C347.703 217.109 347.172 217.922 346.828 218.859C346.516 219.766 346.359 220.766 346.359 221.859C346.359 222.891 346.609 223.828 347.109 224.672C347.609 225.484 348.297 226.125 349.172 226.594C350.047 227.062 351.062 227.297 352.219 227.297C354.125 227.297 355.75 226.922 357.094 226.172C358.469 225.422 359.531 224.516 360.281 223.453C361.031 222.359 361.406 221.344 361.406 220.406L364.922 226.5C364.359 227.75 363.672 229.047 362.859 230.391C362.047 231.703 361.016 232.938 359.766 234.094C358.516 235.219 357 236.141 355.219 236.859C353.469 237.578 351.359 237.938 348.891 237.938C345.703 237.938 342.812 237.297 340.219 236.016C337.625 234.703 335.547 232.906 333.984 230.625C332.453 228.344 331.688 225.719 331.688 222.75C331.688 220.094 332.172 217.734 333.141 215.672C334.109 213.609 335.562 211.859 337.5 210.422C339.469 208.984 341.938 207.906 344.906 207.188C347.875 206.438 351.344 206.062 355.312 206.062H362.625ZM410.906 186.281V196.547H380.812V186.281H410.906ZM387.703 173.719H402.375V221.109C402.375 222.516 402.547 223.594 402.891 224.344C403.234 225.094 403.797 225.625 404.578 225.938C405.359 226.219 406.359 226.359 407.578 226.359C408.453 226.359 409.203 226.328 409.828 226.266C410.453 226.203 411.031 226.125 411.562 226.031V236.625C410.312 237.031 408.984 237.344 407.578 237.562C406.172 237.812 404.641 237.938 402.984 237.938C399.828 237.938 397.094 237.422 394.781 236.391C392.5 235.359 390.75 233.734 389.531 231.516C388.312 229.266 387.703 226.344 387.703 222.75V173.719ZM441.844 237.938C437.812 237.938 434.203 237.297 431.016 236.016C427.828 234.734 425.125 232.969 422.906 230.719C420.719 228.438 419.047 225.812 417.891 222.844C416.734 219.875 416.156 216.703 416.156 213.328V211.547C416.156 207.766 416.688 204.281 417.75 201.094C418.812 197.906 420.359 195.141 422.391 192.797C424.453 190.422 426.984 188.594 429.984 187.312C432.984 186 436.406 185.344 440.25 185.344C443.844 185.344 447.047 185.938 449.859 187.125C452.672 188.281 455.047 189.953 456.984 192.141C458.922 194.297 460.391 196.906 461.391 199.969C462.422 203 462.938 206.406 462.938 210.188V216.188H422.062V206.766H448.594V205.641C448.594 203.859 448.266 202.297 447.609 200.953C446.984 199.609 446.047 198.578 444.797 197.859C443.578 197.109 442.031 196.734 440.156 196.734C438.375 196.734 436.891 197.109 435.703 197.859C434.516 198.609 433.562 199.672 432.844 201.047C432.156 202.391 431.656 203.969 431.344 205.781C431.031 207.562 430.875 209.484 430.875 211.547V213.328C430.875 215.297 431.141 217.094 431.672 218.719C432.203 220.344 432.984 221.734 434.016 222.891C435.047 224.047 436.297 224.953 437.766 225.609C439.234 226.266 440.906 226.594 442.781 226.594C445.094 226.594 447.297 226.156 449.391 225.281C451.484 224.375 453.297 222.969 454.828 221.062L461.672 228.891C460.641 230.391 459.188 231.844 457.312 233.25C455.469 234.625 453.25 235.75 450.656 236.625C448.062 237.5 445.125 237.938 441.844 237.938ZM498.75 201.938V213.375H471.469V201.938H498.75ZM524.859 165V237H510.234V165H524.859ZM522.938 209.859L519.281 209.953C519.281 206.391 519.719 203.125 520.594 200.156C521.5 197.156 522.781 194.547 524.438 192.328C526.094 190.109 528.078 188.391 530.391 187.172C532.734 185.953 535.312 185.344 538.125 185.344C540.625 185.344 542.906 185.703 544.969 186.422C547.031 187.141 548.812 188.281 550.312 189.844C551.812 191.406 552.969 193.453 553.781 195.984C554.594 198.516 555 201.594 555 205.219V237H540.281V205.125C540.281 202.969 539.969 201.281 539.344 200.062C538.75 198.844 537.875 197.984 536.719 197.484C535.594 196.984 534.219 196.734 532.594 196.734C530.688 196.734 529.109 197.078 527.859 197.766C526.609 198.422 525.625 199.344 524.906 200.531C524.188 201.719 523.672 203.109 523.359 204.703C523.078 206.297 522.938 208.016 522.938 209.859ZM562.453 212.156V211.172C562.453 207.453 562.984 204.031 564.047 200.906C565.109 197.75 566.672 195.016 568.734 192.703C570.797 190.391 573.328 188.594 576.328 187.312C579.328 186 582.766 185.344 586.641 185.344C590.578 185.344 594.047 186 597.047 187.312C600.078 188.594 602.625 190.391 604.688 192.703C606.75 195.016 608.312 197.75 609.375 200.906C610.438 204.031 610.969 207.453 610.969 211.172V212.156C610.969 215.844 610.438 219.266 609.375 222.422C608.312 225.547 606.75 228.281 604.688 230.625C602.625 232.938 600.094 234.734 597.094 236.016C594.094 237.297 590.641 237.938 586.734 237.938C582.859 237.938 579.406 237.297 576.375 236.016C573.344 234.734 570.797 232.938 568.734 230.625C566.672 228.281 565.109 225.547 564.047 222.422C562.984 219.266 562.453 215.844 562.453 212.156ZM577.125 211.172V212.156C577.125 214.156 577.281 216.031 577.594 217.781C577.938 219.531 578.484 221.062 579.234 222.375C579.984 223.688 580.969 224.719 582.188 225.469C583.438 226.188 584.953 226.547 586.734 226.547C588.516 226.547 590.016 226.188 591.234 225.469C592.453 224.719 593.438 223.688 594.188 222.375C594.938 221.062 595.469 219.531 595.781 217.781C596.125 216.031 596.297 214.156 596.297 212.156V211.172C596.297 209.203 596.125 207.359 595.781 205.641C595.469 203.891 594.938 202.344 594.188 201C593.438 199.656 592.438 198.609 591.188 197.859C589.969 197.109 588.453 196.734 586.641 196.734C584.891 196.734 583.406 197.109 582.188 197.859C580.969 198.609 579.984 199.656 579.234 201C578.484 202.344 577.938 203.891 577.594 205.641C577.281 207.359 577.125 209.203 577.125 211.172ZM616.547 212.156V211.172C616.547 207.453 617.078 204.031 618.141 200.906C619.203 197.75 620.766 195.016 622.828 192.703C624.891 190.391 627.422 188.594 630.422 187.312C633.422 186 636.859 185.344 640.734 185.344C644.672 185.344 648.141 186 651.141 187.312C654.172 188.594 656.719 190.391 658.781 192.703C660.844 195.016 662.406 197.75 663.469 200.906C664.531 204.031 665.062 207.453 665.062 211.172V212.156C665.062 215.844 664.531 219.266 663.469 222.422C662.406 225.547 660.844 228.281 658.781 230.625C656.719 232.938 654.188 234.734 651.188 236.016C648.188 237.297 644.734 237.938 640.828 237.938C636.953 237.938 633.5 237.297 630.469 236.016C627.438 234.734 624.891 232.938 622.828 230.625C620.766 228.281 619.203 225.547 618.141 222.422C617.078 219.266 616.547 215.844 616.547 212.156ZM631.219 211.172V212.156C631.219 214.156 631.375 216.031 631.688 217.781C632.031 219.531 632.578 221.062 633.328 222.375C634.078 223.688 635.062 224.719 636.281 225.469C637.531 226.188 639.047 226.547 640.828 226.547C642.609 226.547 644.109 226.188 645.328 225.469C646.547 224.719 647.531 223.688 648.281 222.375C649.031 221.062 649.562 219.531 649.875 217.781C650.219 216.031 650.391 214.156 650.391 212.156V211.172C650.391 209.203 650.219 207.359 649.875 205.641C649.562 203.891 649.031 202.344 648.281 201C647.531 199.656 646.531 198.609 645.281 197.859C644.062 197.109 642.547 196.734 640.734 196.734C638.984 196.734 637.5 197.109 636.281 197.859C635.062 198.609 634.078 199.656 633.328 201C632.578 202.344 632.031 203.891 631.688 205.641C631.375 207.359 631.219 209.203 631.219 211.172ZM687.469 164.953V237H672.797V164.953H687.469ZM719.672 186.281L697.594 211.781L685.922 223.5L680.062 213.609L689.531 201.375L702.047 186.281H719.672ZM704.203 237L689.906 213.703L700.406 205.5L720.984 237H704.203Z" fill="black"/>
<path d="M99.0938 299.281V350H87.75V299.281H99.0938ZM87 285.969C87 284.25 87.5625 282.828 88.6875 281.703C89.8438 280.547 91.4375 279.969 93.4688 279.969C95.4688 279.969 97.0469 280.547 98.2031 281.703C99.3594 282.828 99.9375 284.25 99.9375 285.969C99.9375 287.656 99.3594 289.062 98.2031 290.188C97.0469 291.312 95.4688 291.875 93.4688 291.875C91.4375 291.875 89.8438 291.312 88.6875 290.188C87.5625 289.062 87 287.656 87 285.969ZM122.672 310.109V350H111.375V299.281H122.016L122.672 310.109ZM120.656 322.766L117 322.719C117.031 319.125 117.531 315.828 118.5 312.828C119.5 309.828 120.875 307.25 122.625 305.094C124.406 302.938 126.531 301.281 129 300.125C131.469 298.938 134.219 298.344 137.25 298.344C139.688 298.344 141.891 298.688 143.859 299.375C145.859 300.031 147.562 301.109 148.969 302.609C150.406 304.109 151.5 306.062 152.25 308.469C153 310.844 153.375 313.766 153.375 317.234V350H142.031V317.188C142.031 314.75 141.672 312.828 140.953 311.422C140.266 309.984 139.25 308.969 137.906 308.375C136.594 307.75 134.953 307.438 132.984 307.438C131.047 307.438 129.312 307.844 127.781 308.656C126.25 309.469 124.953 310.578 123.891 311.984C122.859 313.391 122.062 315.016 121.5 316.859C120.938 318.703 120.656 320.672 120.656 322.766ZM189.938 281.75H214.078C219.266 281.75 223.688 282.531 227.344 284.094C231 285.656 233.797 287.969 235.734 291.031C237.703 294.062 238.688 297.812 238.688 302.281C238.688 305.688 238.062 308.688 236.812 311.281C235.562 313.875 233.797 316.062 231.516 317.844C229.234 319.594 226.516 320.953 223.359 321.922L219.797 323.656H198.094L198 314.328H214.266C217.078 314.328 219.422 313.828 221.297 312.828C223.172 311.828 224.578 310.469 225.516 308.75C226.484 307 226.969 305.031 226.969 302.844C226.969 300.469 226.5 298.406 225.562 296.656C224.656 294.875 223.25 293.516 221.344 292.578C219.438 291.609 217.016 291.125 214.078 291.125H201.703V350H189.938V281.75ZM228.891 350L212.859 319.344L225.188 319.297L241.453 349.391V350H228.891ZM271.641 350.938C267.891 350.938 264.5 350.328 261.469 349.109C258.469 347.859 255.906 346.125 253.781 343.906C251.688 341.688 250.078 339.078 248.953 336.078C247.828 333.078 247.266 329.844 247.266 326.375V324.5C247.266 320.531 247.844 316.938 249 313.719C250.156 310.5 251.766 307.75 253.828 305.469C255.891 303.156 258.328 301.391 261.141 300.172C263.953 298.953 267 298.344 270.281 298.344C273.906 298.344 277.078 298.953 279.797 300.172C282.516 301.391 284.766 303.109 286.547 305.328C288.359 307.516 289.703 310.125 290.578 313.156C291.484 316.188 291.938 319.531 291.938 323.188V328.016H252.75V319.906H280.781V319.016C280.719 316.984 280.312 315.078 279.562 313.297C278.844 311.516 277.734 310.078 276.234 308.984C274.734 307.891 272.734 307.344 270.234 307.344C268.359 307.344 266.688 307.75 265.219 308.562C263.781 309.344 262.578 310.484 261.609 311.984C260.641 313.484 259.891 315.297 259.359 317.422C258.859 319.516 258.609 321.875 258.609 324.5V326.375C258.609 328.594 258.906 330.656 259.5 332.562C260.125 334.438 261.031 336.078 262.219 337.484C263.406 338.891 264.844 340 266.531 340.812C268.219 341.594 270.141 341.984 272.297 341.984C275.016 341.984 277.438 341.438 279.562 340.344C281.688 339.25 283.531 337.703 285.094 335.703L291.047 341.469C289.953 343.062 288.531 344.594 286.781 346.062C285.031 347.5 282.891 348.672 280.359 349.578C277.859 350.484 274.953 350.938 271.641 350.938ZM329.344 339.828V315.641C329.344 313.828 329.016 312.266 328.359 310.953C327.703 309.641 326.703 308.625 325.359 307.906C324.047 307.188 322.391 306.828 320.391 306.828C318.547 306.828 316.953 307.141 315.609 307.766C314.266 308.391 313.219 309.234 312.469 310.297C311.719 311.359 311.344 312.562 311.344 313.906H300.094C300.094 311.906 300.578 309.969 301.547 308.094C302.516 306.219 303.922 304.547 305.766 303.078C307.609 301.609 309.812 300.453 312.375 299.609C314.938 298.766 317.812 298.344 321 298.344C324.812 298.344 328.188 298.984 331.125 300.266C334.094 301.547 336.422 303.484 338.109 306.078C339.828 308.641 340.688 311.859 340.688 315.734V338.281C340.688 340.594 340.844 342.672 341.156 344.516C341.5 346.328 341.984 347.906 342.609 349.25V350H331.031C330.5 348.781 330.078 347.234 329.766 345.359C329.484 343.453 329.344 341.609 329.344 339.828ZM330.984 319.156L331.078 326.141H322.969C320.875 326.141 319.031 326.344 317.438 326.75C315.844 327.125 314.516 327.688 313.453 328.438C312.391 329.188 311.594 330.094 311.062 331.156C310.531 332.219 310.266 333.422 310.266 334.766C310.266 336.109 310.578 337.344 311.203 338.469C311.828 339.562 312.734 340.422 313.922 341.047C315.141 341.672 316.609 341.984 318.328 341.984C320.641 341.984 322.656 341.516 324.375 340.578C326.125 339.609 327.5 338.438 328.5 337.062C329.5 335.656 330.031 334.328 330.094 333.078L333.75 338.094C333.375 339.375 332.734 340.75 331.828 342.219C330.922 343.688 329.734 345.094 328.266 346.438C326.828 347.75 325.094 348.828 323.062 349.672C321.062 350.516 318.75 350.938 316.125 350.938C312.812 350.938 309.859 350.281 307.266 348.969C304.672 347.625 302.641 345.828 301.172 343.578C299.703 341.297 298.969 338.719 298.969 335.844C298.969 333.156 299.469 330.781 300.469 328.719C301.5 326.625 303 324.875 304.969 323.469C306.969 322.062 309.406 321 312.281 320.281C315.156 319.531 318.438 319.156 322.125 319.156H330.984ZM373.219 341.938C375.062 341.938 376.719 341.578 378.188 340.859C379.688 340.109 380.891 339.078 381.797 337.766C382.734 336.453 383.25 334.938 383.344 333.219H393.984C393.922 336.5 392.953 339.484 391.078 342.172C389.203 344.859 386.719 347 383.625 348.594C380.531 350.156 377.109 350.938 373.359 350.938C369.484 350.938 366.109 350.281 363.234 348.969C360.359 347.625 357.969 345.781 356.062 343.438C354.156 341.094 352.719 338.391 351.75 335.328C350.812 332.266 350.344 328.984 350.344 325.484V323.844C350.344 320.344 350.812 317.062 351.75 314C352.719 310.906 354.156 308.188 356.062 305.844C357.969 303.5 360.359 301.672 363.234 300.359C366.109 299.016 369.469 298.344 373.312 298.344C377.375 298.344 380.938 299.156 384 300.781C387.062 302.375 389.469 304.609 391.219 307.484C393 310.328 393.922 313.641 393.984 317.422H383.344C383.25 315.547 382.781 313.859 381.938 312.359C381.125 310.828 379.969 309.609 378.469 308.703C377 307.797 375.234 307.344 373.172 307.344C370.891 307.344 369 307.812 367.5 308.75C366 309.656 364.828 310.906 363.984 312.5C363.141 314.062 362.531 315.828 362.156 317.797C361.812 319.734 361.641 321.75 361.641 323.844V325.484C361.641 327.578 361.812 329.609 362.156 331.578C362.5 333.547 363.094 335.312 363.938 336.875C364.812 338.406 366 339.641 367.5 340.578C369 341.484 370.906 341.938 373.219 341.938ZM425.906 299.281V307.531H397.312V299.281H425.906ZM405.562 286.859H416.859V335.984C416.859 337.547 417.078 338.75 417.516 339.594C417.984 340.406 418.625 340.953 419.438 341.234C420.25 341.516 421.203 341.656 422.297 341.656C423.078 341.656 423.828 341.609 424.547 341.516C425.266 341.422 425.844 341.328 426.281 341.234L426.328 349.859C425.391 350.141 424.297 350.391 423.047 350.609C421.828 350.828 420.422 350.938 418.828 350.938C416.234 350.938 413.938 350.484 411.938 349.578C409.938 348.641 408.375 347.125 407.25 345.031C406.125 342.938 405.562 340.156 405.562 336.688V286.859Z" fill="black"/>
<path d="M720 488H800V558C800 563.523 795.523 568 790 568H720V488Z" fill="#03449D"/>
<path d="M757.461 538.934V542H742.402V538.934H757.461ZM743.164 513.562V542H739.395V513.562H743.164ZM755.469 525.789V528.855H742.402V525.789H755.469ZM757.266 513.562V516.648H742.402V513.562H757.266ZM764.57 513.562L771.406 524.461L778.242 513.562H782.637L773.652 527.645L782.852 542H778.418L771.406 530.887L764.395 542H759.961L769.16 527.645L760.176 513.562H764.57Z" fill="#F8F7F2"/>
<defs>
<linearGradient id="paint0_linear_10_2" x1="400" y1="0" x2="400" y2="567.742" gradientUnits="userSpaceOnUse">
<stop stop-color="#C0B020" stop-opacity="0.71"/>
<stop offset="1" stop-color="#E6D53D"/>
</linearGradient>
</defs>
</svg>
