<svg width="800" height="568" viewBox="0 0 800 568" fill="none" xmlns="http://www.w3.org/2000/svg">
<rect width="800" height="567.742" rx="10" fill="url(#paint0_linear_10_10)"/>
<rect width="800" height="567.742" rx="10" fill="url(#paint1_linear_10_10)"/>
<path d="M720 488H800V558C800 563.523 795.523 568 790 568H720V488Z" fill="#03449D"/>
<path d="M757.461 538.934V542H742.402V538.934H757.461ZM743.164 513.562V542H739.395V513.562H743.164ZM755.469 525.789V528.855H742.402V525.789H755.469ZM757.266 513.562V516.648H742.402V513.562H757.266ZM764.57 513.562L771.406 524.461L778.242 513.562H782.637L773.652 527.645L782.852 542H778.418L771.406 530.887L764.395 542H759.961L769.16 527.645L760.176 513.562H764.57Z" fill="#F8F7F2"/>
<path d="M102.094 224.766V186.281H116.812V237H103.031L102.094 224.766ZM103.641 214.406L107.672 214.312C107.672 217.719 107.266 220.859 106.453 223.734C105.672 226.609 104.484 229.109 102.891 231.234C101.328 233.359 99.375 235.016 97.0312 236.203C94.7188 237.359 92.0156 237.938 88.9219 237.938C86.4219 237.938 84.125 237.594 82.0312 236.906C79.9688 236.188 78.1875 235.078 76.6875 233.578C75.1875 232.047 74.0312 230.094 73.2188 227.719C72.4062 225.312 72 222.438 72 219.094V186.281H86.625V219.188C86.625 220.5 86.7812 221.625 87.0938 222.562C87.4375 223.469 87.8906 224.219 88.4531 224.812C89.0469 225.406 89.7656 225.844 90.6094 226.125C91.4844 226.406 92.4375 226.547 93.4688 226.547C96.0625 226.547 98.0938 226.016 99.5625 224.953C101.062 223.859 102.109 222.406 102.703 220.594C103.328 218.75 103.641 216.688 103.641 214.406ZM153.328 222.891C153.328 221.953 153.031 221.125 152.438 220.406C151.875 219.688 150.844 219.031 149.344 218.438C147.875 217.844 145.797 217.25 143.109 216.656C140.578 216.125 138.219 215.438 136.031 214.594C133.844 213.719 131.938 212.672 130.312 211.453C128.688 210.203 127.422 208.734 126.516 207.047C125.609 205.328 125.156 203.375 125.156 201.188C125.156 199.062 125.609 197.047 126.516 195.141C127.453 193.234 128.797 191.547 130.547 190.078C132.328 188.609 134.484 187.453 137.016 186.609C139.578 185.766 142.484 185.344 145.734 185.344C150.203 185.344 154.062 186.047 157.312 187.453C160.562 188.828 163.062 190.766 164.812 193.266C166.562 195.734 167.438 198.562 167.438 201.75H152.812C152.812 200.438 152.562 199.297 152.062 198.328C151.562 197.359 150.797 196.609 149.766 196.078C148.734 195.516 147.375 195.234 145.688 195.234C144.375 195.234 143.219 195.469 142.219 195.938C141.25 196.375 140.484 196.984 139.922 197.766C139.391 198.547 139.125 199.453 139.125 200.484C139.125 201.203 139.281 201.859 139.594 202.453C139.938 203.016 140.453 203.547 141.141 204.047C141.859 204.516 142.781 204.938 143.906 205.312C145.062 205.688 146.469 206.047 148.125 206.391C151.656 207.047 154.875 207.969 157.781 209.156C160.719 210.344 163.062 211.984 164.812 214.078C166.594 216.172 167.484 218.938 167.484 222.375C167.484 224.625 166.969 226.688 165.938 228.562C164.938 230.438 163.484 232.078 161.578 233.484C159.672 234.891 157.391 235.984 154.734 236.766C152.078 237.547 149.078 237.938 145.734 237.938C140.953 237.938 136.906 237.078 133.594 235.359C130.281 233.641 127.781 231.484 126.094 228.891C124.438 226.266 123.609 223.578 123.609 220.828H137.344C137.406 222.516 137.828 223.891 138.609 224.953C139.422 226.016 140.469 226.797 141.75 227.297C143.031 227.766 144.469 228 146.062 228C147.656 228 148.984 227.781 150.047 227.344C151.109 226.906 151.922 226.312 152.484 225.562C153.047 224.781 153.328 223.891 153.328 222.891ZM199.547 237.938C195.516 237.938 191.906 237.297 188.719 236.016C185.531 234.734 182.828 232.969 180.609 230.719C178.422 228.438 176.75 225.812 175.594 222.844C174.438 219.875 173.859 216.703 173.859 213.328V211.547C173.859 207.766 174.391 204.281 175.453 201.094C176.516 197.906 178.062 195.141 180.094 192.797C182.156 190.422 184.688 188.594 187.688 187.312C190.688 186 194.109 185.344 197.953 185.344C201.547 185.344 204.75 185.938 207.562 187.125C210.375 188.281 212.75 189.953 214.688 192.141C216.625 194.297 218.094 196.906 219.094 199.969C220.125 203 220.641 206.406 220.641 210.188V216.188H179.766V206.766H206.297V205.641C206.297 203.859 205.969 202.297 205.312 200.953C204.688 199.609 203.75 198.578 202.5 197.859C201.281 197.109 199.734 196.734 197.859 196.734C196.078 196.734 194.594 197.109 193.406 197.859C192.219 198.609 191.266 199.672 190.547 201.047C189.859 202.391 189.359 203.969 189.047 205.781C188.734 207.562 188.578 209.484 188.578 211.547V213.328C188.578 215.297 188.844 217.094 189.375 218.719C189.906 220.344 190.688 221.734 191.719 222.891C192.75 224.047 194 224.953 195.469 225.609C196.938 226.266 198.609 226.594 200.484 226.594C202.797 226.594 205 226.156 207.094 225.281C209.188 224.375 211 222.969 212.531 221.062L219.375 228.891C218.344 230.391 216.891 231.844 215.016 233.25C213.172 234.625 210.953 235.75 208.359 236.625C205.766 237.5 202.828 237.938 199.547 237.938ZM274.922 225.188V237H238.594V225.188H274.922ZM243.797 168.75V237H228.516V168.75H243.797ZM270.234 196.219V207.656H238.594V196.219H270.234ZM274.969 168.75V180.609H238.594V168.75H274.969ZM299.062 237H284.344V181.969C284.344 178.062 285.109 174.781 286.641 172.125C288.203 169.469 290.406 167.453 293.25 166.078C296.094 164.703 299.453 164.016 303.328 164.016C304.672 164.016 305.922 164.109 307.078 164.297C308.266 164.453 309.422 164.672 310.547 164.953V175.875C309.953 175.719 309.344 175.609 308.719 175.547C308.094 175.484 307.344 175.453 306.469 175.453C304.906 175.453 303.562 175.703 302.438 176.203C301.344 176.672 300.5 177.406 299.906 178.406C299.344 179.375 299.062 180.562 299.062 181.969V237ZM309.094 186.281V196.547H276.938V186.281H309.094ZM333.656 237H318.938V181.969C318.938 178.062 319.703 174.781 321.234 172.125C322.797 169.469 325 167.453 327.844 166.078C330.688 164.703 334.047 164.016 337.922 164.016C339.266 164.016 340.516 164.109 341.672 164.297C342.859 164.453 344.016 164.672 345.141 164.953V175.875C344.547 175.719 343.938 175.609 343.312 175.547C342.688 175.484 341.938 175.453 341.062 175.453C339.5 175.453 338.156 175.703 337.031 176.203C335.938 176.672 335.094 177.406 334.5 178.406C333.938 179.375 333.656 180.562 333.656 181.969V237ZM343.688 186.281V196.547H311.531V186.281H343.688ZM372.797 237.938C368.766 237.938 365.156 237.297 361.969 236.016C358.781 234.734 356.078 232.969 353.859 230.719C351.672 228.438 350 225.812 348.844 222.844C347.688 219.875 347.109 216.703 347.109 213.328V211.547C347.109 207.766 347.641 204.281 348.703 201.094C349.766 197.906 351.312 195.141 353.344 192.797C355.406 190.422 357.938 188.594 360.938 187.312C363.938 186 367.359 185.344 371.203 185.344C374.797 185.344 378 185.938 380.812 187.125C383.625 188.281 386 189.953 387.938 192.141C389.875 194.297 391.344 196.906 392.344 199.969C393.375 203 393.891 206.406 393.891 210.188V216.188H353.016V206.766H379.547V205.641C379.547 203.859 379.219 202.297 378.562 200.953C377.938 199.609 377 198.578 375.75 197.859C374.531 197.109 372.984 196.734 371.109 196.734C369.328 196.734 367.844 197.109 366.656 197.859C365.469 198.609 364.516 199.672 363.797 201.047C363.109 202.391 362.609 203.969 362.297 205.781C361.984 207.562 361.828 209.484 361.828 211.547V213.328C361.828 215.297 362.094 217.094 362.625 218.719C363.156 220.344 363.938 221.734 364.969 222.891C366 224.047 367.25 224.953 368.719 225.609C370.188 226.266 371.859 226.594 373.734 226.594C376.047 226.594 378.25 226.156 380.344 225.281C382.438 224.375 384.25 222.969 385.781 221.062L392.625 228.891C391.594 230.391 390.141 231.844 388.266 233.25C386.422 234.625 384.203 235.75 381.609 236.625C379.016 237.5 376.078 237.938 372.797 237.938ZM422.203 226.547C423.766 226.547 425.125 226.25 426.281 225.656C427.438 225.062 428.328 224.234 428.953 223.172C429.609 222.078 429.938 220.766 429.938 219.234H443.719C443.719 222.922 442.766 226.172 440.859 228.984C438.984 231.797 436.453 234 433.266 235.594C430.078 237.156 426.484 237.938 422.484 237.938C418.547 237.938 415.109 237.297 412.172 236.016C409.234 234.703 406.781 232.875 404.812 230.531C402.844 228.188 401.359 225.469 400.359 222.375C399.391 219.25 398.906 215.875 398.906 212.25V211.031C398.906 207.438 399.391 204.078 400.359 200.953C401.359 197.828 402.844 195.094 404.812 192.75C406.781 190.406 409.219 188.594 412.125 187.312C415.062 186 418.5 185.344 422.438 185.344C426.594 185.344 430.266 186.141 433.453 187.734C436.672 189.328 439.188 191.625 441 194.625C442.812 197.594 443.719 201.172 443.719 205.359H429.938C429.938 203.734 429.641 202.281 429.047 201C428.484 199.688 427.609 198.656 426.422 197.906C425.266 197.125 423.828 196.734 422.109 196.734C420.328 196.734 418.859 197.125 417.703 197.906C416.578 198.656 415.719 199.703 415.125 201.047C414.531 202.391 414.125 203.922 413.906 205.641C413.688 207.328 413.578 209.125 413.578 211.031V212.25C413.578 214.188 413.688 216.031 413.906 217.781C414.125 219.5 414.531 221.016 415.125 222.328C415.75 223.641 416.625 224.672 417.75 225.422C418.875 226.172 420.359 226.547 422.203 226.547ZM476.766 186.281V196.547H446.672V186.281H476.766ZM453.562 173.719H468.234V221.109C468.234 222.516 468.406 223.594 468.75 224.344C469.094 225.094 469.656 225.625 470.438 225.938C471.219 226.219 472.219 226.359 473.438 226.359C474.312 226.359 475.062 226.328 475.688 226.266C476.312 226.203 476.891 226.125 477.422 226.031V236.625C476.172 237.031 474.844 237.344 473.438 237.562C472.031 237.812 470.5 237.938 468.844 237.938C465.688 237.938 462.953 237.422 460.641 236.391C458.359 235.359 456.609 233.734 455.391 231.516C454.172 229.266 453.562 226.344 453.562 222.75V173.719ZM512.484 201.938V213.375H485.203V201.938H512.484ZM538.594 165V237H523.969V165H538.594ZM536.672 209.859L533.016 209.953C533.016 206.391 533.453 203.125 534.328 200.156C535.234 197.156 536.516 194.547 538.172 192.328C539.828 190.109 541.812 188.391 544.125 187.172C546.469 185.953 549.047 185.344 551.859 185.344C554.359 185.344 556.641 185.703 558.703 186.422C560.766 187.141 562.547 188.281 564.047 189.844C565.547 191.406 566.703 193.453 567.516 195.984C568.328 198.516 568.734 201.594 568.734 205.219V237H554.016V205.125C554.016 202.969 553.703 201.281 553.078 200.062C552.484 198.844 551.609 197.984 550.453 197.484C549.328 196.984 547.953 196.734 546.328 196.734C544.422 196.734 542.844 197.078 541.594 197.766C540.344 198.422 539.359 199.344 538.641 200.531C537.922 201.719 537.406 203.109 537.094 204.703C536.812 206.297 536.672 208.016 536.672 209.859ZM576.188 212.156V211.172C576.188 207.453 576.719 204.031 577.781 200.906C578.844 197.75 580.406 195.016 582.469 192.703C584.531 190.391 587.062 188.594 590.062 187.312C593.062 186 596.5 185.344 600.375 185.344C604.312 185.344 607.781 186 610.781 187.312C613.812 188.594 616.359 190.391 618.422 192.703C620.484 195.016 622.047 197.75 623.109 200.906C624.172 204.031 624.703 207.453 624.703 211.172V212.156C624.703 215.844 624.172 219.266 623.109 222.422C622.047 225.547 620.484 228.281 618.422 230.625C616.359 232.938 613.828 234.734 610.828 236.016C607.828 237.297 604.375 237.938 600.469 237.938C596.594 237.938 593.141 237.297 590.109 236.016C587.078 234.734 584.531 232.938 582.469 230.625C580.406 228.281 578.844 225.547 577.781 222.422C576.719 219.266 576.188 215.844 576.188 212.156ZM590.859 211.172V212.156C590.859 214.156 591.016 216.031 591.328 217.781C591.672 219.531 592.219 221.062 592.969 222.375C593.719 223.688 594.703 224.719 595.922 225.469C597.172 226.188 598.688 226.547 600.469 226.547C602.25 226.547 603.75 226.188 604.969 225.469C606.188 224.719 607.172 223.688 607.922 222.375C608.672 221.062 609.203 219.531 609.516 217.781C609.859 216.031 610.031 214.156 610.031 212.156V211.172C610.031 209.203 609.859 207.359 609.516 205.641C609.203 203.891 608.672 202.344 607.922 201C607.172 199.656 606.172 198.609 604.922 197.859C603.703 197.109 602.188 196.734 600.375 196.734C598.625 196.734 597.141 197.109 595.922 197.859C594.703 198.609 593.719 199.656 592.969 201C592.219 202.344 591.672 203.891 591.328 205.641C591.016 207.359 590.859 209.203 590.859 211.172ZM630.281 212.156V211.172C630.281 207.453 630.812 204.031 631.875 200.906C632.938 197.75 634.5 195.016 636.562 192.703C638.625 190.391 641.156 188.594 644.156 187.312C647.156 186 650.594 185.344 654.469 185.344C658.406 185.344 661.875 186 664.875 187.312C667.906 188.594 670.453 190.391 672.516 192.703C674.578 195.016 676.141 197.75 677.203 200.906C678.266 204.031 678.797 207.453 678.797 211.172V212.156C678.797 215.844 678.266 219.266 677.203 222.422C676.141 225.547 674.578 228.281 672.516 230.625C670.453 232.938 667.922 234.734 664.922 236.016C661.922 237.297 658.469 237.938 654.562 237.938C650.688 237.938 647.234 237.297 644.203 236.016C641.172 234.734 638.625 232.938 636.562 230.625C634.5 228.281 632.938 225.547 631.875 222.422C630.812 219.266 630.281 215.844 630.281 212.156ZM644.953 211.172V212.156C644.953 214.156 645.109 216.031 645.422 217.781C645.766 219.531 646.312 221.062 647.062 222.375C647.812 223.688 648.797 224.719 650.016 225.469C651.266 226.188 652.781 226.547 654.562 226.547C656.344 226.547 657.844 226.188 659.062 225.469C660.281 224.719 661.266 223.688 662.016 222.375C662.766 221.062 663.297 219.531 663.609 217.781C663.953 216.031 664.125 214.156 664.125 212.156V211.172C664.125 209.203 663.953 207.359 663.609 205.641C663.297 203.891 662.766 202.344 662.016 201C661.266 199.656 660.266 198.609 659.016 197.859C657.797 197.109 656.281 196.734 654.469 196.734C652.719 196.734 651.234 197.109 650.016 197.859C648.797 198.609 647.812 199.656 647.062 201C646.312 202.344 645.766 203.891 645.422 205.641C645.109 207.359 644.953 209.203 644.953 211.172ZM701.203 164.953V237H686.531V164.953H701.203ZM733.406 186.281L711.328 211.781L699.656 223.5L693.797 213.609L703.266 201.375L715.781 186.281H733.406ZM717.938 237L703.641 213.703L714.141 205.5L734.719 237H717.938Z" fill="black"/>
<path d="M99.0938 299.281V350H87.75V299.281H99.0938ZM87 285.969C87 284.25 87.5625 282.828 88.6875 281.703C89.8438 280.547 91.4375 279.969 93.4688 279.969C95.4688 279.969 97.0469 280.547 98.2031 281.703C99.3594 282.828 99.9375 284.25 99.9375 285.969C99.9375 287.656 99.3594 289.062 98.2031 290.188C97.0469 291.312 95.4688 291.875 93.4688 291.875C91.4375 291.875 89.8438 291.312 88.6875 290.188C87.5625 289.062 87 287.656 87 285.969ZM122.672 310.109V350H111.375V299.281H122.016L122.672 310.109ZM120.656 322.766L117 322.719C117.031 319.125 117.531 315.828 118.5 312.828C119.5 309.828 120.875 307.25 122.625 305.094C124.406 302.938 126.531 301.281 129 300.125C131.469 298.938 134.219 298.344 137.25 298.344C139.688 298.344 141.891 298.688 143.859 299.375C145.859 300.031 147.562 301.109 148.969 302.609C150.406 304.109 151.5 306.062 152.25 308.469C153 310.844 153.375 313.766 153.375 317.234V350H142.031V317.188C142.031 314.75 141.672 312.828 140.953 311.422C140.266 309.984 139.25 308.969 137.906 308.375C136.594 307.75 134.953 307.438 132.984 307.438C131.047 307.438 129.312 307.844 127.781 308.656C126.25 309.469 124.953 310.578 123.891 311.984C122.859 313.391 122.062 315.016 121.5 316.859C120.938 318.703 120.656 320.672 120.656 322.766ZM189.938 281.75H214.078C219.266 281.75 223.688 282.531 227.344 284.094C231 285.656 233.797 287.969 235.734 291.031C237.703 294.062 238.688 297.812 238.688 302.281C238.688 305.688 238.062 308.688 236.812 311.281C235.562 313.875 233.797 316.062 231.516 317.844C229.234 319.594 226.516 320.953 223.359 321.922L219.797 323.656H198.094L198 314.328H214.266C217.078 314.328 219.422 313.828 221.297 312.828C223.172 311.828 224.578 310.469 225.516 308.75C226.484 307 226.969 305.031 226.969 302.844C226.969 300.469 226.5 298.406 225.562 296.656C224.656 294.875 223.25 293.516 221.344 292.578C219.438 291.609 217.016 291.125 214.078 291.125H201.703V350H189.938V281.75ZM228.891 350L212.859 319.344L225.188 319.297L241.453 349.391V350H228.891ZM271.641 350.938C267.891 350.938 264.5 350.328 261.469 349.109C258.469 347.859 255.906 346.125 253.781 343.906C251.688 341.688 250.078 339.078 248.953 336.078C247.828 333.078 247.266 329.844 247.266 326.375V324.5C247.266 320.531 247.844 316.938 249 313.719C250.156 310.5 251.766 307.75 253.828 305.469C255.891 303.156 258.328 301.391 261.141 300.172C263.953 298.953 267 298.344 270.281 298.344C273.906 298.344 277.078 298.953 279.797 300.172C282.516 301.391 284.766 303.109 286.547 305.328C288.359 307.516 289.703 310.125 290.578 313.156C291.484 316.188 291.938 319.531 291.938 323.188V328.016H252.75V319.906H280.781V319.016C280.719 316.984 280.312 315.078 279.562 313.297C278.844 311.516 277.734 310.078 276.234 308.984C274.734 307.891 272.734 307.344 270.234 307.344C268.359 307.344 266.688 307.75 265.219 308.562C263.781 309.344 262.578 310.484 261.609 311.984C260.641 313.484 259.891 315.297 259.359 317.422C258.859 319.516 258.609 321.875 258.609 324.5V326.375C258.609 328.594 258.906 330.656 259.5 332.562C260.125 334.438 261.031 336.078 262.219 337.484C263.406 338.891 264.844 340 266.531 340.812C268.219 341.594 270.141 341.984 272.297 341.984C275.016 341.984 277.438 341.438 279.562 340.344C281.688 339.25 283.531 337.703 285.094 335.703L291.047 341.469C289.953 343.062 288.531 344.594 286.781 346.062C285.031 347.5 282.891 348.672 280.359 349.578C277.859 350.484 274.953 350.938 271.641 350.938ZM329.344 339.828V315.641C329.344 313.828 329.016 312.266 328.359 310.953C327.703 309.641 326.703 308.625 325.359 307.906C324.047 307.188 322.391 306.828 320.391 306.828C318.547 306.828 316.953 307.141 315.609 307.766C314.266 308.391 313.219 309.234 312.469 310.297C311.719 311.359 311.344 312.562 311.344 313.906H300.094C300.094 311.906 300.578 309.969 301.547 308.094C302.516 306.219 303.922 304.547 305.766 303.078C307.609 301.609 309.812 300.453 312.375 299.609C314.938 298.766 317.812 298.344 321 298.344C324.812 298.344 328.188 298.984 331.125 300.266C334.094 301.547 336.422 303.484 338.109 306.078C339.828 308.641 340.688 311.859 340.688 315.734V338.281C340.688 340.594 340.844 342.672 341.156 344.516C341.5 346.328 341.984 347.906 342.609 349.25V350H331.031C330.5 348.781 330.078 347.234 329.766 345.359C329.484 343.453 329.344 341.609 329.344 339.828ZM330.984 319.156L331.078 326.141H322.969C320.875 326.141 319.031 326.344 317.438 326.75C315.844 327.125 314.516 327.688 313.453 328.438C312.391 329.188 311.594 330.094 311.062 331.156C310.531 332.219 310.266 333.422 310.266 334.766C310.266 336.109 310.578 337.344 311.203 338.469C311.828 339.562 312.734 340.422 313.922 341.047C315.141 341.672 316.609 341.984 318.328 341.984C320.641 341.984 322.656 341.516 324.375 340.578C326.125 339.609 327.5 338.438 328.5 337.062C329.5 335.656 330.031 334.328 330.094 333.078L333.75 338.094C333.375 339.375 332.734 340.75 331.828 342.219C330.922 343.688 329.734 345.094 328.266 346.438C326.828 347.75 325.094 348.828 323.062 349.672C321.062 350.516 318.75 350.938 316.125 350.938C312.812 350.938 309.859 350.281 307.266 348.969C304.672 347.625 302.641 345.828 301.172 343.578C299.703 341.297 298.969 338.719 298.969 335.844C298.969 333.156 299.469 330.781 300.469 328.719C301.5 326.625 303 324.875 304.969 323.469C306.969 322.062 309.406 321 312.281 320.281C315.156 319.531 318.438 319.156 322.125 319.156H330.984ZM373.219 341.938C375.062 341.938 376.719 341.578 378.188 340.859C379.688 340.109 380.891 339.078 381.797 337.766C382.734 336.453 383.25 334.938 383.344 333.219H393.984C393.922 336.5 392.953 339.484 391.078 342.172C389.203 344.859 386.719 347 383.625 348.594C380.531 350.156 377.109 350.938 373.359 350.938C369.484 350.938 366.109 350.281 363.234 348.969C360.359 347.625 357.969 345.781 356.062 343.438C354.156 341.094 352.719 338.391 351.75 335.328C350.812 332.266 350.344 328.984 350.344 325.484V323.844C350.344 320.344 350.812 317.062 351.75 314C352.719 310.906 354.156 308.188 356.062 305.844C357.969 303.5 360.359 301.672 363.234 300.359C366.109 299.016 369.469 298.344 373.312 298.344C377.375 298.344 380.938 299.156 384 300.781C387.062 302.375 389.469 304.609 391.219 307.484C393 310.328 393.922 313.641 393.984 317.422H383.344C383.25 315.547 382.781 313.859 381.938 312.359C381.125 310.828 379.969 309.609 378.469 308.703C377 307.797 375.234 307.344 373.172 307.344C370.891 307.344 369 307.812 367.5 308.75C366 309.656 364.828 310.906 363.984 312.5C363.141 314.062 362.531 315.828 362.156 317.797C361.812 319.734 361.641 321.75 361.641 323.844V325.484C361.641 327.578 361.812 329.609 362.156 331.578C362.5 333.547 363.094 335.312 363.938 336.875C364.812 338.406 366 339.641 367.5 340.578C369 341.484 370.906 341.938 373.219 341.938ZM425.906 299.281V307.531H397.312V299.281H425.906ZM405.562 286.859H416.859V335.984C416.859 337.547 417.078 338.75 417.516 339.594C417.984 340.406 418.625 340.953 419.438 341.234C420.25 341.516 421.203 341.656 422.297 341.656C423.078 341.656 423.828 341.609 424.547 341.516C425.266 341.422 425.844 341.328 426.281 341.234L426.328 349.859C425.391 350.141 424.297 350.391 423.047 350.609C421.828 350.828 420.422 350.938 418.828 350.938C416.234 350.938 413.938 350.484 411.938 349.578C409.938 348.641 408.375 347.125 407.25 345.031C406.125 342.938 405.562 340.156 405.562 336.688V286.859Z" fill="black"/>
<defs>
<linearGradient id="paint0_linear_10_10" x1="400" y1="0" x2="400" y2="567.742" gradientUnits="userSpaceOnUse">
<stop stop-color="#C0B020" stop-opacity="0.71"/>
<stop offset="1" stop-color="#E6D53D"/>
</linearGradient>
<linearGradient id="paint1_linear_10_10" x1="400" y1="0" x2="400" y2="567.742" gradientUnits="userSpaceOnUse">
<stop stop-color="#C0B020" stop-opacity="0.71"/>
<stop offset="1" stop-color="#E6D53D"/>
</linearGradient>
</defs>
</svg>
