<svg width="800" height="568" viewBox="0 0 800 568" fill="none" xmlns="http://www.w3.org/2000/svg">
<rect width="800" height="567.742" rx="10" fill="url(#paint0_linear_10_23)"/>
<rect width="800" height="567.742" rx="10" fill="url(#paint1_linear_10_23)"/>
<path d="M720 488H800V558C800 563.523 795.523 568 790 568H720V488Z" fill="#03449D"/>
<path d="M757.461 538.934V542H742.402V538.934H757.461ZM743.164 513.562V542H739.395V513.562H743.164ZM755.469 525.789V528.855H742.402V525.789H755.469ZM757.266 513.562V516.648H742.402V513.562H757.266ZM764.57 513.562L771.406 524.461L778.242 513.562H782.637L773.652 527.645L782.852 542H778.418L771.406 530.887L764.395 542H759.961L769.16 527.645L760.176 513.562H764.57Z" fill="#F8F7F2"/>
<path d="M155.719 224.766V186.281H170.438V237H156.656L155.719 224.766ZM157.266 214.406L161.297 214.312C161.297 217.719 160.891 220.859 160.078 223.734C159.297 226.609 158.109 229.109 156.516 231.234C154.953 233.359 153 235.016 150.656 236.203C148.344 237.359 145.641 237.938 142.547 237.938C140.047 237.938 137.75 237.594 135.656 236.906C133.594 236.188 131.812 235.078 130.312 233.578C128.812 232.047 127.656 230.094 126.844 227.719C126.031 225.312 125.625 222.438 125.625 219.094V186.281H140.25V219.188C140.25 220.5 140.406 221.625 140.719 222.562C141.062 223.469 141.516 224.219 142.078 224.812C142.672 225.406 143.391 225.844 144.234 226.125C145.109 226.406 146.062 226.547 147.094 226.547C149.688 226.547 151.719 226.016 153.188 224.953C154.688 223.859 155.734 222.406 156.328 220.594C156.953 218.75 157.266 216.688 157.266 214.406ZM206.953 222.891C206.953 221.953 206.656 221.125 206.062 220.406C205.5 219.688 204.469 219.031 202.969 218.438C201.5 217.844 199.422 217.25 196.734 216.656C194.203 216.125 191.844 215.438 189.656 214.594C187.469 213.719 185.562 212.672 183.938 211.453C182.312 210.203 181.047 208.734 180.141 207.047C179.234 205.328 178.781 203.375 178.781 201.188C178.781 199.062 179.234 197.047 180.141 195.141C181.078 193.234 182.422 191.547 184.172 190.078C185.953 188.609 188.109 187.453 190.641 186.609C193.203 185.766 196.109 185.344 199.359 185.344C203.828 185.344 207.688 186.047 210.938 187.453C214.188 188.828 216.688 190.766 218.438 193.266C220.188 195.734 221.062 198.562 221.062 201.75H206.438C206.438 200.438 206.188 199.297 205.688 198.328C205.188 197.359 204.422 196.609 203.391 196.078C202.359 195.516 201 195.234 199.312 195.234C198 195.234 196.844 195.469 195.844 195.938C194.875 196.375 194.109 196.984 193.547 197.766C193.016 198.547 192.75 199.453 192.75 200.484C192.75 201.203 192.906 201.859 193.219 202.453C193.562 203.016 194.078 203.547 194.766 204.047C195.484 204.516 196.406 204.938 197.531 205.312C198.688 205.688 200.094 206.047 201.75 206.391C205.281 207.047 208.5 207.969 211.406 209.156C214.344 210.344 216.688 211.984 218.438 214.078C220.219 216.172 221.109 218.938 221.109 222.375C221.109 224.625 220.594 226.688 219.562 228.562C218.562 230.438 217.109 232.078 215.203 233.484C213.297 234.891 211.016 235.984 208.359 236.766C205.703 237.547 202.703 237.938 199.359 237.938C194.578 237.938 190.531 237.078 187.219 235.359C183.906 233.641 181.406 231.484 179.719 228.891C178.062 226.266 177.234 223.578 177.234 220.828H190.969C191.031 222.516 191.453 223.891 192.234 224.953C193.047 226.016 194.094 226.797 195.375 227.297C196.656 227.766 198.094 228 199.688 228C201.281 228 202.609 227.781 203.672 227.344C204.734 226.906 205.547 226.312 206.109 225.562C206.672 224.781 206.953 223.891 206.953 222.891ZM253.172 237.938C249.141 237.938 245.531 237.297 242.344 236.016C239.156 234.734 236.453 232.969 234.234 230.719C232.047 228.438 230.375 225.812 229.219 222.844C228.062 219.875 227.484 216.703 227.484 213.328V211.547C227.484 207.766 228.016 204.281 229.078 201.094C230.141 197.906 231.688 195.141 233.719 192.797C235.781 190.422 238.312 188.594 241.312 187.312C244.312 186 247.734 185.344 251.578 185.344C255.172 185.344 258.375 185.938 261.188 187.125C264 188.281 266.375 189.953 268.312 192.141C270.25 194.297 271.719 196.906 272.719 199.969C273.75 203 274.266 206.406 274.266 210.188V216.188H233.391V206.766H259.922V205.641C259.922 203.859 259.594 202.297 258.938 200.953C258.312 199.609 257.375 198.578 256.125 197.859C254.906 197.109 253.359 196.734 251.484 196.734C249.703 196.734 248.219 197.109 247.031 197.859C245.844 198.609 244.891 199.672 244.172 201.047C243.484 202.391 242.984 203.969 242.672 205.781C242.359 207.562 242.203 209.484 242.203 211.547V213.328C242.203 215.297 242.469 217.094 243 218.719C243.531 220.344 244.312 221.734 245.344 222.891C246.375 224.047 247.625 224.953 249.094 225.609C250.562 226.266 252.234 226.594 254.109 226.594C256.422 226.594 258.625 226.156 260.719 225.281C262.812 224.375 264.625 222.969 266.156 221.062L273 228.891C271.969 230.391 270.516 231.844 268.641 233.25C266.797 234.625 264.578 235.75 261.984 236.625C259.391 237.5 256.453 237.938 253.172 237.938ZM282.141 168.75H308.344C313.562 168.75 318.078 169.531 321.891 171.094C325.734 172.656 328.688 174.969 330.75 178.031C332.812 181.094 333.844 184.875 333.844 189.375C333.844 193.125 333.234 196.312 332.016 198.938C330.797 201.562 329.078 203.734 326.859 205.453C324.672 207.172 322.109 208.562 319.172 209.625L314.203 212.344H291.891L291.797 200.484H308.391C310.672 200.484 312.562 200.078 314.062 199.266C315.562 198.453 316.688 197.312 317.438 195.844C318.219 194.344 318.609 192.594 318.609 190.594C318.609 188.531 318.219 186.75 317.438 185.25C316.656 183.75 315.5 182.609 313.969 181.828C312.469 181.016 310.594 180.609 308.344 180.609H297.422V237H282.141V168.75ZM319.922 237L304.594 206.672L320.719 206.625L336.281 236.297V237H319.922ZM367.359 237.938C363.328 237.938 359.719 237.297 356.531 236.016C353.344 234.734 350.641 232.969 348.422 230.719C346.234 228.438 344.562 225.812 343.406 222.844C342.25 219.875 341.672 216.703 341.672 213.328V211.547C341.672 207.766 342.203 204.281 343.266 201.094C344.328 197.906 345.875 195.141 347.906 192.797C349.969 190.422 352.5 188.594 355.5 187.312C358.5 186 361.922 185.344 365.766 185.344C369.359 185.344 372.562 185.938 375.375 187.125C378.188 188.281 380.562 189.953 382.5 192.141C384.438 194.297 385.906 196.906 386.906 199.969C387.938 203 388.453 206.406 388.453 210.188V216.188H347.578V206.766H374.109V205.641C374.109 203.859 373.781 202.297 373.125 200.953C372.5 199.609 371.562 198.578 370.312 197.859C369.094 197.109 367.547 196.734 365.672 196.734C363.891 196.734 362.406 197.109 361.219 197.859C360.031 198.609 359.078 199.672 358.359 201.047C357.672 202.391 357.172 203.969 356.859 205.781C356.547 207.562 356.391 209.484 356.391 211.547V213.328C356.391 215.297 356.656 217.094 357.188 218.719C357.719 220.344 358.5 221.734 359.531 222.891C360.562 224.047 361.812 224.953 363.281 225.609C364.75 226.266 366.422 226.594 368.297 226.594C370.609 226.594 372.812 226.156 374.906 225.281C377 224.375 378.812 222.969 380.344 221.062L387.188 228.891C386.156 230.391 384.703 231.844 382.828 233.25C380.984 234.625 378.766 235.75 376.172 236.625C373.578 237.5 370.641 237.938 367.359 237.938ZM413.812 237H399.094V181.969C399.094 178.062 399.859 174.781 401.391 172.125C402.953 169.469 405.156 167.453 408 166.078C410.844 164.703 414.203 164.016 418.078 164.016C419.422 164.016 420.672 164.109 421.828 164.297C423.016 164.453 424.172 164.672 425.297 164.953V175.875C424.703 175.719 424.094 175.609 423.469 175.547C422.844 175.484 422.094 175.453 421.219 175.453C419.656 175.453 418.312 175.703 417.188 176.203C416.094 176.672 415.25 177.406 414.656 178.406C414.094 179.375 413.812 180.562 413.812 181.969V237ZM423.844 186.281V196.547H391.688V186.281H423.844ZM458.859 201.938V213.375H431.578V201.938H458.859ZM484.969 165V237H470.344V165H484.969ZM483.047 209.859L479.391 209.953C479.391 206.391 479.828 203.125 480.703 200.156C481.609 197.156 482.891 194.547 484.547 192.328C486.203 190.109 488.188 188.391 490.5 187.172C492.844 185.953 495.422 185.344 498.234 185.344C500.734 185.344 503.016 185.703 505.078 186.422C507.141 187.141 508.922 188.281 510.422 189.844C511.922 191.406 513.078 193.453 513.891 195.984C514.703 198.516 515.109 201.594 515.109 205.219V237H500.391V205.125C500.391 202.969 500.078 201.281 499.453 200.062C498.859 198.844 497.984 197.984 496.828 197.484C495.703 196.984 494.328 196.734 492.703 196.734C490.797 196.734 489.219 197.078 487.969 197.766C486.719 198.422 485.734 199.344 485.016 200.531C484.297 201.719 483.781 203.109 483.469 204.703C483.188 206.297 483.047 208.016 483.047 209.859ZM522.562 212.156V211.172C522.562 207.453 523.094 204.031 524.156 200.906C525.219 197.75 526.781 195.016 528.844 192.703C530.906 190.391 533.438 188.594 536.438 187.312C539.438 186 542.875 185.344 546.75 185.344C550.688 185.344 554.156 186 557.156 187.312C560.188 188.594 562.734 190.391 564.797 192.703C566.859 195.016 568.422 197.75 569.484 200.906C570.547 204.031 571.078 207.453 571.078 211.172V212.156C571.078 215.844 570.547 219.266 569.484 222.422C568.422 225.547 566.859 228.281 564.797 230.625C562.734 232.938 560.203 234.734 557.203 236.016C554.203 237.297 550.75 237.938 546.844 237.938C542.969 237.938 539.516 237.297 536.484 236.016C533.453 234.734 530.906 232.938 528.844 230.625C526.781 228.281 525.219 225.547 524.156 222.422C523.094 219.266 522.562 215.844 522.562 212.156ZM537.234 211.172V212.156C537.234 214.156 537.391 216.031 537.703 217.781C538.047 219.531 538.594 221.062 539.344 222.375C540.094 223.688 541.078 224.719 542.297 225.469C543.547 226.188 545.062 226.547 546.844 226.547C548.625 226.547 550.125 226.188 551.344 225.469C552.562 224.719 553.547 223.688 554.297 222.375C555.047 221.062 555.578 219.531 555.891 217.781C556.234 216.031 556.406 214.156 556.406 212.156V211.172C556.406 209.203 556.234 207.359 555.891 205.641C555.578 203.891 555.047 202.344 554.297 201C553.547 199.656 552.547 198.609 551.297 197.859C550.078 197.109 548.562 196.734 546.75 196.734C545 196.734 543.516 197.109 542.297 197.859C541.078 198.609 540.094 199.656 539.344 201C538.594 202.344 538.047 203.891 537.703 205.641C537.391 207.359 537.234 209.203 537.234 211.172ZM576.656 212.156V211.172C576.656 207.453 577.188 204.031 578.25 200.906C579.312 197.75 580.875 195.016 582.938 192.703C585 190.391 587.531 188.594 590.531 187.312C593.531 186 596.969 185.344 600.844 185.344C604.781 185.344 608.25 186 611.25 187.312C614.281 188.594 616.828 190.391 618.891 192.703C620.953 195.016 622.516 197.75 623.578 200.906C624.641 204.031 625.172 207.453 625.172 211.172V212.156C625.172 215.844 624.641 219.266 623.578 222.422C622.516 225.547 620.953 228.281 618.891 230.625C616.828 232.938 614.297 234.734 611.297 236.016C608.297 237.297 604.844 237.938 600.938 237.938C597.062 237.938 593.609 237.297 590.578 236.016C587.547 234.734 585 232.938 582.938 230.625C580.875 228.281 579.312 225.547 578.25 222.422C577.188 219.266 576.656 215.844 576.656 212.156ZM591.328 211.172V212.156C591.328 214.156 591.484 216.031 591.797 217.781C592.141 219.531 592.688 221.062 593.438 222.375C594.188 223.688 595.172 224.719 596.391 225.469C597.641 226.188 599.156 226.547 600.938 226.547C602.719 226.547 604.219 226.188 605.438 225.469C606.656 224.719 607.641 223.688 608.391 222.375C609.141 221.062 609.672 219.531 609.984 217.781C610.328 216.031 610.5 214.156 610.5 212.156V211.172C610.5 209.203 610.328 207.359 609.984 205.641C609.672 203.891 609.141 202.344 608.391 201C607.641 199.656 606.641 198.609 605.391 197.859C604.172 197.109 602.656 196.734 600.844 196.734C599.094 196.734 597.609 197.109 596.391 197.859C595.172 198.609 594.188 199.656 593.438 201C592.688 202.344 592.141 203.891 591.797 205.641C591.484 207.359 591.328 209.203 591.328 211.172ZM647.578 164.953V237H632.906V164.953H647.578ZM679.781 186.281L657.703 211.781L646.031 223.5L640.172 213.609L649.641 201.375L662.156 186.281H679.781ZM664.312 237L650.016 213.703L660.516 205.5L681.094 237H664.312Z" fill="black"/>
<path d="M139.094 299.281V350H127.75V299.281H139.094ZM127 285.969C127 284.25 127.562 282.828 128.688 281.703C129.844 280.547 131.438 279.969 133.469 279.969C135.469 279.969 137.047 280.547 138.203 281.703C139.359 282.828 139.938 284.25 139.938 285.969C139.938 287.656 139.359 289.062 138.203 290.188C137.047 291.312 135.469 291.875 133.469 291.875C131.438 291.875 129.844 291.312 128.688 290.188C127.562 289.062 127 287.656 127 285.969ZM162.672 310.109V350H151.375V299.281H162.016L162.672 310.109ZM160.656 322.766L157 322.719C157.031 319.125 157.531 315.828 158.5 312.828C159.5 309.828 160.875 307.25 162.625 305.094C164.406 302.938 166.531 301.281 169 300.125C171.469 298.938 174.219 298.344 177.25 298.344C179.688 298.344 181.891 298.688 183.859 299.375C185.859 300.031 187.562 301.109 188.969 302.609C190.406 304.109 191.5 306.062 192.25 308.469C193 310.844 193.375 313.766 193.375 317.234V350H182.031V317.188C182.031 314.75 181.672 312.828 180.953 311.422C180.266 309.984 179.25 308.969 177.906 308.375C176.594 307.75 174.953 307.438 172.984 307.438C171.047 307.438 169.312 307.844 167.781 308.656C166.25 309.469 164.953 310.578 163.891 311.984C162.859 313.391 162.062 315.016 161.5 316.859C160.938 318.703 160.656 320.672 160.656 322.766ZM229.938 281.75H254.078C259.266 281.75 263.688 282.531 267.344 284.094C271 285.656 273.797 287.969 275.734 291.031C277.703 294.062 278.688 297.812 278.688 302.281C278.688 305.688 278.062 308.688 276.812 311.281C275.562 313.875 273.797 316.062 271.516 317.844C269.234 319.594 266.516 320.953 263.359 321.922L259.797 323.656H238.094L238 314.328H254.266C257.078 314.328 259.422 313.828 261.297 312.828C263.172 311.828 264.578 310.469 265.516 308.75C266.484 307 266.969 305.031 266.969 302.844C266.969 300.469 266.5 298.406 265.562 296.656C264.656 294.875 263.25 293.516 261.344 292.578C259.438 291.609 257.016 291.125 254.078 291.125H241.703V350H229.938V281.75ZM268.891 350L252.859 319.344L265.188 319.297L281.453 349.391V350H268.891ZM311.641 350.938C307.891 350.938 304.5 350.328 301.469 349.109C298.469 347.859 295.906 346.125 293.781 343.906C291.688 341.688 290.078 339.078 288.953 336.078C287.828 333.078 287.266 329.844 287.266 326.375V324.5C287.266 320.531 287.844 316.938 289 313.719C290.156 310.5 291.766 307.75 293.828 305.469C295.891 303.156 298.328 301.391 301.141 300.172C303.953 298.953 307 298.344 310.281 298.344C313.906 298.344 317.078 298.953 319.797 300.172C322.516 301.391 324.766 303.109 326.547 305.328C328.359 307.516 329.703 310.125 330.578 313.156C331.484 316.188 331.938 319.531 331.938 323.188V328.016H292.75V319.906H320.781V319.016C320.719 316.984 320.312 315.078 319.562 313.297C318.844 311.516 317.734 310.078 316.234 308.984C314.734 307.891 312.734 307.344 310.234 307.344C308.359 307.344 306.688 307.75 305.219 308.562C303.781 309.344 302.578 310.484 301.609 311.984C300.641 313.484 299.891 315.297 299.359 317.422C298.859 319.516 298.609 321.875 298.609 324.5V326.375C298.609 328.594 298.906 330.656 299.5 332.562C300.125 334.438 301.031 336.078 302.219 337.484C303.406 338.891 304.844 340 306.531 340.812C308.219 341.594 310.141 341.984 312.297 341.984C315.016 341.984 317.438 341.438 319.562 340.344C321.688 339.25 323.531 337.703 325.094 335.703L331.047 341.469C329.953 343.062 328.531 344.594 326.781 346.062C325.031 347.5 322.891 348.672 320.359 349.578C317.859 350.484 314.953 350.938 311.641 350.938ZM369.344 339.828V315.641C369.344 313.828 369.016 312.266 368.359 310.953C367.703 309.641 366.703 308.625 365.359 307.906C364.047 307.188 362.391 306.828 360.391 306.828C358.547 306.828 356.953 307.141 355.609 307.766C354.266 308.391 353.219 309.234 352.469 310.297C351.719 311.359 351.344 312.562 351.344 313.906H340.094C340.094 311.906 340.578 309.969 341.547 308.094C342.516 306.219 343.922 304.547 345.766 303.078C347.609 301.609 349.812 300.453 352.375 299.609C354.938 298.766 357.812 298.344 361 298.344C364.812 298.344 368.188 298.984 371.125 300.266C374.094 301.547 376.422 303.484 378.109 306.078C379.828 308.641 380.688 311.859 380.688 315.734V338.281C380.688 340.594 380.844 342.672 381.156 344.516C381.5 346.328 381.984 347.906 382.609 349.25V350H371.031C370.5 348.781 370.078 347.234 369.766 345.359C369.484 343.453 369.344 341.609 369.344 339.828ZM370.984 319.156L371.078 326.141H362.969C360.875 326.141 359.031 326.344 357.438 326.75C355.844 327.125 354.516 327.688 353.453 328.438C352.391 329.188 351.594 330.094 351.062 331.156C350.531 332.219 350.266 333.422 350.266 334.766C350.266 336.109 350.578 337.344 351.203 338.469C351.828 339.562 352.734 340.422 353.922 341.047C355.141 341.672 356.609 341.984 358.328 341.984C360.641 341.984 362.656 341.516 364.375 340.578C366.125 339.609 367.5 338.438 368.5 337.062C369.5 335.656 370.031 334.328 370.094 333.078L373.75 338.094C373.375 339.375 372.734 340.75 371.828 342.219C370.922 343.688 369.734 345.094 368.266 346.438C366.828 347.75 365.094 348.828 363.062 349.672C361.062 350.516 358.75 350.938 356.125 350.938C352.812 350.938 349.859 350.281 347.266 348.969C344.672 347.625 342.641 345.828 341.172 343.578C339.703 341.297 338.969 338.719 338.969 335.844C338.969 333.156 339.469 330.781 340.469 328.719C341.5 326.625 343 324.875 344.969 323.469C346.969 322.062 349.406 321 352.281 320.281C355.156 319.531 358.438 319.156 362.125 319.156H370.984ZM413.219 341.938C415.062 341.938 416.719 341.578 418.188 340.859C419.688 340.109 420.891 339.078 421.797 337.766C422.734 336.453 423.25 334.938 423.344 333.219H433.984C433.922 336.5 432.953 339.484 431.078 342.172C429.203 344.859 426.719 347 423.625 348.594C420.531 350.156 417.109 350.938 413.359 350.938C409.484 350.938 406.109 350.281 403.234 348.969C400.359 347.625 397.969 345.781 396.062 343.438C394.156 341.094 392.719 338.391 391.75 335.328C390.812 332.266 390.344 328.984 390.344 325.484V323.844C390.344 320.344 390.812 317.062 391.75 314C392.719 310.906 394.156 308.188 396.062 305.844C397.969 303.5 400.359 301.672 403.234 300.359C406.109 299.016 409.469 298.344 413.312 298.344C417.375 298.344 420.938 299.156 424 300.781C427.062 302.375 429.469 304.609 431.219 307.484C433 310.328 433.922 313.641 433.984 317.422H423.344C423.25 315.547 422.781 313.859 421.938 312.359C421.125 310.828 419.969 309.609 418.469 308.703C417 307.797 415.234 307.344 413.172 307.344C410.891 307.344 409 307.812 407.5 308.75C406 309.656 404.828 310.906 403.984 312.5C403.141 314.062 402.531 315.828 402.156 317.797C401.812 319.734 401.641 321.75 401.641 323.844V325.484C401.641 327.578 401.812 329.609 402.156 331.578C402.5 333.547 403.094 335.312 403.938 336.875C404.812 338.406 406 339.641 407.5 340.578C409 341.484 410.906 341.938 413.219 341.938ZM465.906 299.281V307.531H437.312V299.281H465.906ZM445.562 286.859H456.859V335.984C456.859 337.547 457.078 338.75 457.516 339.594C457.984 340.406 458.625 340.953 459.438 341.234C460.25 341.516 461.203 341.656 462.297 341.656C463.078 341.656 463.828 341.609 464.547 341.516C465.266 341.422 465.844 341.328 466.281 341.234L466.328 349.859C465.391 350.141 464.297 350.391 463.047 350.609C461.828 350.828 460.422 350.938 458.828 350.938C456.234 350.938 453.938 350.484 451.938 349.578C449.938 348.641 448.375 347.125 447.25 345.031C446.125 342.938 445.562 340.156 445.562 336.688V286.859Z" fill="black"/>
<defs>
<linearGradient id="paint0_linear_10_23" x1="400" y1="0" x2="400" y2="567.742" gradientUnits="userSpaceOnUse">
<stop stop-color="#C0B020" stop-opacity="0.71"/>
<stop offset="1" stop-color="#E6D53D"/>
</linearGradient>
<linearGradient id="paint1_linear_10_23" x1="400" y1="0" x2="400" y2="567.742" gradientUnits="userSpaceOnUse">
<stop stop-color="#C0B020" stop-opacity="0.71"/>
<stop offset="1" stop-color="#E6D53D"/>
</linearGradient>
</defs>
</svg>
