<svg width="300" height="228" viewBox="0 0 300 228" fill="none" xmlns="http://www.w3.org/2000/svg">
<rect width="300" height="227.097" rx="10" fill="url(#paint0_linear_12_39)"/>
<path d="M52.1953 134.98V154H47.9414V134.98H52.1953ZM47.6602 129.988C47.6602 129.344 47.8711 128.811 48.293 128.389C48.7266 127.955 49.3242 127.738 50.0859 127.738C50.8359 127.738 51.4277 127.955 51.8613 128.389C52.2949 128.811 52.5117 129.344 52.5117 129.988C52.5117 130.621 52.2949 131.148 51.8613 131.57C51.4277 131.992 50.8359 132.203 50.0859 132.203C49.3242 132.203 48.7266 131.992 48.293 131.57C47.8711 131.148 47.6602 130.621 47.6602 129.988ZM61.0371 139.041V154H56.8008V134.98H60.791L61.0371 139.041ZM60.2812 143.787L58.9102 143.77C58.9219 142.422 59.1094 141.186 59.4727 140.061C59.8477 138.936 60.3633 137.969 61.0195 137.16C61.6875 136.352 62.4844 135.73 63.4102 135.297C64.3359 134.852 65.3672 134.629 66.5039 134.629C67.418 134.629 68.2441 134.758 68.9824 135.016C69.7324 135.262 70.3711 135.666 70.8984 136.229C71.4375 136.791 71.8477 137.523 72.1289 138.426C72.4102 139.316 72.5508 140.412 72.5508 141.713V154H68.2969V141.695C68.2969 140.781 68.1621 140.061 67.8926 139.533C67.6348 138.994 67.2539 138.613 66.75 138.391C66.2578 138.156 65.6426 138.039 64.9043 138.039C64.1777 138.039 63.5273 138.191 62.9531 138.496C62.3789 138.801 61.8926 139.217 61.4941 139.744C61.1074 140.271 60.8086 140.881 60.5977 141.572C60.3867 142.264 60.2812 143.002 60.2812 143.787ZM96.791 146.318V128.406H101.186V146.318C101.186 148.018 100.822 149.465 100.096 150.66C99.3691 151.855 98.3789 152.77 97.125 153.402C95.8711 154.035 94.4473 154.352 92.8535 154.352C91.2246 154.352 89.7773 154.076 88.5117 153.525C87.2578 152.975 86.2734 152.131 85.5586 150.994C84.8438 149.857 84.4863 148.416 84.4863 146.67H88.916C88.916 147.678 89.0742 148.492 89.3906 149.113C89.7188 149.723 90.1758 150.168 90.7617 150.449C91.3594 150.719 92.0566 150.854 92.8535 150.854C93.6152 150.854 94.2891 150.684 94.875 150.344C95.4727 149.992 95.9414 149.482 96.2812 148.814C96.6211 148.135 96.791 147.303 96.791 146.318ZM116.566 150.186V141.115C116.566 140.436 116.443 139.85 116.197 139.357C115.951 138.865 115.576 138.484 115.072 138.215C114.58 137.945 113.959 137.811 113.209 137.811C112.518 137.811 111.92 137.928 111.416 138.162C110.912 138.396 110.52 138.713 110.238 139.111C109.957 139.51 109.816 139.961 109.816 140.465H105.598C105.598 139.715 105.779 138.988 106.143 138.285C106.506 137.582 107.033 136.955 107.725 136.404C108.416 135.854 109.242 135.42 110.203 135.104C111.164 134.787 112.242 134.629 113.438 134.629C114.867 134.629 116.133 134.869 117.234 135.35C118.348 135.83 119.221 136.557 119.854 137.529C120.498 138.49 120.82 139.697 120.82 141.15V149.605C120.82 150.473 120.879 151.252 120.996 151.943C121.125 152.623 121.307 153.215 121.541 153.719V154H117.199C117 153.543 116.842 152.963 116.725 152.26C116.619 151.545 116.566 150.854 116.566 150.186ZM117.182 142.434L117.217 145.053H114.176C113.391 145.053 112.699 145.129 112.102 145.281C111.504 145.422 111.006 145.633 110.607 145.914C110.209 146.195 109.91 146.535 109.711 146.934C109.512 147.332 109.412 147.783 109.412 148.287C109.412 148.791 109.529 149.254 109.764 149.676C109.998 150.086 110.338 150.408 110.783 150.643C111.24 150.877 111.791 150.994 112.436 150.994C113.303 150.994 114.059 150.818 114.703 150.467C115.359 150.104 115.875 149.664 116.25 149.148C116.625 148.621 116.824 148.123 116.848 147.654L118.219 149.535C118.078 150.016 117.838 150.531 117.498 151.082C117.158 151.633 116.713 152.16 116.162 152.664C115.623 153.156 114.973 153.561 114.211 153.877C113.461 154.193 112.594 154.352 111.609 154.352C110.367 154.352 109.26 154.105 108.287 153.613C107.314 153.109 106.553 152.436 106.002 151.592C105.451 150.736 105.176 149.77 105.176 148.691C105.176 147.684 105.363 146.793 105.738 146.02C106.125 145.234 106.688 144.578 107.426 144.051C108.176 143.523 109.09 143.125 110.168 142.855C111.246 142.574 112.477 142.434 113.859 142.434H117.182ZM131.156 150.643L135.814 134.98H140.209L133.6 154H130.857L131.156 150.643ZM127.588 134.98L132.334 150.713L132.562 154H129.82L123.176 134.98H127.588ZM153.27 150.186V141.115C153.27 140.436 153.146 139.85 152.9 139.357C152.654 138.865 152.279 138.484 151.775 138.215C151.283 137.945 150.662 137.811 149.912 137.811C149.221 137.811 148.623 137.928 148.119 138.162C147.615 138.396 147.223 138.713 146.941 139.111C146.66 139.51 146.52 139.961 146.52 140.465H142.301C142.301 139.715 142.482 138.988 142.846 138.285C143.209 137.582 143.736 136.955 144.428 136.404C145.119 135.854 145.945 135.42 146.906 135.104C147.867 134.787 148.945 134.629 150.141 134.629C151.57 134.629 152.836 134.869 153.938 135.35C155.051 135.83 155.924 136.557 156.557 137.529C157.201 138.49 157.523 139.697 157.523 141.15V149.605C157.523 150.473 157.582 151.252 157.699 151.943C157.828 152.623 158.01 153.215 158.244 153.719V154H153.902C153.703 153.543 153.545 152.963 153.428 152.26C153.322 151.545 153.27 150.854 153.27 150.186ZM153.885 142.434L153.92 145.053H150.879C150.094 145.053 149.402 145.129 148.805 145.281C148.207 145.422 147.709 145.633 147.311 145.914C146.912 146.195 146.613 146.535 146.414 146.934C146.215 147.332 146.115 147.783 146.115 148.287C146.115 148.791 146.232 149.254 146.467 149.676C146.701 150.086 147.041 150.408 147.486 150.643C147.943 150.877 148.494 150.994 149.139 150.994C150.006 150.994 150.762 150.818 151.406 150.467C152.062 150.104 152.578 149.664 152.953 149.148C153.328 148.621 153.527 148.123 153.551 147.654L154.922 149.535C154.781 150.016 154.541 150.531 154.201 151.082C153.861 151.633 153.416 152.16 152.865 152.664C152.326 153.156 151.676 153.561 150.914 153.877C150.164 154.193 149.297 154.352 148.312 154.352C147.07 154.352 145.963 154.105 144.99 153.613C144.018 153.109 143.256 152.436 142.705 151.592C142.154 150.736 141.879 149.77 141.879 148.691C141.879 147.684 142.066 146.793 142.441 146.02C142.828 145.234 143.391 144.578 144.129 144.051C144.879 143.523 145.793 143.125 146.871 142.855C147.949 142.574 149.18 142.434 150.562 142.434H153.885ZM175.84 147.408C175.84 146.881 175.758 146.412 175.594 146.002C175.441 145.592 175.166 145.217 174.768 144.877C174.369 144.537 173.807 144.209 173.08 143.893C172.365 143.564 171.451 143.23 170.338 142.891C169.119 142.516 167.994 142.1 166.963 141.643C165.943 141.174 165.053 140.635 164.291 140.025C163.529 139.404 162.938 138.695 162.516 137.898C162.094 137.09 161.883 136.158 161.883 135.104C161.883 134.061 162.1 133.111 162.533 132.256C162.979 131.4 163.605 130.662 164.414 130.041C165.234 129.408 166.201 128.922 167.314 128.582C168.428 128.23 169.658 128.055 171.006 128.055C172.904 128.055 174.539 128.406 175.91 129.109C177.293 129.812 178.354 130.756 179.092 131.939C179.842 133.123 180.217 134.43 180.217 135.859H175.84C175.84 135.016 175.658 134.271 175.295 133.627C174.943 132.971 174.404 132.455 173.678 132.08C172.963 131.705 172.055 131.518 170.953 131.518C169.91 131.518 169.043 131.676 168.352 131.992C167.66 132.309 167.145 132.736 166.805 133.275C166.465 133.814 166.295 134.424 166.295 135.104C166.295 135.584 166.406 136.023 166.629 136.422C166.852 136.809 167.191 137.172 167.648 137.512C168.105 137.84 168.68 138.15 169.371 138.443C170.062 138.736 170.877 139.018 171.814 139.287C173.232 139.709 174.469 140.178 175.523 140.693C176.578 141.197 177.457 141.771 178.16 142.416C178.863 143.061 179.391 143.793 179.742 144.613C180.094 145.422 180.27 146.342 180.27 147.373C180.27 148.451 180.053 149.424 179.619 150.291C179.186 151.146 178.564 151.879 177.756 152.488C176.959 153.086 175.998 153.549 174.873 153.877C173.76 154.193 172.518 154.352 171.146 154.352C169.916 154.352 168.703 154.188 167.508 153.859C166.324 153.531 165.246 153.033 164.273 152.365C163.301 151.686 162.527 150.842 161.953 149.834C161.379 148.814 161.092 147.625 161.092 146.266H165.504C165.504 147.098 165.645 147.807 165.926 148.393C166.219 148.979 166.623 149.459 167.139 149.834C167.654 150.197 168.252 150.467 168.932 150.643C169.623 150.818 170.361 150.906 171.146 150.906C172.178 150.906 173.039 150.76 173.73 150.467C174.434 150.174 174.961 149.764 175.312 149.236C175.664 148.709 175.84 148.1 175.84 147.408ZM191.52 150.977C192.211 150.977 192.832 150.842 193.383 150.572C193.945 150.291 194.396 149.904 194.736 149.412C195.088 148.92 195.281 148.352 195.316 147.707H199.307C199.283 148.938 198.92 150.057 198.217 151.064C197.514 152.072 196.582 152.875 195.422 153.473C194.262 154.059 192.979 154.352 191.572 154.352C190.119 154.352 188.854 154.105 187.775 153.613C186.697 153.109 185.801 152.418 185.086 151.539C184.371 150.66 183.832 149.646 183.469 148.498C183.117 147.35 182.941 146.119 182.941 144.807V144.191C182.941 142.879 183.117 141.648 183.469 140.5C183.832 139.34 184.371 138.32 185.086 137.441C185.801 136.562 186.697 135.877 187.775 135.385C188.854 134.881 190.113 134.629 191.555 134.629C193.078 134.629 194.414 134.934 195.562 135.543C196.711 136.141 197.613 136.979 198.27 138.057C198.938 139.123 199.283 140.365 199.307 141.783H195.316C195.281 141.08 195.105 140.447 194.789 139.885C194.484 139.311 194.051 138.854 193.488 138.514C192.938 138.174 192.275 138.004 191.502 138.004C190.646 138.004 189.938 138.18 189.375 138.531C188.812 138.871 188.373 139.34 188.057 139.938C187.74 140.523 187.512 141.186 187.371 141.924C187.242 142.65 187.178 143.406 187.178 144.191V144.807C187.178 145.592 187.242 146.354 187.371 147.092C187.5 147.83 187.723 148.492 188.039 149.078C188.367 149.652 188.812 150.115 189.375 150.467C189.938 150.807 190.652 150.977 191.52 150.977ZM206.812 138.602V154H202.576V134.98H206.619L206.812 138.602ZM212.631 134.857L212.596 138.795C212.338 138.748 212.057 138.713 211.752 138.689C211.459 138.666 211.166 138.654 210.873 138.654C210.146 138.654 209.508 138.76 208.957 138.971C208.406 139.17 207.943 139.463 207.568 139.85C207.205 140.225 206.924 140.682 206.725 141.221C206.525 141.76 206.408 142.363 206.373 143.031L205.406 143.102C205.406 141.906 205.523 140.799 205.758 139.779C205.992 138.76 206.344 137.863 206.812 137.09C207.293 136.316 207.891 135.713 208.605 135.279C209.332 134.846 210.17 134.629 211.119 134.629C211.377 134.629 211.652 134.652 211.945 134.699C212.25 134.746 212.479 134.799 212.631 134.857ZM219.82 134.98V154H215.566V134.98H219.82ZM215.285 129.988C215.285 129.344 215.496 128.811 215.918 128.389C216.352 127.955 216.949 127.738 217.711 127.738C218.461 127.738 219.053 127.955 219.486 128.389C219.92 128.811 220.137 129.344 220.137 129.988C220.137 130.621 219.92 131.148 219.486 131.57C219.053 131.992 218.461 132.203 217.711 132.203C216.949 132.203 216.352 131.992 215.918 131.57C215.496 131.148 215.285 130.621 215.285 129.988ZM228.715 138.637V161.312H224.479V134.98H228.381L228.715 138.637ZM241.107 144.314V144.684C241.107 146.066 240.943 147.35 240.615 148.533C240.299 149.705 239.824 150.73 239.191 151.609C238.57 152.477 237.803 153.15 236.889 153.631C235.975 154.111 234.92 154.352 233.725 154.352C232.541 154.352 231.504 154.135 230.613 153.701C229.734 153.256 228.99 152.629 228.381 151.82C227.771 151.012 227.279 150.062 226.904 148.973C226.541 147.871 226.283 146.664 226.131 145.352V143.928C226.283 142.533 226.541 141.268 226.904 140.131C227.279 138.994 227.771 138.016 228.381 137.195C228.99 136.375 229.734 135.742 230.613 135.297C231.492 134.852 232.518 134.629 233.689 134.629C234.885 134.629 235.945 134.863 236.871 135.332C237.797 135.789 238.576 136.445 239.209 137.301C239.842 138.145 240.316 139.164 240.633 140.359C240.949 141.543 241.107 142.861 241.107 144.314ZM236.871 144.684V144.314C236.871 143.436 236.789 142.621 236.625 141.871C236.461 141.109 236.203 140.441 235.852 139.867C235.5 139.293 235.049 138.848 234.498 138.531C233.959 138.203 233.309 138.039 232.547 138.039C231.797 138.039 231.152 138.168 230.613 138.426C230.074 138.672 229.623 139.018 229.26 139.463C228.896 139.908 228.615 140.43 228.416 141.027C228.217 141.613 228.076 142.252 227.994 142.943V146.354C228.135 147.197 228.375 147.971 228.715 148.674C229.055 149.377 229.535 149.939 230.156 150.361C230.789 150.771 231.598 150.977 232.582 150.977C233.344 150.977 233.994 150.812 234.533 150.484C235.072 150.156 235.512 149.705 235.852 149.131C236.203 148.545 236.461 147.871 236.625 147.109C236.789 146.348 236.871 145.539 236.871 144.684ZM253.43 134.98V138.074H242.707V134.98H253.43ZM245.801 130.322H250.037V148.744C250.037 149.33 250.119 149.781 250.283 150.098C250.459 150.402 250.699 150.607 251.004 150.713C251.309 150.818 251.666 150.871 252.076 150.871C252.369 150.871 252.65 150.854 252.92 150.818C253.189 150.783 253.406 150.748 253.57 150.713L253.588 153.947C253.236 154.053 252.826 154.146 252.357 154.229C251.9 154.311 251.373 154.352 250.775 154.352C249.803 154.352 248.941 154.182 248.191 153.842C247.441 153.49 246.855 152.922 246.434 152.137C246.012 151.352 245.801 150.309 245.801 149.008V130.322Z" fill="black"/>
<path d="M70.7344 97.5625H78.3281C78.2031 99.9062 77.5625 101.977 76.4062 103.773C75.2656 105.555 73.6797 106.953 71.6484 107.969C69.6172 108.969 67.2031 109.469 64.4062 109.469C62.1719 109.469 60.1719 109.086 58.4062 108.32C56.6406 107.555 55.1406 106.461 53.9062 105.039C52.6875 103.602 51.75 101.875 51.0938 99.8594C50.4531 97.8281 50.1328 95.5391 50.1328 92.9922V90.9062C50.1328 88.3594 50.4688 86.0703 51.1406 84.0391C51.8125 82.0078 52.7734 80.2734 54.0234 78.8359C55.2734 77.3984 56.7734 76.2969 58.5234 75.5312C60.2734 74.7656 62.2266 74.3828 64.3828 74.3828C67.2891 74.3828 69.7422 74.9062 71.7422 75.9531C73.7422 77 75.2891 78.4375 76.3828 80.2656C77.4922 82.0938 78.1562 84.1797 78.375 86.5234H70.7578C70.6953 85.1953 70.4453 84.0781 70.0078 83.1719C69.5703 82.25 68.8984 81.5547 67.9922 81.0859C67.0859 80.6172 65.8828 80.3828 64.3828 80.3828C63.2891 80.3828 62.3281 80.5859 61.5 80.9922C60.6875 81.3984 60.0078 82.0312 59.4609 82.8906C58.9297 83.75 58.5312 84.8438 58.2656 86.1719C58 87.4844 57.8672 89.0469 57.8672 90.8594V92.9922C57.8672 94.7891 57.9844 96.3438 58.2188 97.6562C58.4531 98.9688 58.8281 100.055 59.3438 100.914C59.875 101.773 60.5547 102.414 61.3828 102.836C62.2109 103.258 63.2188 103.469 64.4062 103.469C65.7656 103.469 66.8984 103.258 67.8047 102.836C68.7109 102.398 69.4062 101.742 69.8906 100.867C70.375 99.9922 70.6562 98.8906 70.7344 97.5625ZM82.5703 74.875H95.6719C98.2812 74.875 100.539 75.2656 102.445 76.0469C104.367 76.8281 105.844 77.9844 106.875 79.5156C107.906 81.0469 108.422 82.9375 108.422 85.1875C108.422 87.0625 108.117 88.6562 107.508 89.9688C106.898 91.2812 106.039 92.3672 104.93 93.2266C103.836 94.0859 102.555 94.7812 101.086 95.3125L98.6016 96.6719H87.4453L87.3984 90.7422H95.6953C96.8359 90.7422 97.7812 90.5391 98.5312 90.1328C99.2812 89.7266 99.8438 89.1562 100.219 88.4219C100.609 87.6719 100.805 86.7969 100.805 85.7969C100.805 84.7656 100.609 83.875 100.219 83.125C99.8281 82.375 99.25 81.8047 98.4844 81.4141C97.7344 81.0078 96.7969 80.8047 95.6719 80.8047H90.2109V109H82.5703V74.875ZM101.461 109L93.7969 93.8359L101.859 93.8125L109.641 108.648V109H101.461ZM132.281 74.875H139.922V97.2812C139.922 99.9375 139.359 102.172 138.234 103.984C137.125 105.797 135.578 107.164 133.594 108.086C131.609 109.008 129.312 109.469 126.703 109.469C124.078 109.469 121.766 109.008 119.766 108.086C117.781 107.164 116.219 105.797 115.078 103.984C113.953 102.172 113.391 99.9375 113.391 97.2812V74.875H121.055V97.2812C121.055 98.75 121.273 99.9531 121.711 100.891C122.164 101.812 122.812 102.492 123.656 102.93C124.5 103.352 125.516 103.562 126.703 103.562C127.891 103.562 128.898 103.352 129.727 102.93C130.57 102.492 131.203 101.812 131.625 100.891C132.062 99.9531 132.281 98.75 132.281 97.2812V74.875ZM156.188 109H148.688L148.734 103.094H156.188C157.891 103.094 159.328 102.703 160.5 101.922C161.672 101.125 162.562 99.9531 163.172 98.4062C163.781 96.8438 164.086 94.9453 164.086 92.7109V91.1406C164.086 89.4531 163.914 87.9688 163.57 86.6875C163.227 85.3906 162.719 84.3047 162.047 83.4297C161.375 82.5547 160.539 81.8984 159.539 81.4609C158.555 81.0234 157.422 80.8047 156.141 80.8047H148.547V74.875H156.141C158.453 74.875 160.562 75.2656 162.469 76.0469C164.391 76.8281 166.047 77.9453 167.438 79.3984C168.844 80.8516 169.93 82.5703 170.695 84.5547C171.461 86.5391 171.844 88.75 171.844 91.1875V92.7109C171.844 95.1328 171.461 97.3438 170.695 99.3438C169.93 101.328 168.844 103.047 167.438 104.5C166.047 105.938 164.398 107.047 162.492 107.828C160.586 108.609 158.484 109 156.188 109ZM153.023 74.875V109H145.383V74.875H153.023Z" fill="black"/>
<path d="M260 20H300V60H260V20Z" fill="#03449D"/>
<path d="M278.73 45.9668V47.5H271.201V45.9668H278.73ZM271.582 33.2812V47.5H269.697V33.2812H271.582ZM277.734 39.3945V40.9277H271.201V39.3945H277.734ZM278.633 33.2812V34.8242H271.201V33.2812H278.633ZM282.285 33.2812L285.703 38.7305L289.121 33.2812H291.318L286.826 40.3223L291.426 47.5H289.209L285.703 41.9434L282.197 47.5H279.98L284.58 40.3223L280.088 33.2812H282.285Z" fill="#F8F7F2"/>
<defs>
<linearGradient id="paint0_linear_12_39" x1="150" y1="0" x2="150" y2="227.097" gradientUnits="userSpaceOnUse">
<stop stop-color="#C0B020" stop-opacity="0.71"/>
<stop offset="1" stop-color="#E6D53D"/>
</linearGradient>
</defs>
</svg>
