<svg width="800" height="568" viewBox="0 0 800 568" fill="none" xmlns="http://www.w3.org/2000/svg">
<rect width="800" height="567.742" rx="10" fill="url(#paint0_linear_9_40)"/>
<path d="M132.824 170.562V199H126.457V170.562H132.824ZM144.016 182.555V187.477H131.047V182.555H144.016ZM145.266 170.562V175.504H131.047V170.562H145.266ZM153.664 182.789V199H147.57V177.867H153.293L153.664 182.789ZM159.973 177.711L159.875 183.395C159.615 183.355 159.276 183.323 158.859 183.297C158.443 183.258 158.085 183.238 157.785 183.238C157.004 183.238 156.327 183.336 155.754 183.531C155.194 183.714 154.725 183.987 154.348 184.352C153.983 184.716 153.71 185.172 153.527 185.719C153.345 186.253 153.254 186.871 153.254 187.574L152.102 187.008C152.102 185.615 152.238 184.339 152.512 183.18C152.785 182.021 153.182 181.018 153.703 180.172C154.224 179.312 154.862 178.648 155.617 178.18C156.372 177.711 157.232 177.477 158.195 177.477C158.508 177.477 158.827 177.496 159.152 177.535C159.478 177.574 159.751 177.633 159.973 177.711ZM160.93 188.648V188.238C160.93 186.689 161.151 185.263 161.594 183.961C162.036 182.646 162.688 181.507 163.547 180.543C164.406 179.579 165.461 178.831 166.711 178.297C167.961 177.75 169.393 177.477 171.008 177.477C172.648 177.477 174.094 177.75 175.344 178.297C176.607 178.831 177.668 179.579 178.527 180.543C179.387 181.507 180.038 182.646 180.48 183.961C180.923 185.263 181.145 186.689 181.145 188.238V188.648C181.145 190.185 180.923 191.611 180.48 192.926C180.038 194.228 179.387 195.367 178.527 196.344C177.668 197.307 176.613 198.056 175.363 198.59C174.113 199.124 172.674 199.391 171.047 199.391C169.432 199.391 167.993 199.124 166.73 198.59C165.467 198.056 164.406 197.307 163.547 196.344C162.688 195.367 162.036 194.228 161.594 192.926C161.151 191.611 160.93 190.185 160.93 188.648ZM167.043 188.238V188.648C167.043 189.482 167.108 190.263 167.238 190.992C167.382 191.721 167.609 192.359 167.922 192.906C168.234 193.453 168.645 193.883 169.152 194.195C169.673 194.495 170.305 194.645 171.047 194.645C171.789 194.645 172.414 194.495 172.922 194.195C173.43 193.883 173.84 193.453 174.152 192.906C174.465 192.359 174.686 191.721 174.816 190.992C174.96 190.263 175.031 189.482 175.031 188.648V188.238C175.031 187.418 174.96 186.65 174.816 185.934C174.686 185.204 174.465 184.56 174.152 184C173.84 183.44 173.423 183.004 172.902 182.691C172.395 182.379 171.763 182.223 171.008 182.223C170.279 182.223 169.66 182.379 169.152 182.691C168.645 183.004 168.234 183.44 167.922 184C167.609 184.56 167.382 185.204 167.238 185.934C167.108 186.65 167.043 187.418 167.043 188.238ZM190.461 182.301V199H184.367V177.867H190.09L190.461 182.301ZM189.68 187.691L188.137 187.73C188.137 186.246 188.312 184.885 188.664 183.648C189.029 182.398 189.556 181.311 190.246 180.387C190.936 179.462 191.789 178.746 192.805 178.238C193.833 177.73 195.018 177.477 196.359 177.477C197.297 177.477 198.15 177.62 198.918 177.906C199.686 178.18 200.344 178.616 200.891 179.215C201.451 179.801 201.88 180.569 202.18 181.52C202.479 182.457 202.629 183.583 202.629 184.898V199H196.535V185.641C196.535 184.703 196.418 183.993 196.184 183.512C195.962 183.017 195.637 182.678 195.207 182.496C194.777 182.314 194.263 182.223 193.664 182.223C193.013 182.223 192.434 182.366 191.926 182.652C191.431 182.926 191.014 183.31 190.676 183.805C190.337 184.299 190.083 184.879 189.914 185.543C189.758 186.207 189.68 186.923 189.68 187.691ZM202.004 187.379L200.07 187.535C200.07 186.103 200.24 184.775 200.578 183.551C200.917 182.327 201.424 181.266 202.102 180.367C202.779 179.456 203.618 178.746 204.621 178.238C205.637 177.73 206.815 177.477 208.156 177.477C209.146 177.477 210.044 177.62 210.852 177.906C211.672 178.193 212.375 178.655 212.961 179.293C213.56 179.931 214.022 180.771 214.348 181.812C214.673 182.841 214.836 184.104 214.836 185.602V199H208.703V185.602C208.703 184.677 208.586 183.974 208.352 183.492C208.13 183.01 207.805 182.678 207.375 182.496C206.958 182.314 206.457 182.223 205.871 182.223C205.22 182.223 204.654 182.359 204.172 182.633C203.69 182.893 203.286 183.258 202.961 183.727C202.635 184.182 202.395 184.723 202.238 185.348C202.082 185.973 202.004 186.65 202.004 187.379Z" fill="black"/>
<path d="M278.625 179.812V187.688H255.062V179.812H278.625ZM258.281 161.5V207H248.094V161.5H258.281ZM285.656 161.5V207H275.5V161.5H285.656ZM313.469 161.5V207H303.312V161.5H313.469ZM327.312 161.5V169.406H289.75V161.5H327.312ZM337.219 161.5H345.656L356.594 194.031L367.5 161.5H375.938L360 207H353.156L337.219 161.5ZM332.344 161.5H340.938L342.531 195.219V207H332.344V161.5ZM372.219 161.5H380.844V207H370.625V195.219L372.219 161.5ZM418.094 199.125V207H395.125V199.125H418.094ZM398.594 161.5V207H388.406V161.5H398.594ZM441.875 161.5L425.781 210.906H418.688L434.781 161.5H441.875ZM472.375 191.75H482.5C482.333 194.875 481.479 197.635 479.938 200.031C478.417 202.406 476.302 204.271 473.594 205.625C470.885 206.958 467.667 207.625 463.938 207.625C460.958 207.625 458.292 207.115 455.938 206.094C453.583 205.073 451.583 203.615 449.938 201.719C448.312 199.802 447.062 197.5 446.188 194.812C445.333 192.104 444.906 189.052 444.906 185.656V182.875C444.906 179.479 445.354 176.427 446.25 173.719C447.146 171.01 448.427 168.698 450.094 166.781C451.76 164.865 453.76 163.396 456.094 162.375C458.427 161.354 461.031 160.844 463.906 160.844C467.781 160.844 471.052 161.542 473.719 162.938C476.385 164.333 478.448 166.25 479.906 168.688C481.385 171.125 482.271 173.906 482.562 177.031H472.406C472.323 175.26 471.99 173.771 471.406 172.562C470.823 171.333 469.927 170.406 468.719 169.781C467.51 169.156 465.906 168.844 463.906 168.844C462.448 168.844 461.167 169.115 460.062 169.656C458.979 170.198 458.073 171.042 457.344 172.188C456.635 173.333 456.104 174.792 455.75 176.562C455.396 178.312 455.219 180.396 455.219 182.812V185.656C455.219 188.052 455.375 190.125 455.688 191.875C456 193.625 456.5 195.073 457.188 196.219C457.896 197.365 458.802 198.219 459.906 198.781C461.01 199.344 462.354 199.625 463.938 199.625C465.75 199.625 467.26 199.344 468.469 198.781C469.677 198.198 470.604 197.323 471.25 196.156C471.896 194.99 472.271 193.521 472.375 191.75ZM511.75 195C511.75 194.229 511.635 193.542 511.406 192.938C511.177 192.312 510.76 191.74 510.156 191.219C509.552 190.698 508.698 190.177 507.594 189.656C506.49 189.115 505.042 188.562 503.25 188C501.208 187.333 499.26 186.583 497.406 185.75C495.573 184.896 493.938 183.906 492.5 182.781C491.062 181.656 489.927 180.344 489.094 178.844C488.281 177.344 487.875 175.594 487.875 173.594C487.875 171.656 488.302 169.906 489.156 168.344C490.01 166.781 491.208 165.448 492.75 164.344C494.292 163.219 496.104 162.365 498.188 161.781C500.271 161.177 502.562 160.875 505.062 160.875C508.396 160.875 511.323 161.469 513.844 162.656C516.385 163.823 518.365 165.469 519.781 167.594C521.198 169.698 521.906 172.146 521.906 174.938H511.781C511.781 173.708 511.521 172.625 511 171.688C510.5 170.729 509.729 169.979 508.688 169.438C507.667 168.896 506.385 168.625 504.844 168.625C503.344 168.625 502.083 168.854 501.062 169.312C500.062 169.75 499.302 170.354 498.781 171.125C498.281 171.896 498.031 172.74 498.031 173.656C498.031 174.385 498.219 175.052 498.594 175.656C498.99 176.24 499.552 176.792 500.281 177.312C501.031 177.812 501.948 178.292 503.031 178.75C504.115 179.208 505.354 179.646 506.75 180.062C509.188 180.833 511.344 181.688 513.219 182.625C515.115 183.562 516.708 184.625 518 185.812C519.292 187 520.26 188.344 520.906 189.844C521.573 191.344 521.906 193.042 521.906 194.938C521.906 196.958 521.51 198.75 520.719 200.312C519.948 201.875 518.823 203.208 517.344 204.312C515.885 205.396 514.135 206.219 512.094 206.781C510.052 207.344 507.771 207.625 505.25 207.625C502.958 207.625 500.698 207.333 498.469 206.75C496.24 206.146 494.219 205.229 492.406 204C490.615 202.771 489.177 201.208 488.094 199.312C487.031 197.396 486.5 195.125 486.5 192.5H496.688C496.688 193.875 496.885 195.042 497.281 196C497.677 196.938 498.24 197.698 498.969 198.281C499.719 198.865 500.625 199.281 501.688 199.531C502.75 199.781 503.938 199.906 505.25 199.906C506.771 199.906 508 199.698 508.938 199.281C509.896 198.844 510.604 198.25 511.062 197.5C511.521 196.75 511.75 195.917 511.75 195ZM551.5 195C551.5 194.229 551.385 193.542 551.156 192.938C550.927 192.312 550.51 191.74 549.906 191.219C549.302 190.698 548.448 190.177 547.344 189.656C546.24 189.115 544.792 188.562 543 188C540.958 187.333 539.01 186.583 537.156 185.75C535.323 184.896 533.688 183.906 532.25 182.781C530.812 181.656 529.677 180.344 528.844 178.844C528.031 177.344 527.625 175.594 527.625 173.594C527.625 171.656 528.052 169.906 528.906 168.344C529.76 166.781 530.958 165.448 532.5 164.344C534.042 163.219 535.854 162.365 537.938 161.781C540.021 161.177 542.312 160.875 544.812 160.875C548.146 160.875 551.073 161.469 553.594 162.656C556.135 163.823 558.115 165.469 559.531 167.594C560.948 169.698 561.656 172.146 561.656 174.938H551.531C551.531 173.708 551.271 172.625 550.75 171.688C550.25 170.729 549.479 169.979 548.438 169.438C547.417 168.896 546.135 168.625 544.594 168.625C543.094 168.625 541.833 168.854 540.812 169.312C539.812 169.75 539.052 170.354 538.531 171.125C538.031 171.896 537.781 172.74 537.781 173.656C537.781 174.385 537.969 175.052 538.344 175.656C538.74 176.24 539.302 176.792 540.031 177.312C540.781 177.812 541.698 178.292 542.781 178.75C543.865 179.208 545.104 179.646 546.5 180.062C548.938 180.833 551.094 181.688 552.969 182.625C554.865 183.562 556.458 184.625 557.75 185.812C559.042 187 560.01 188.344 560.656 189.844C561.323 191.344 561.656 193.042 561.656 194.938C561.656 196.958 561.26 198.75 560.469 200.312C559.698 201.875 558.573 203.208 557.094 204.312C555.635 205.396 553.885 206.219 551.844 206.781C549.802 207.344 547.521 207.625 545 207.625C542.708 207.625 540.448 207.333 538.219 206.75C535.99 206.146 533.969 205.229 532.156 204C530.365 202.771 528.927 201.208 527.844 199.312C526.781 197.396 526.25 195.125 526.25 192.5H536.438C536.438 193.875 536.635 195.042 537.031 196C537.427 196.938 537.99 197.698 538.719 198.281C539.469 198.865 540.375 199.281 541.438 199.531C542.5 199.781 543.688 199.906 545 199.906C546.521 199.906 547.75 199.698 548.688 199.281C549.646 198.844 550.354 198.25 550.812 197.5C551.271 196.75 551.5 195.917 551.5 195ZM586.438 161.5L570.344 210.906H563.25L579.344 161.5H586.438ZM609.062 192.875V161.5H619.188V192.875C619.188 195.917 618.5 198.542 617.125 200.75C615.771 202.938 613.927 204.635 611.594 205.844C609.281 207.031 606.667 207.625 603.75 207.625C600.75 207.625 598.083 207.125 595.75 206.125C593.417 205.104 591.583 203.552 590.25 201.469C588.938 199.365 588.281 196.688 588.281 193.438H598.469C598.469 195.042 598.667 196.312 599.062 197.25C599.479 198.167 600.083 198.812 600.875 199.188C601.667 199.562 602.625 199.75 603.75 199.75C604.833 199.75 605.771 199.49 606.562 198.969C607.354 198.427 607.969 197.646 608.406 196.625C608.844 195.583 609.062 194.333 609.062 192.875ZM650.25 195C650.25 194.229 650.135 193.542 649.906 192.938C649.677 192.312 649.26 191.74 648.656 191.219C648.052 190.698 647.198 190.177 646.094 189.656C644.99 189.115 643.542 188.562 641.75 188C639.708 187.333 637.76 186.583 635.906 185.75C634.073 184.896 632.438 183.906 631 182.781C629.562 181.656 628.427 180.344 627.594 178.844C626.781 177.344 626.375 175.594 626.375 173.594C626.375 171.656 626.802 169.906 627.656 168.344C628.51 166.781 629.708 165.448 631.25 164.344C632.792 163.219 634.604 162.365 636.688 161.781C638.771 161.177 641.062 160.875 643.562 160.875C646.896 160.875 649.823 161.469 652.344 162.656C654.885 163.823 656.865 165.469 658.281 167.594C659.698 169.698 660.406 172.146 660.406 174.938H650.281C650.281 173.708 650.021 172.625 649.5 171.688C649 170.729 648.229 169.979 647.188 169.438C646.167 168.896 644.885 168.625 643.344 168.625C641.844 168.625 640.583 168.854 639.562 169.312C638.562 169.75 637.802 170.354 637.281 171.125C636.781 171.896 636.531 172.74 636.531 173.656C636.531 174.385 636.719 175.052 637.094 175.656C637.49 176.24 638.052 176.792 638.781 177.312C639.531 177.812 640.448 178.292 641.531 178.75C642.615 179.208 643.854 179.646 645.25 180.062C647.688 180.833 649.844 181.688 651.719 182.625C653.615 183.562 655.208 184.625 656.5 185.812C657.792 187 658.76 188.344 659.406 189.844C660.073 191.344 660.406 193.042 660.406 194.938C660.406 196.958 660.01 198.75 659.219 200.312C658.448 201.875 657.323 203.208 655.844 204.312C654.385 205.396 652.635 206.219 650.594 206.781C648.552 207.344 646.271 207.625 643.75 207.625C641.458 207.625 639.198 207.333 636.969 206.75C634.74 206.146 632.719 205.229 630.906 204C629.115 202.771 627.677 201.208 626.594 199.312C625.531 197.396 625 195.125 625 192.5H635.188C635.188 193.875 635.385 195.042 635.781 196C636.177 196.938 636.74 197.698 637.469 198.281C638.219 198.865 639.125 199.281 640.188 199.531C641.25 199.781 642.438 199.906 643.75 199.906C645.271 199.906 646.5 199.698 647.438 199.281C648.396 198.844 649.104 198.25 649.562 197.5C650.021 196.75 650.25 195.917 650.25 195Z" fill="black"/>
<path d="M153.547 280.281V288.531H124.953V280.281H153.547ZM133.203 267.859H144.5V316.984C144.5 318.547 144.719 319.75 145.156 320.594C145.625 321.406 146.266 321.953 147.078 322.234C147.891 322.516 148.844 322.656 149.938 322.656C150.719 322.656 151.469 322.609 152.188 322.516C152.906 322.422 153.484 322.328 153.922 322.234L153.969 330.859C153.031 331.141 151.938 331.391 150.688 331.609C149.469 331.828 148.062 331.938 146.469 331.938C143.875 331.938 141.578 331.484 139.578 330.578C137.578 329.641 136.016 328.125 134.891 326.031C133.766 323.938 133.203 321.156 133.203 317.688V267.859ZM158.984 306.203V305.125C158.984 301.469 159.516 298.078 160.578 294.953C161.641 291.797 163.172 289.062 165.172 286.75C167.203 284.406 169.672 282.594 172.578 281.312C175.516 280 178.828 279.344 182.516 279.344C186.234 279.344 189.547 280 192.453 281.312C195.391 282.594 197.875 284.406 199.906 286.75C201.938 289.062 203.484 291.797 204.547 294.953C205.609 298.078 206.141 301.469 206.141 305.125V306.203C206.141 309.859 205.609 313.25 204.547 316.375C203.484 319.5 201.938 322.234 199.906 324.578C197.875 326.891 195.406 328.703 192.5 330.016C189.594 331.297 186.297 331.938 182.609 331.938C178.891 331.938 175.562 331.297 172.625 330.016C169.719 328.703 167.25 326.891 165.219 324.578C163.188 322.234 161.641 319.5 160.578 316.375C159.516 313.25 158.984 309.859 158.984 306.203ZM170.281 305.125V306.203C170.281 308.484 170.516 310.641 170.984 312.672C171.453 314.703 172.188 316.484 173.188 318.016C174.188 319.547 175.469 320.75 177.031 321.625C178.594 322.5 180.453 322.938 182.609 322.938C184.703 322.938 186.516 322.5 188.047 321.625C189.609 320.75 190.891 319.547 191.891 318.016C192.891 316.484 193.625 314.703 194.094 312.672C194.594 310.641 194.844 308.484 194.844 306.203V305.125C194.844 302.875 194.594 300.75 194.094 298.75C193.625 296.719 192.875 294.922 191.844 293.359C190.844 291.797 189.562 290.578 188 289.703C186.469 288.797 184.641 288.344 182.516 288.344C180.391 288.344 178.547 288.797 176.984 289.703C175.453 290.578 174.188 291.797 173.188 293.359C172.188 294.922 171.453 296.719 170.984 298.75C170.516 300.75 170.281 302.875 170.281 305.125ZM240.641 262.75H264.781C269.969 262.75 274.391 263.531 278.047 265.094C281.703 266.656 284.5 268.969 286.438 272.031C288.406 275.062 289.391 278.812 289.391 283.281C289.391 286.688 288.766 289.688 287.516 292.281C286.266 294.875 284.5 297.062 282.219 298.844C279.938 300.594 277.219 301.953 274.062 302.922L270.5 304.656H248.797L248.703 295.328H264.969C267.781 295.328 270.125 294.828 272 293.828C273.875 292.828 275.281 291.469 276.219 289.75C277.188 288 277.672 286.031 277.672 283.844C277.672 281.469 277.203 279.406 276.266 277.656C275.359 275.875 273.953 274.516 272.047 273.578C270.141 272.609 267.719 272.125 264.781 272.125H252.406V331H240.641V262.75ZM279.594 331L263.562 300.344L275.891 300.297L292.156 330.391V331H279.594ZM322.344 331.938C318.594 331.938 315.203 331.328 312.172 330.109C309.172 328.859 306.609 327.125 304.484 324.906C302.391 322.688 300.781 320.078 299.656 317.078C298.531 314.078 297.969 310.844 297.969 307.375V305.5C297.969 301.531 298.547 297.938 299.703 294.719C300.859 291.5 302.469 288.75 304.531 286.469C306.594 284.156 309.031 282.391 311.844 281.172C314.656 279.953 317.703 279.344 320.984 279.344C324.609 279.344 327.781 279.953 330.5 281.172C333.219 282.391 335.469 284.109 337.25 286.328C339.062 288.516 340.406 291.125 341.281 294.156C342.188 297.188 342.641 300.531 342.641 304.188V309.016H303.453V300.906H331.484V300.016C331.422 297.984 331.016 296.078 330.266 294.297C329.547 292.516 328.438 291.078 326.938 289.984C325.438 288.891 323.438 288.344 320.938 288.344C319.062 288.344 317.391 288.75 315.922 289.562C314.484 290.344 313.281 291.484 312.312 292.984C311.344 294.484 310.594 296.297 310.062 298.422C309.562 300.516 309.312 302.875 309.312 305.5V307.375C309.312 309.594 309.609 311.656 310.203 313.562C310.828 315.438 311.734 317.078 312.922 318.484C314.109 319.891 315.547 321 317.234 321.812C318.922 322.594 320.844 322.984 323 322.984C325.719 322.984 328.141 322.438 330.266 321.344C332.391 320.25 334.234 318.703 335.797 316.703L341.75 322.469C340.656 324.062 339.234 325.594 337.484 327.062C335.734 328.5 333.594 329.672 331.062 330.578C328.562 331.484 325.656 331.938 322.344 331.938ZM380.047 320.828V296.641C380.047 294.828 379.719 293.266 379.062 291.953C378.406 290.641 377.406 289.625 376.062 288.906C374.75 288.188 373.094 287.828 371.094 287.828C369.25 287.828 367.656 288.141 366.312 288.766C364.969 289.391 363.922 290.234 363.172 291.297C362.422 292.359 362.047 293.562 362.047 294.906H350.797C350.797 292.906 351.281 290.969 352.25 289.094C353.219 287.219 354.625 285.547 356.469 284.078C358.312 282.609 360.516 281.453 363.078 280.609C365.641 279.766 368.516 279.344 371.703 279.344C375.516 279.344 378.891 279.984 381.828 281.266C384.797 282.547 387.125 284.484 388.812 287.078C390.531 289.641 391.391 292.859 391.391 296.734V319.281C391.391 321.594 391.547 323.672 391.859 325.516C392.203 327.328 392.688 328.906 393.312 330.25V331H381.734C381.203 329.781 380.781 328.234 380.469 326.359C380.188 324.453 380.047 322.609 380.047 320.828ZM381.688 300.156L381.781 307.141H373.672C371.578 307.141 369.734 307.344 368.141 307.75C366.547 308.125 365.219 308.688 364.156 309.438C363.094 310.188 362.297 311.094 361.766 312.156C361.234 313.219 360.969 314.422 360.969 315.766C360.969 317.109 361.281 318.344 361.906 319.469C362.531 320.562 363.438 321.422 364.625 322.047C365.844 322.672 367.312 322.984 369.031 322.984C371.344 322.984 373.359 322.516 375.078 321.578C376.828 320.609 378.203 319.438 379.203 318.062C380.203 316.656 380.734 315.328 380.797 314.078L384.453 319.094C384.078 320.375 383.438 321.75 382.531 323.219C381.625 324.688 380.438 326.094 378.969 327.438C377.531 328.75 375.797 329.828 373.766 330.672C371.766 331.516 369.453 331.938 366.828 331.938C363.516 331.938 360.562 331.281 357.969 329.969C355.375 328.625 353.344 326.828 351.875 324.578C350.406 322.297 349.672 319.719 349.672 316.844C349.672 314.156 350.172 311.781 351.172 309.719C352.203 307.625 353.703 305.875 355.672 304.469C357.672 303.062 360.109 302 362.984 301.281C365.859 300.531 369.141 300.156 372.828 300.156H381.688ZM423.922 322.938C425.766 322.938 427.422 322.578 428.891 321.859C430.391 321.109 431.594 320.078 432.5 318.766C433.438 317.453 433.953 315.938 434.047 314.219H444.688C444.625 317.5 443.656 320.484 441.781 323.172C439.906 325.859 437.422 328 434.328 329.594C431.234 331.156 427.812 331.938 424.062 331.938C420.188 331.938 416.812 331.281 413.938 329.969C411.062 328.625 408.672 326.781 406.766 324.438C404.859 322.094 403.422 319.391 402.453 316.328C401.516 313.266 401.047 309.984 401.047 306.484V304.844C401.047 301.344 401.516 298.062 402.453 295C403.422 291.906 404.859 289.188 406.766 286.844C408.672 284.5 411.062 282.672 413.938 281.359C416.812 280.016 420.172 279.344 424.016 279.344C428.078 279.344 431.641 280.156 434.703 281.781C437.766 283.375 440.172 285.609 441.922 288.484C443.703 291.328 444.625 294.641 444.688 298.422H434.047C433.953 296.547 433.484 294.859 432.641 293.359C431.828 291.828 430.672 290.609 429.172 289.703C427.703 288.797 425.938 288.344 423.875 288.344C421.594 288.344 419.703 288.812 418.203 289.75C416.703 290.656 415.531 291.906 414.688 293.5C413.844 295.062 413.234 296.828 412.859 298.797C412.516 300.734 412.344 302.75 412.344 304.844V306.484C412.344 308.578 412.516 310.609 412.859 312.578C413.203 314.547 413.797 316.312 414.641 317.875C415.516 319.406 416.703 320.641 418.203 321.578C419.703 322.484 421.609 322.938 423.922 322.938ZM476.609 280.281V288.531H448.016V280.281H476.609ZM456.266 267.859H467.562V316.984C467.562 318.547 467.781 319.75 468.219 320.594C468.688 321.406 469.328 321.953 470.141 322.234C470.953 322.516 471.906 322.656 473 322.656C473.781 322.656 474.531 322.609 475.25 322.516C475.969 322.422 476.547 322.328 476.984 322.234L477.031 330.859C476.094 331.141 475 331.391 473.75 331.609C472.531 331.828 471.125 331.938 469.531 331.938C466.938 331.938 464.641 331.484 462.641 330.578C460.641 329.641 459.078 328.125 457.953 326.031C456.828 323.938 456.266 321.156 456.266 317.688V267.859Z" fill="black"/>
<path d="M720 488H800V558C800 563.523 795.523 568 790 568H720V488Z" fill="#03449D"/>
<path d="M757.461 538.934V542H742.402V538.934H757.461ZM743.164 513.562V542H739.395V513.562H743.164ZM755.469 525.789V528.855H742.402V525.789H755.469ZM757.266 513.562V516.648H742.402V513.562H757.266ZM764.57 513.562L771.406 524.461L778.242 513.562H782.637L773.652 527.645L782.852 542H778.418L771.406 530.887L764.395 542H759.961L769.16 527.645L760.176 513.562H764.57Z" fill="#F8F7F2"/>
<defs>
<linearGradient id="paint0_linear_9_40" x1="400" y1="0" x2="400" y2="567.742" gradientUnits="userSpaceOnUse">
<stop stop-color="#C0B020" stop-opacity="0.71"/>
<stop offset="1" stop-color="#E6D53D"/>
</linearGradient>
</defs>
</svg>
