<svg width="280" height="228" viewBox="0 0 280 228" fill="none" xmlns="http://www.w3.org/2000/svg">
<rect width="280" height="227.097" rx="10" fill="url(#paint0_linear_13_41)"/>
<path d="M85.1641 132.434V143H82.8008V132.434H85.1641ZM82.6445 129.66C82.6445 129.302 82.7617 129.006 82.9961 128.771C83.237 128.531 83.569 128.41 83.9922 128.41C84.4089 128.41 84.7376 128.531 84.9785 128.771C85.2194 129.006 85.3398 129.302 85.3398 129.66C85.3398 130.012 85.2194 130.305 84.9785 130.539C84.7376 130.773 84.4089 130.891 83.9922 130.891C83.569 130.891 83.237 130.773 82.9961 130.539C82.7617 130.305 82.6445 130.012 82.6445 129.66ZM90.0762 134.689V143H87.7227V132.434H89.9395L90.0762 134.689ZM89.6562 137.326L88.8945 137.316C88.901 136.568 89.0052 135.881 89.207 135.256C89.4154 134.631 89.7018 134.094 90.0664 133.645C90.4375 133.195 90.8802 132.85 91.3945 132.609C91.9089 132.362 92.4818 132.238 93.1133 132.238C93.6211 132.238 94.0801 132.31 94.4902 132.453C94.9069 132.59 95.2617 132.814 95.5547 133.127C95.8542 133.439 96.082 133.846 96.2383 134.348C96.3945 134.842 96.4727 135.451 96.4727 136.174V143H94.1094V136.164C94.1094 135.656 94.0345 135.256 93.8848 134.963C93.7415 134.663 93.5299 134.452 93.25 134.328C92.9766 134.198 92.6348 134.133 92.2246 134.133C91.821 134.133 91.4596 134.217 91.1406 134.387C90.8216 134.556 90.5514 134.787 90.3301 135.08C90.1152 135.373 89.9492 135.712 89.832 136.096C89.7148 136.48 89.6562 136.89 89.6562 137.326ZM109.939 138.732V128.781H112.381V138.732C112.381 139.676 112.179 140.48 111.775 141.145C111.372 141.809 110.822 142.316 110.125 142.668C109.428 143.02 108.637 143.195 107.752 143.195C106.847 143.195 106.043 143.042 105.34 142.736C104.643 142.43 104.096 141.962 103.699 141.33C103.302 140.699 103.104 139.898 103.104 138.928H105.564C105.564 139.488 105.652 139.94 105.828 140.285C106.01 140.624 106.264 140.871 106.59 141.027C106.922 141.177 107.309 141.252 107.752 141.252C108.175 141.252 108.549 141.158 108.875 140.969C109.207 140.773 109.467 140.49 109.656 140.119C109.845 139.742 109.939 139.279 109.939 138.732ZM120.926 140.881V135.842C120.926 135.464 120.857 135.139 120.721 134.865C120.584 134.592 120.376 134.38 120.096 134.23C119.822 134.081 119.477 134.006 119.061 134.006C118.676 134.006 118.344 134.071 118.064 134.201C117.785 134.331 117.566 134.507 117.41 134.729C117.254 134.95 117.176 135.201 117.176 135.48H114.832C114.832 135.064 114.933 134.66 115.135 134.27C115.337 133.879 115.63 133.531 116.014 133.225C116.398 132.919 116.857 132.678 117.391 132.502C117.924 132.326 118.523 132.238 119.188 132.238C119.982 132.238 120.685 132.372 121.297 132.639C121.915 132.906 122.4 133.309 122.752 133.85C123.11 134.383 123.289 135.054 123.289 135.861V140.559C123.289 141.04 123.322 141.473 123.387 141.857C123.458 142.235 123.559 142.564 123.689 142.844V143H121.277C121.167 142.746 121.079 142.424 121.014 142.033C120.955 141.636 120.926 141.252 120.926 140.881ZM121.268 136.574L121.287 138.029H119.598C119.161 138.029 118.777 138.072 118.445 138.156C118.113 138.234 117.837 138.352 117.615 138.508C117.394 138.664 117.228 138.853 117.117 139.074C117.007 139.296 116.951 139.546 116.951 139.826C116.951 140.106 117.016 140.363 117.146 140.598C117.277 140.826 117.465 141.005 117.713 141.135C117.967 141.265 118.273 141.33 118.631 141.33C119.113 141.33 119.533 141.232 119.891 141.037C120.255 140.835 120.542 140.591 120.75 140.305C120.958 140.012 121.069 139.735 121.082 139.475L121.844 140.52C121.766 140.786 121.632 141.073 121.443 141.379C121.255 141.685 121.007 141.978 120.701 142.258C120.402 142.531 120.04 142.756 119.617 142.932C119.201 143.107 118.719 143.195 118.172 143.195C117.482 143.195 116.867 143.059 116.326 142.785C115.786 142.505 115.363 142.131 115.057 141.662C114.751 141.187 114.598 140.65 114.598 140.051C114.598 139.491 114.702 138.996 114.91 138.566C115.125 138.13 115.438 137.766 115.848 137.473C116.264 137.18 116.772 136.958 117.371 136.809C117.97 136.652 118.654 136.574 119.422 136.574H121.268ZM129.031 141.135L131.619 132.434H134.061L130.389 143H128.865L129.031 141.135ZM127.049 132.434L129.686 141.174L129.812 143H128.289L124.598 132.434H127.049ZM141.316 140.881V135.842C141.316 135.464 141.248 135.139 141.111 134.865C140.975 134.592 140.766 134.38 140.486 134.23C140.213 134.081 139.868 134.006 139.451 134.006C139.067 134.006 138.735 134.071 138.455 134.201C138.175 134.331 137.957 134.507 137.801 134.729C137.645 134.95 137.566 135.201 137.566 135.48H135.223C135.223 135.064 135.324 134.66 135.525 134.27C135.727 133.879 136.02 133.531 136.404 133.225C136.788 132.919 137.247 132.678 137.781 132.502C138.315 132.326 138.914 132.238 139.578 132.238C140.372 132.238 141.076 132.372 141.688 132.639C142.306 132.906 142.791 133.309 143.143 133.85C143.501 134.383 143.68 135.054 143.68 135.861V140.559C143.68 141.04 143.712 141.473 143.777 141.857C143.849 142.235 143.95 142.564 144.08 142.844V143H141.668C141.557 142.746 141.469 142.424 141.404 142.033C141.346 141.636 141.316 141.252 141.316 140.881ZM141.658 136.574L141.678 138.029H139.988C139.552 138.029 139.168 138.072 138.836 138.156C138.504 138.234 138.227 138.352 138.006 138.508C137.785 138.664 137.618 138.853 137.508 139.074C137.397 139.296 137.342 139.546 137.342 139.826C137.342 140.106 137.407 140.363 137.537 140.598C137.667 140.826 137.856 141.005 138.104 141.135C138.357 141.265 138.663 141.33 139.021 141.33C139.503 141.33 139.923 141.232 140.281 141.037C140.646 140.835 140.932 140.591 141.141 140.305C141.349 140.012 141.46 139.735 141.473 139.475L142.234 140.52C142.156 140.786 142.023 141.073 141.834 141.379C141.645 141.685 141.398 141.978 141.092 142.258C140.792 142.531 140.431 142.756 140.008 142.932C139.591 143.107 139.109 143.195 138.562 143.195C137.872 143.195 137.257 143.059 136.717 142.785C136.176 142.505 135.753 142.131 135.447 141.662C135.141 141.187 134.988 140.65 134.988 140.051C134.988 139.491 135.092 138.996 135.301 138.566C135.516 138.13 135.828 137.766 136.238 137.473C136.655 137.18 137.163 136.958 137.762 136.809C138.361 136.652 139.044 136.574 139.812 136.574H141.658ZM153.855 139.338C153.855 139.045 153.81 138.785 153.719 138.557C153.634 138.329 153.481 138.12 153.26 137.932C153.038 137.743 152.726 137.561 152.322 137.385C151.925 137.202 151.417 137.017 150.799 136.828C150.122 136.62 149.497 136.389 148.924 136.135C148.357 135.874 147.863 135.575 147.439 135.236C147.016 134.891 146.688 134.497 146.453 134.055C146.219 133.605 146.102 133.088 146.102 132.502C146.102 131.923 146.222 131.395 146.463 130.92C146.71 130.445 147.059 130.035 147.508 129.689C147.964 129.338 148.501 129.068 149.119 128.879C149.738 128.684 150.421 128.586 151.17 128.586C152.225 128.586 153.133 128.781 153.895 129.172C154.663 129.562 155.252 130.087 155.662 130.744C156.079 131.402 156.287 132.128 156.287 132.922H153.855C153.855 132.453 153.755 132.04 153.553 131.682C153.357 131.317 153.058 131.031 152.654 130.822C152.257 130.614 151.753 130.51 151.141 130.51C150.561 130.51 150.079 130.598 149.695 130.773C149.311 130.949 149.025 131.187 148.836 131.486C148.647 131.786 148.553 132.124 148.553 132.502C148.553 132.769 148.615 133.013 148.738 133.234C148.862 133.449 149.051 133.651 149.305 133.84C149.559 134.022 149.878 134.195 150.262 134.357C150.646 134.52 151.098 134.676 151.619 134.826C152.407 135.061 153.094 135.321 153.68 135.607C154.266 135.887 154.754 136.206 155.145 136.564C155.535 136.923 155.828 137.329 156.023 137.785C156.219 138.234 156.316 138.745 156.316 139.318C156.316 139.917 156.196 140.458 155.955 140.939C155.714 141.415 155.369 141.822 154.92 142.16C154.477 142.492 153.943 142.749 153.318 142.932C152.7 143.107 152.01 143.195 151.248 143.195C150.564 143.195 149.891 143.104 149.227 142.922C148.569 142.74 147.97 142.463 147.43 142.092C146.889 141.714 146.46 141.245 146.141 140.686C145.822 140.119 145.662 139.458 145.662 138.703H148.113C148.113 139.165 148.191 139.559 148.348 139.885C148.51 140.21 148.735 140.477 149.021 140.686C149.308 140.887 149.64 141.037 150.018 141.135C150.402 141.232 150.812 141.281 151.248 141.281C151.821 141.281 152.299 141.2 152.684 141.037C153.074 140.874 153.367 140.646 153.562 140.354C153.758 140.061 153.855 139.722 153.855 139.338ZM162.566 141.32C162.951 141.32 163.296 141.245 163.602 141.096C163.914 140.939 164.165 140.725 164.354 140.451C164.549 140.178 164.656 139.862 164.676 139.504H166.893C166.88 140.188 166.678 140.809 166.287 141.369C165.896 141.929 165.379 142.375 164.734 142.707C164.09 143.033 163.377 143.195 162.596 143.195C161.788 143.195 161.085 143.059 160.486 142.785C159.887 142.505 159.389 142.121 158.992 141.633C158.595 141.145 158.296 140.581 158.094 139.943C157.898 139.305 157.801 138.622 157.801 137.893V137.551C157.801 136.822 157.898 136.138 158.094 135.5C158.296 134.855 158.595 134.289 158.992 133.801C159.389 133.312 159.887 132.932 160.486 132.658C161.085 132.378 161.785 132.238 162.586 132.238C163.432 132.238 164.174 132.408 164.812 132.746C165.451 133.078 165.952 133.544 166.316 134.143C166.688 134.735 166.88 135.425 166.893 136.213H164.676C164.656 135.822 164.559 135.471 164.383 135.158C164.214 134.839 163.973 134.585 163.66 134.396C163.354 134.208 162.986 134.113 162.557 134.113C162.081 134.113 161.688 134.211 161.375 134.406C161.062 134.595 160.818 134.855 160.643 135.188C160.467 135.513 160.34 135.881 160.262 136.291C160.19 136.695 160.154 137.115 160.154 137.551V137.893C160.154 138.329 160.19 138.752 160.262 139.162C160.333 139.572 160.457 139.94 160.633 140.266C160.815 140.585 161.062 140.842 161.375 141.037C161.688 141.226 162.085 141.32 162.566 141.32ZM171.062 134.445V143H168.709V132.434H170.955L171.062 134.445ZM174.295 132.365L174.275 134.553C174.132 134.527 173.976 134.507 173.807 134.494C173.644 134.481 173.481 134.475 173.318 134.475C172.915 134.475 172.56 134.533 172.254 134.65C171.948 134.761 171.691 134.924 171.482 135.139C171.281 135.347 171.124 135.601 171.014 135.9C170.903 136.2 170.838 136.535 170.818 136.906L170.281 136.945C170.281 136.281 170.346 135.666 170.477 135.1C170.607 134.533 170.802 134.035 171.062 133.605C171.329 133.176 171.661 132.84 172.059 132.6C172.462 132.359 172.928 132.238 173.455 132.238C173.598 132.238 173.751 132.251 173.914 132.277C174.083 132.303 174.21 132.333 174.295 132.365ZM178.289 132.434V143H175.926V132.434H178.289ZM175.77 129.66C175.77 129.302 175.887 129.006 176.121 128.771C176.362 128.531 176.694 128.41 177.117 128.41C177.534 128.41 177.863 128.531 178.104 128.771C178.344 129.006 178.465 129.302 178.465 129.66C178.465 130.012 178.344 130.305 178.104 130.539C177.863 130.773 177.534 130.891 177.117 130.891C176.694 130.891 176.362 130.773 176.121 130.539C175.887 130.305 175.77 130.012 175.77 129.66ZM183.23 134.465V147.062H180.877V132.434H183.045L183.23 134.465ZM190.115 137.619V137.824C190.115 138.592 190.024 139.305 189.842 139.963C189.666 140.614 189.402 141.184 189.051 141.672C188.706 142.154 188.279 142.528 187.771 142.795C187.264 143.062 186.678 143.195 186.014 143.195C185.356 143.195 184.78 143.075 184.285 142.834C183.797 142.587 183.383 142.238 183.045 141.789C182.706 141.34 182.433 140.812 182.225 140.207C182.023 139.595 181.88 138.924 181.795 138.195V137.404C181.88 136.63 182.023 135.926 182.225 135.295C182.433 134.663 182.706 134.12 183.045 133.664C183.383 133.208 183.797 132.857 184.285 132.609C184.773 132.362 185.343 132.238 185.994 132.238C186.658 132.238 187.247 132.368 187.762 132.629C188.276 132.883 188.709 133.247 189.061 133.723C189.412 134.191 189.676 134.758 189.852 135.422C190.027 136.079 190.115 136.812 190.115 137.619ZM187.762 137.824V137.619C187.762 137.131 187.716 136.678 187.625 136.262C187.534 135.839 187.391 135.467 187.195 135.148C187 134.829 186.749 134.582 186.443 134.406C186.144 134.224 185.783 134.133 185.359 134.133C184.943 134.133 184.585 134.204 184.285 134.348C183.986 134.484 183.735 134.676 183.533 134.924C183.331 135.171 183.175 135.461 183.064 135.793C182.954 136.118 182.876 136.473 182.83 136.857V138.752C182.908 139.221 183.042 139.65 183.23 140.041C183.419 140.432 183.686 140.744 184.031 140.979C184.383 141.206 184.832 141.32 185.379 141.32C185.802 141.32 186.163 141.229 186.463 141.047C186.762 140.865 187.007 140.614 187.195 140.295C187.391 139.969 187.534 139.595 187.625 139.172C187.716 138.749 187.762 138.299 187.762 137.824ZM196.961 132.434V134.152H191.004V132.434H196.961ZM192.723 129.846H195.076V140.08C195.076 140.406 195.122 140.656 195.213 140.832C195.311 141.001 195.444 141.115 195.613 141.174C195.783 141.232 195.981 141.262 196.209 141.262C196.372 141.262 196.528 141.252 196.678 141.232C196.827 141.213 196.948 141.193 197.039 141.174L197.049 142.971C196.854 143.029 196.626 143.081 196.365 143.127C196.111 143.173 195.818 143.195 195.486 143.195C194.946 143.195 194.467 143.101 194.051 142.912C193.634 142.717 193.309 142.401 193.074 141.965C192.84 141.529 192.723 140.949 192.723 140.227V129.846Z" fill="black"/>
<path d="M96.1562 102.375H101.219C101.135 103.938 100.708 105.318 99.9375 106.516C99.1771 107.703 98.1198 108.635 96.7656 109.312C95.4115 109.979 93.8021 110.312 91.9375 110.312C90.4479 110.312 89.1146 110.057 87.9375 109.547C86.7604 109.036 85.7604 108.307 84.9375 107.359C84.125 106.401 83.5 105.25 83.0625 103.906C82.6354 102.552 82.4219 101.026 82.4219 99.3281V97.9375C82.4219 96.2396 82.6458 94.7135 83.0938 93.3594C83.5417 92.0052 84.1823 90.849 85.0156 89.8906C85.849 88.9323 86.849 88.1979 88.0156 87.6875C89.1823 87.1771 90.4844 86.9219 91.9219 86.9219C93.8594 86.9219 95.4948 87.2708 96.8281 87.9688C98.1615 88.6667 99.1927 89.625 99.9219 90.8438C100.661 92.0625 101.104 93.4531 101.25 95.0156H96.1719C96.1302 94.1302 95.9635 93.3854 95.6719 92.7812C95.3802 92.1667 94.9323 91.7031 94.3281 91.3906C93.724 91.0781 92.9219 90.9219 91.9219 90.9219C91.1927 90.9219 90.5521 91.0573 90 91.3281C89.4583 91.599 89.0052 92.0208 88.6406 92.5938C88.2865 93.1667 88.0208 93.8958 87.8438 94.7812C87.6667 95.6562 87.5781 96.6979 87.5781 97.9062V99.3281C87.5781 100.526 87.6562 101.562 87.8125 102.438C87.9688 103.312 88.2188 104.036 88.5625 104.609C88.9167 105.182 89.3698 105.609 89.9219 105.891C90.474 106.172 91.1458 106.312 91.9375 106.312C92.8438 106.312 93.599 106.172 94.2031 105.891C94.8073 105.599 95.2708 105.161 95.5938 104.578C95.9167 103.995 96.1042 103.26 96.1562 102.375ZM104.047 87.25H112.781C114.521 87.25 116.026 87.5104 117.297 88.0312C118.578 88.5521 119.562 89.3229 120.25 90.3438C120.938 91.3646 121.281 92.625 121.281 94.125C121.281 95.375 121.078 96.4375 120.672 97.3125C120.266 98.1875 119.693 98.9115 118.953 99.4844C118.224 100.057 117.37 100.521 116.391 100.875L114.734 101.781H107.297L107.266 97.8281H112.797C113.557 97.8281 114.188 97.6927 114.688 97.4219C115.188 97.151 115.562 96.7708 115.812 96.2812C116.073 95.7812 116.203 95.1979 116.203 94.5312C116.203 93.8438 116.073 93.25 115.812 92.75C115.552 92.25 115.167 91.8698 114.656 91.6094C114.156 91.3385 113.531 91.2031 112.781 91.2031H109.141V110H104.047V87.25ZM116.641 110L111.531 99.8906L116.906 99.875L122.094 109.766V110H116.641ZM137.188 87.25H142.281V102.188C142.281 103.958 141.906 105.448 141.156 106.656C140.417 107.865 139.385 108.776 138.062 109.391C136.74 110.005 135.208 110.312 133.469 110.312C131.719 110.312 130.177 110.005 128.844 109.391C127.521 108.776 126.479 107.865 125.719 106.656C124.969 105.448 124.594 103.958 124.594 102.188V87.25H129.703V102.188C129.703 103.167 129.849 103.969 130.141 104.594C130.443 105.208 130.875 105.661 131.438 105.953C132 106.234 132.677 106.375 133.469 106.375C134.26 106.375 134.932 106.234 135.484 105.953C136.047 105.661 136.469 105.208 136.75 104.594C137.042 103.969 137.188 103.167 137.188 102.188V87.25ZM153.125 110H148.125L148.156 106.062H153.125C154.26 106.062 155.219 105.802 156 105.281C156.781 104.75 157.375 103.969 157.781 102.938C158.188 101.896 158.391 100.63 158.391 99.1406V98.0938C158.391 96.9688 158.276 95.9792 158.047 95.125C157.818 94.2604 157.479 93.5365 157.031 92.9531C156.583 92.3698 156.026 91.9323 155.359 91.6406C154.703 91.349 153.948 91.2031 153.094 91.2031H148.031V87.25H153.094C154.635 87.25 156.042 87.5104 157.312 88.0312C158.594 88.5521 159.698 89.2969 160.625 90.2656C161.562 91.2344 162.286 92.3802 162.797 93.7031C163.307 95.026 163.562 96.5 163.562 98.125V99.1406C163.562 100.755 163.307 102.229 162.797 103.562C162.286 104.885 161.562 106.031 160.625 107C159.698 107.958 158.599 108.698 157.328 109.219C156.057 109.74 154.656 110 153.125 110ZM151.016 87.25V110H145.922V87.25H151.016Z" fill="black"/>
<path d="M240 32H280V72H240V32Z" fill="#03449D"/>
<path d="M258.73 57.9668V59.5H251.201V57.9668H258.73ZM251.582 45.2812V59.5H249.697V45.2812H251.582ZM257.734 51.3945V52.9277H251.201V51.3945H257.734ZM258.633 45.2812V46.8242H251.201V45.2812H258.633ZM262.285 45.2812L265.703 50.7305L269.121 45.2812H271.318L266.826 52.3223L271.426 59.5H269.209L265.703 53.9434L262.197 59.5H259.98L264.58 52.3223L260.088 45.2812H262.285Z" fill="#F8F7F2"/>
<defs>
<linearGradient id="paint0_linear_13_41" x1="140" y1="0" x2="140" y2="227.097" gradientUnits="userSpaceOnUse">
<stop stop-color="#C0B020" stop-opacity="0.71"/>
<stop offset="1" stop-color="#E6D53D"/>
</linearGradient>
</defs>
</svg>
