<svg width="800" height="568" viewBox="0 0 800 568" fill="none" xmlns="http://www.w3.org/2000/svg">
<rect width="800" height="567.742" rx="10" fill="url(#paint0_linear_9_39)"/>
<path d="M164.141 168.75V237H148.859V168.75H164.141ZM191 197.531V209.344H159.875V197.531H191ZM194 168.75V180.609H159.875V168.75H194ZM223.578 237.938C219.547 237.938 215.938 237.297 212.75 236.016C209.562 234.734 206.859 232.969 204.641 230.719C202.453 228.438 200.781 225.812 199.625 222.844C198.469 219.875 197.891 216.703 197.891 213.328V211.547C197.891 207.766 198.422 204.281 199.484 201.094C200.547 197.906 202.094 195.141 204.125 192.797C206.188 190.422 208.719 188.594 211.719 187.312C214.719 186 218.141 185.344 221.984 185.344C225.578 185.344 228.781 185.938 231.594 187.125C234.406 188.281 236.781 189.953 238.719 192.141C240.656 194.297 242.125 196.906 243.125 199.969C244.156 203 244.672 206.406 244.672 210.188V216.188H203.797V206.766H230.328V205.641C230.328 203.859 230 202.297 229.344 200.953C228.719 199.609 227.781 198.578 226.531 197.859C225.312 197.109 223.766 196.734 221.891 196.734C220.109 196.734 218.625 197.109 217.438 197.859C216.25 198.609 215.297 199.672 214.578 201.047C213.891 202.391 213.391 203.969 213.078 205.781C212.766 207.562 212.609 209.484 212.609 211.547V213.328C212.609 215.297 212.875 217.094 213.406 218.719C213.938 220.344 214.719 221.734 215.75 222.891C216.781 224.047 218.031 224.953 219.5 225.609C220.969 226.266 222.641 226.594 224.516 226.594C226.828 226.594 229.031 226.156 231.125 225.281C233.219 224.375 235.031 222.969 236.562 221.062L243.406 228.891C242.375 230.391 240.922 231.844 239.047 233.25C237.203 234.625 234.984 235.75 232.391 236.625C229.797 237.5 226.859 237.938 223.578 237.938ZM277.578 186.281V196.547H247.484V186.281H277.578ZM254.375 173.719H269.047V221.109C269.047 222.516 269.219 223.594 269.562 224.344C269.906 225.094 270.469 225.625 271.25 225.938C272.031 226.219 273.031 226.359 274.25 226.359C275.125 226.359 275.875 226.328 276.5 226.266C277.125 226.203 277.703 226.125 278.234 226.031V236.625C276.984 237.031 275.656 237.344 274.25 237.562C272.844 237.812 271.312 237.938 269.656 237.938C266.5 237.938 263.766 237.422 261.453 236.391C259.172 235.359 257.422 233.734 256.203 231.516C254.984 229.266 254.375 226.344 254.375 222.75V173.719ZM305.797 226.547C307.359 226.547 308.719 226.25 309.875 225.656C311.031 225.062 311.922 224.234 312.547 223.172C313.203 222.078 313.531 220.766 313.531 219.234H327.312C327.312 222.922 326.359 226.172 324.453 228.984C322.578 231.797 320.047 234 316.859 235.594C313.672 237.156 310.078 237.938 306.078 237.938C302.141 237.938 298.703 237.297 295.766 236.016C292.828 234.703 290.375 232.875 288.406 230.531C286.438 228.188 284.953 225.469 283.953 222.375C282.984 219.25 282.5 215.875 282.5 212.25V211.031C282.5 207.438 282.984 204.078 283.953 200.953C284.953 197.828 286.438 195.094 288.406 192.75C290.375 190.406 292.812 188.594 295.719 187.312C298.656 186 302.094 185.344 306.031 185.344C310.188 185.344 313.859 186.141 317.047 187.734C320.266 189.328 322.781 191.625 324.594 194.625C326.406 197.594 327.312 201.172 327.312 205.359H313.531C313.531 203.734 313.234 202.281 312.641 201C312.078 199.688 311.203 198.656 310.016 197.906C308.859 197.125 307.422 196.734 305.703 196.734C303.922 196.734 302.453 197.125 301.297 197.906C300.172 198.656 299.312 199.703 298.719 201.047C298.125 202.391 297.719 203.922 297.5 205.641C297.281 207.328 297.172 209.125 297.172 211.031V212.25C297.172 214.188 297.281 216.031 297.5 217.781C297.719 219.5 298.125 221.016 298.719 222.328C299.344 223.641 300.219 224.672 301.344 225.422C302.469 226.172 303.953 226.547 305.797 226.547ZM348.875 165V237H334.25V165H348.875ZM346.953 209.859L343.297 209.953C343.297 206.391 343.734 203.125 344.609 200.156C345.516 197.156 346.797 194.547 348.453 192.328C350.109 190.109 352.094 188.391 354.406 187.172C356.75 185.953 359.328 185.344 362.141 185.344C364.641 185.344 366.922 185.703 368.984 186.422C371.047 187.141 372.828 188.281 374.328 189.844C375.828 191.406 376.984 193.453 377.797 195.984C378.609 198.516 379.016 201.594 379.016 205.219V237H364.297V205.125C364.297 202.969 363.984 201.281 363.359 200.062C362.766 198.844 361.891 197.984 360.734 197.484C359.609 196.984 358.234 196.734 356.609 196.734C354.703 196.734 353.125 197.078 351.875 197.766C350.625 198.422 349.641 199.344 348.922 200.531C348.203 201.719 347.688 203.109 347.375 204.703C347.094 206.297 346.953 208.016 346.953 209.859ZM441.594 181.734L423.969 237H407.656L432.922 168.75H443.234L441.594 181.734ZM456.219 237L438.547 181.734L436.719 168.75H447.172L472.531 237H456.219ZM455.469 211.594V223.406H419.891V211.594H455.469ZM490.25 196.031V256.5H475.625V186.281H489.266L490.25 196.031ZM521.891 211.078V212.062C521.891 215.75 521.469 219.172 520.625 222.328C519.781 225.453 518.516 228.188 516.828 230.531C515.172 232.875 513.125 234.703 510.688 236.016C508.25 237.297 505.422 237.938 502.203 237.938C499.141 237.938 496.484 237.297 494.234 236.016C492.016 234.703 490.141 232.891 488.609 230.578C487.109 228.234 485.891 225.562 484.953 222.562C484.047 219.531 483.344 216.297 482.844 212.859V210.938C483.344 207.281 484.062 203.891 485 200.766C485.938 197.641 487.156 194.938 488.656 192.656C490.156 190.344 492.016 188.547 494.234 187.266C496.453 185.984 499.094 185.344 502.156 185.344C505.344 185.344 508.172 185.953 510.641 187.172C513.109 188.391 515.172 190.141 516.828 192.422C518.516 194.672 519.781 197.375 520.625 200.531C521.469 203.688 521.891 207.203 521.891 211.078ZM507.219 212.062V211.078C507.219 209.016 507.062 207.125 506.75 205.406C506.438 203.656 505.938 202.141 505.25 200.859C504.562 199.547 503.656 198.531 502.531 197.812C501.406 197.094 500.031 196.734 498.406 196.734C496.656 196.734 495.172 197.016 493.953 197.578C492.734 198.141 491.75 198.969 491 200.062C490.25 201.125 489.703 202.438 489.359 204C489.047 205.562 488.875 207.344 488.844 209.344V214.5C488.875 216.844 489.203 218.938 489.828 220.781C490.484 222.594 491.5 224.016 492.875 225.047C494.281 226.047 496.156 226.547 498.5 226.547C500.156 226.547 501.531 226.188 502.625 225.469C503.75 224.719 504.641 223.672 505.297 222.328C505.984 220.984 506.469 219.438 506.75 217.688C507.062 215.938 507.219 214.062 507.219 212.062ZM545.094 186.281V237H530.422V186.281H545.094ZM529.531 173.156C529.531 171.031 530.281 169.297 531.781 167.953C533.281 166.578 535.25 165.891 537.688 165.891C540.125 165.891 542.094 166.578 543.594 167.953C545.125 169.297 545.891 171.031 545.891 173.156C545.891 175.25 545.125 176.984 543.594 178.359C542.094 179.703 540.125 180.375 537.688 180.375C535.25 180.375 533.281 179.703 531.781 178.359C530.281 176.984 529.531 175.25 529.531 173.156Z" fill="black"/>
<path d="M161.188 299.281V350H149.844V299.281H161.188ZM149.094 285.969C149.094 284.25 149.656 282.828 150.781 281.703C151.938 280.547 153.531 279.969 155.562 279.969C157.562 279.969 159.141 280.547 160.297 281.703C161.453 282.828 162.031 284.25 162.031 285.969C162.031 287.656 161.453 289.062 160.297 290.188C159.141 291.312 157.562 291.875 155.562 291.875C153.531 291.875 151.938 291.312 150.781 290.188C149.656 289.062 149.094 287.656 149.094 285.969ZM184.766 310.109V350H173.469V299.281H184.109L184.766 310.109ZM182.75 322.766L179.094 322.719C179.125 319.125 179.625 315.828 180.594 312.828C181.594 309.828 182.969 307.25 184.719 305.094C186.5 302.938 188.625 301.281 191.094 300.125C193.562 298.938 196.312 298.344 199.344 298.344C201.781 298.344 203.984 298.688 205.953 299.375C207.953 300.031 209.656 301.109 211.062 302.609C212.5 304.109 213.594 306.062 214.344 308.469C215.094 310.844 215.469 313.766 215.469 317.234V350H204.125V317.188C204.125 314.75 203.766 312.828 203.047 311.422C202.359 309.984 201.344 308.969 200 308.375C198.688 307.75 197.047 307.438 195.078 307.438C193.141 307.438 191.406 307.844 189.875 308.656C188.344 309.469 187.047 310.578 185.984 311.984C184.953 313.391 184.156 315.016 183.594 316.859C183.031 318.703 182.75 320.672 182.75 322.766ZM280.109 329.516V281.75H291.828V329.516C291.828 334.047 290.859 337.906 288.922 341.094C286.984 344.281 284.344 346.719 281 348.406C277.656 350.094 273.859 350.938 269.609 350.938C265.266 350.938 261.406 350.203 258.031 348.734C254.688 347.266 252.062 345.016 250.156 341.984C248.25 338.953 247.297 335.109 247.297 330.453H259.109C259.109 333.141 259.531 335.312 260.375 336.969C261.25 338.594 262.469 339.781 264.031 340.531C265.625 341.25 267.484 341.609 269.609 341.609C271.641 341.609 273.438 341.156 275 340.25C276.594 339.312 277.844 337.953 278.75 336.172C279.656 334.359 280.109 332.141 280.109 329.516ZM332.844 339.828V315.641C332.844 313.828 332.516 312.266 331.859 310.953C331.203 309.641 330.203 308.625 328.859 307.906C327.547 307.188 325.891 306.828 323.891 306.828C322.047 306.828 320.453 307.141 319.109 307.766C317.766 308.391 316.719 309.234 315.969 310.297C315.219 311.359 314.844 312.562 314.844 313.906H303.594C303.594 311.906 304.078 309.969 305.047 308.094C306.016 306.219 307.422 304.547 309.266 303.078C311.109 301.609 313.312 300.453 315.875 299.609C318.438 298.766 321.312 298.344 324.5 298.344C328.312 298.344 331.688 298.984 334.625 300.266C337.594 301.547 339.922 303.484 341.609 306.078C343.328 308.641 344.188 311.859 344.188 315.734V338.281C344.188 340.594 344.344 342.672 344.656 344.516C345 346.328 345.484 347.906 346.109 349.25V350H334.531C334 348.781 333.578 347.234 333.266 345.359C332.984 343.453 332.844 341.609 332.844 339.828ZM334.484 319.156L334.578 326.141H326.469C324.375 326.141 322.531 326.344 320.938 326.75C319.344 327.125 318.016 327.688 316.953 328.438C315.891 329.188 315.094 330.094 314.562 331.156C314.031 332.219 313.766 333.422 313.766 334.766C313.766 336.109 314.078 337.344 314.703 338.469C315.328 339.562 316.234 340.422 317.422 341.047C318.641 341.672 320.109 341.984 321.828 341.984C324.141 341.984 326.156 341.516 327.875 340.578C329.625 339.609 331 338.438 332 337.062C333 335.656 333.531 334.328 333.594 333.078L337.25 338.094C336.875 339.375 336.234 340.75 335.328 342.219C334.422 343.688 333.234 345.094 331.766 346.438C330.328 347.75 328.594 348.828 326.562 349.672C324.562 350.516 322.25 350.938 319.625 350.938C316.312 350.938 313.359 350.281 310.766 348.969C308.172 347.625 306.141 345.828 304.672 343.578C303.203 341.297 302.469 338.719 302.469 335.844C302.469 333.156 302.969 330.781 303.969 328.719C305 326.625 306.5 324.875 308.469 323.469C310.469 322.062 312.906 321 315.781 320.281C318.656 319.531 321.938 319.156 325.625 319.156H334.484ZM371.75 341.047L384.172 299.281H395.891L378.266 350H370.953L371.75 341.047ZM362.234 299.281L374.891 341.234L375.5 350H368.188L350.469 299.281H362.234ZM430.719 339.828V315.641C430.719 313.828 430.391 312.266 429.734 310.953C429.078 309.641 428.078 308.625 426.734 307.906C425.422 307.188 423.766 306.828 421.766 306.828C419.922 306.828 418.328 307.141 416.984 307.766C415.641 308.391 414.594 309.234 413.844 310.297C413.094 311.359 412.719 312.562 412.719 313.906H401.469C401.469 311.906 401.953 309.969 402.922 308.094C403.891 306.219 405.297 304.547 407.141 303.078C408.984 301.609 411.188 300.453 413.75 299.609C416.312 298.766 419.188 298.344 422.375 298.344C426.188 298.344 429.562 298.984 432.5 300.266C435.469 301.547 437.797 303.484 439.484 306.078C441.203 308.641 442.062 311.859 442.062 315.734V338.281C442.062 340.594 442.219 342.672 442.531 344.516C442.875 346.328 443.359 347.906 443.984 349.25V350H432.406C431.875 348.781 431.453 347.234 431.141 345.359C430.859 343.453 430.719 341.609 430.719 339.828ZM432.359 319.156L432.453 326.141H424.344C422.25 326.141 420.406 326.344 418.812 326.75C417.219 327.125 415.891 327.688 414.828 328.438C413.766 329.188 412.969 330.094 412.438 331.156C411.906 332.219 411.641 333.422 411.641 334.766C411.641 336.109 411.953 337.344 412.578 338.469C413.203 339.562 414.109 340.422 415.297 341.047C416.516 341.672 417.984 341.984 419.703 341.984C422.016 341.984 424.031 341.516 425.75 340.578C427.5 339.609 428.875 338.438 429.875 337.062C430.875 335.656 431.406 334.328 431.469 333.078L435.125 338.094C434.75 339.375 434.109 340.75 433.203 342.219C432.297 343.688 431.109 345.094 429.641 346.438C428.203 347.75 426.469 348.828 424.438 349.672C422.438 350.516 420.125 350.938 417.5 350.938C414.188 350.938 411.234 350.281 408.641 348.969C406.047 347.625 404.016 345.828 402.547 343.578C401.078 341.297 400.344 338.719 400.344 335.844C400.344 333.156 400.844 330.781 401.844 328.719C402.875 326.625 404.375 324.875 406.344 323.469C408.344 322.062 410.781 321 413.656 320.281C416.531 319.531 419.812 319.156 423.5 319.156H432.359ZM490.906 332.422C490.906 331.016 490.688 329.766 490.25 328.672C489.844 327.578 489.109 326.578 488.047 325.672C486.984 324.766 485.484 323.891 483.547 323.047C481.641 322.172 479.203 321.281 476.234 320.375C472.984 319.375 469.984 318.266 467.234 317.047C464.516 315.797 462.141 314.359 460.109 312.734C458.078 311.078 456.5 309.188 455.375 307.062C454.25 304.906 453.688 302.422 453.688 299.609C453.688 296.828 454.266 294.297 455.422 292.016C456.609 289.734 458.281 287.766 460.438 286.109C462.625 284.422 465.203 283.125 468.172 282.219C471.141 281.281 474.422 280.812 478.016 280.812C483.078 280.812 487.438 281.75 491.094 283.625C494.781 285.5 497.609 288.016 499.578 291.172C501.578 294.328 502.578 297.812 502.578 301.625H490.906C490.906 299.375 490.422 297.391 489.453 295.672C488.516 293.922 487.078 292.547 485.141 291.547C483.234 290.547 480.812 290.047 477.875 290.047C475.094 290.047 472.781 290.469 470.938 291.312C469.094 292.156 467.719 293.297 466.812 294.734C465.906 296.172 465.453 297.797 465.453 299.609C465.453 300.891 465.75 302.062 466.344 303.125C466.938 304.156 467.844 305.125 469.062 306.031C470.281 306.906 471.812 307.734 473.656 308.516C475.5 309.297 477.672 310.047 480.172 310.766C483.953 311.891 487.25 313.141 490.062 314.516C492.875 315.859 495.219 317.391 497.094 319.109C498.969 320.828 500.375 322.781 501.312 324.969C502.25 327.125 502.719 329.578 502.719 332.328C502.719 335.203 502.141 337.797 500.984 340.109C499.828 342.391 498.172 344.344 496.016 345.969C493.891 347.562 491.328 348.797 488.328 349.672C485.359 350.516 482.047 350.938 478.391 350.938C475.109 350.938 471.875 350.5 468.688 349.625C465.531 348.75 462.656 347.422 460.062 345.641C457.469 343.828 455.406 341.578 453.875 338.891C452.344 336.172 451.578 333 451.578 329.375H463.344C463.344 331.594 463.719 333.484 464.469 335.047C465.25 336.609 466.328 337.891 467.703 338.891C469.078 339.859 470.672 340.578 472.484 341.047C474.328 341.516 476.297 341.75 478.391 341.75C481.141 341.75 483.438 341.359 485.281 340.578C487.156 339.797 488.562 338.703 489.5 337.297C490.438 335.891 490.906 334.266 490.906 332.422ZM532.719 341.938C534.562 341.938 536.219 341.578 537.688 340.859C539.188 340.109 540.391 339.078 541.297 337.766C542.234 336.453 542.75 334.938 542.844 333.219H553.484C553.422 336.5 552.453 339.484 550.578 342.172C548.703 344.859 546.219 347 543.125 348.594C540.031 350.156 536.609 350.938 532.859 350.938C528.984 350.938 525.609 350.281 522.734 348.969C519.859 347.625 517.469 345.781 515.562 343.438C513.656 341.094 512.219 338.391 511.25 335.328C510.312 332.266 509.844 328.984 509.844 325.484V323.844C509.844 320.344 510.312 317.062 511.25 314C512.219 310.906 513.656 308.188 515.562 305.844C517.469 303.5 519.859 301.672 522.734 300.359C525.609 299.016 528.969 298.344 532.812 298.344C536.875 298.344 540.438 299.156 543.5 300.781C546.562 302.375 548.969 304.609 550.719 307.484C552.5 310.328 553.422 313.641 553.484 317.422H542.844C542.75 315.547 542.281 313.859 541.438 312.359C540.625 310.828 539.469 309.609 537.969 308.703C536.5 307.797 534.734 307.344 532.672 307.344C530.391 307.344 528.5 307.812 527 308.75C525.5 309.656 524.328 310.906 523.484 312.5C522.641 314.062 522.031 315.828 521.656 317.797C521.312 319.734 521.141 321.75 521.141 323.844V325.484C521.141 327.578 521.312 329.609 521.656 331.578C522 333.547 522.594 335.312 523.438 336.875C524.312 338.406 525.5 339.641 527 340.578C528.5 341.484 530.406 341.938 532.719 341.938ZM573.5 308.938V350H562.203V299.281H572.984L573.5 308.938ZM589.016 298.953L588.922 309.453C588.234 309.328 587.484 309.234 586.672 309.172C585.891 309.109 585.109 309.078 584.328 309.078C582.391 309.078 580.688 309.359 579.219 309.922C577.75 310.453 576.516 311.234 575.516 312.266C574.547 313.266 573.797 314.484 573.266 315.922C572.734 317.359 572.422 318.969 572.328 320.75L569.75 320.938C569.75 317.75 570.062 314.797 570.688 312.078C571.312 309.359 572.25 306.969 573.5 304.906C574.781 302.844 576.375 301.234 578.281 300.078C580.219 298.922 582.453 298.344 584.984 298.344C585.672 298.344 586.406 298.406 587.188 298.531C588 298.656 588.609 298.797 589.016 298.953ZM608.188 299.281V350H596.844V299.281H608.188ZM596.094 285.969C596.094 284.25 596.656 282.828 597.781 281.703C598.938 280.547 600.531 279.969 602.562 279.969C604.562 279.969 606.141 280.547 607.297 281.703C608.453 282.828 609.031 284.25 609.031 285.969C609.031 287.656 608.453 289.062 607.297 290.188C606.141 291.312 604.562 291.875 602.562 291.875C600.531 291.875 598.938 291.312 597.781 290.188C596.656 289.062 596.094 287.656 596.094 285.969ZM631.906 309.031V369.5H620.609V299.281H631.016L631.906 309.031ZM664.953 324.172V325.156C664.953 328.844 664.516 332.266 663.641 335.422C662.797 338.547 661.531 341.281 659.844 343.625C658.188 345.938 656.141 347.734 653.703 349.016C651.266 350.297 648.453 350.938 645.266 350.938C642.109 350.938 639.344 350.359 636.969 349.203C634.625 348.016 632.641 346.344 631.016 344.188C629.391 342.031 628.078 339.5 627.078 336.594C626.109 333.656 625.422 330.438 625.016 326.938V323.141C625.422 319.422 626.109 316.047 627.078 313.016C628.078 309.984 629.391 307.375 631.016 305.188C632.641 303 634.625 301.312 636.969 300.125C639.312 298.938 642.047 298.344 645.172 298.344C648.359 298.344 651.188 298.969 653.656 300.219C656.125 301.438 658.203 303.188 659.891 305.469C661.578 307.719 662.844 310.438 663.688 313.625C664.531 316.781 664.953 320.297 664.953 324.172ZM653.656 325.156V324.172C653.656 321.828 653.438 319.656 653 317.656C652.562 315.625 651.875 313.844 650.938 312.312C650 310.781 648.797 309.594 647.328 308.75C645.891 307.875 644.156 307.438 642.125 307.438C640.125 307.438 638.406 307.781 636.969 308.469C635.531 309.125 634.328 310.047 633.359 311.234C632.391 312.422 631.641 313.812 631.109 315.406C630.578 316.969 630.203 318.672 629.984 320.516V329.609C630.359 331.859 631 333.922 631.906 335.797C632.812 337.672 634.094 339.172 635.75 340.297C637.438 341.391 639.594 341.938 642.219 341.938C644.25 341.938 645.984 341.5 647.422 340.625C648.859 339.75 650.031 338.547 650.938 337.016C651.875 335.453 652.562 333.656 653 331.625C653.438 329.594 653.656 327.438 653.656 325.156ZM697.812 299.281V307.531H669.219V299.281H697.812ZM677.469 286.859H688.766V335.984C688.766 337.547 688.984 338.75 689.422 339.594C689.891 340.406 690.531 340.953 691.344 341.234C692.156 341.516 693.109 341.656 694.203 341.656C694.984 341.656 695.734 341.609 696.453 341.516C697.172 341.422 697.75 341.328 698.188 341.234L698.234 349.859C697.297 350.141 696.203 350.391 694.953 350.609C693.734 350.828 692.328 350.938 690.734 350.938C688.141 350.938 685.844 350.484 683.844 349.578C681.844 348.641 680.281 347.125 679.156 345.031C678.031 342.938 677.469 340.156 677.469 336.688V286.859Z" fill="black"/>
<path d="M720 488H800V558C800 563.523 795.523 568 790 568H720V488Z" fill="#03449D"/>
<path d="M757.461 538.934V542H742.402V538.934H757.461ZM743.164 513.562V542H739.395V513.562H743.164ZM755.469 525.789V528.855H742.402V525.789H755.469ZM757.266 513.562V516.648H742.402V513.562H757.266ZM764.57 513.562L771.406 524.461L778.242 513.562H782.637L773.652 527.645L782.852 542H778.418L771.406 530.887L764.395 542H759.961L769.16 527.645L760.176 513.562H764.57Z" fill="#F8F7F2"/>
<defs>
<linearGradient id="paint0_linear_9_39" x1="400" y1="0" x2="400" y2="567.742" gradientUnits="userSpaceOnUse">
<stop stop-color="#C0B020" stop-opacity="0.71"/>
<stop offset="1" stop-color="#E6D53D"/>
</linearGradient>
</defs>
</svg>
