<svg width="800" height="568" viewBox="0 0 800 568" fill="none" xmlns="http://www.w3.org/2000/svg">
<rect width="800" height="567.742" rx="10" fill="url(#paint0_linear_12_32)"/>
<path d="M81.3125 259.844V234.188H91.125V268H81.9375L81.3125 259.844ZM82.3438 252.938L85.0312 252.875C85.0312 255.146 84.7604 257.24 84.2188 259.156C83.6979 261.073 82.9062 262.74 81.8438 264.156C80.8021 265.573 79.5 266.677 77.9375 267.469C76.3958 268.24 74.5938 268.625 72.5312 268.625C70.8646 268.625 69.3333 268.396 67.9375 267.938C66.5625 267.458 65.375 266.719 64.375 265.719C63.375 264.698 62.6042 263.396 62.0625 261.812C61.5208 260.208 61.25 258.292 61.25 256.062V234.188H71V256.125C71 257 71.1042 257.75 71.3125 258.375C71.5417 258.979 71.8438 259.479 72.2188 259.875C72.6146 260.271 73.0938 260.562 73.6562 260.75C74.2396 260.938 74.875 261.031 75.5625 261.031C77.2917 261.031 78.6458 260.677 79.625 259.969C80.625 259.24 81.3229 258.271 81.7188 257.062C82.1354 255.833 82.3438 254.458 82.3438 252.938ZM115.469 258.594C115.469 257.969 115.271 257.417 114.875 256.938C114.5 256.458 113.812 256.021 112.812 255.625C111.833 255.229 110.448 254.833 108.656 254.438C106.969 254.083 105.396 253.625 103.938 253.062C102.479 252.479 101.208 251.781 100.125 250.969C99.0417 250.135 98.1979 249.156 97.5938 248.031C96.9896 246.885 96.6875 245.583 96.6875 244.125C96.6875 242.708 96.9896 241.365 97.5938 240.094C98.2188 238.823 99.1146 237.698 100.281 236.719C101.469 235.74 102.906 234.969 104.594 234.406C106.302 233.844 108.24 233.562 110.406 233.562C113.385 233.562 115.958 234.031 118.125 234.969C120.292 235.885 121.958 237.177 123.125 238.844C124.292 240.49 124.875 242.375 124.875 244.5H115.125C115.125 243.625 114.958 242.865 114.625 242.219C114.292 241.573 113.781 241.073 113.094 240.719C112.406 240.344 111.5 240.156 110.375 240.156C109.5 240.156 108.729 240.312 108.062 240.625C107.417 240.917 106.906 241.323 106.531 241.844C106.177 242.365 106 242.969 106 243.656C106 244.135 106.104 244.573 106.312 244.969C106.542 245.344 106.885 245.698 107.344 246.031C107.823 246.344 108.438 246.625 109.188 246.875C109.958 247.125 110.896 247.365 112 247.594C114.354 248.031 116.5 248.646 118.438 249.438C120.396 250.229 121.958 251.323 123.125 252.719C124.312 254.115 124.906 255.958 124.906 258.25C124.906 259.75 124.562 261.125 123.875 262.375C123.208 263.625 122.24 264.719 120.969 265.656C119.698 266.594 118.177 267.323 116.406 267.844C114.635 268.365 112.635 268.625 110.406 268.625C107.219 268.625 104.521 268.052 102.312 266.906C100.104 265.76 98.4375 264.323 97.3125 262.594C96.2083 260.844 95.6562 259.052 95.6562 257.219H104.812C104.854 258.344 105.135 259.26 105.656 259.969C106.198 260.677 106.896 261.198 107.75 261.531C108.604 261.844 109.562 262 110.625 262C111.688 262 112.573 261.854 113.281 261.562C113.99 261.271 114.531 260.875 114.906 260.375C115.281 259.854 115.469 259.26 115.469 258.594ZM146.281 268.625C143.594 268.625 141.188 268.198 139.062 267.344C136.938 266.49 135.135 265.312 133.656 263.812C132.198 262.292 131.083 260.542 130.312 258.562C129.542 256.583 129.156 254.469 129.156 252.219V251.031C129.156 248.51 129.51 246.188 130.219 244.062C130.927 241.938 131.958 240.094 133.312 238.531C134.688 236.948 136.375 235.729 138.375 234.875C140.375 234 142.656 233.562 145.219 233.562C147.615 233.562 149.75 233.958 151.625 234.75C153.5 235.521 155.083 236.635 156.375 238.094C157.667 239.531 158.646 241.271 159.312 243.312C160 245.333 160.344 247.604 160.344 250.125V254.125H133.094V247.844H150.781V247.094C150.781 245.906 150.562 244.865 150.125 243.969C149.708 243.073 149.083 242.385 148.25 241.906C147.438 241.406 146.406 241.156 145.156 241.156C143.969 241.156 142.979 241.406 142.188 241.906C141.396 242.406 140.76 243.115 140.281 244.031C139.823 244.927 139.49 245.979 139.281 247.188C139.073 248.375 138.969 249.656 138.969 251.031V252.219C138.969 253.531 139.146 254.729 139.5 255.812C139.854 256.896 140.375 257.823 141.062 258.594C141.75 259.365 142.583 259.969 143.562 260.406C144.542 260.844 145.656 261.062 146.906 261.062C148.448 261.062 149.917 260.771 151.312 260.188C152.708 259.583 153.917 258.646 154.938 257.375L159.5 262.594C158.812 263.594 157.844 264.562 156.594 265.5C155.365 266.417 153.885 267.167 152.156 267.75C150.427 268.333 148.469 268.625 146.281 268.625ZM189.188 256C189.188 255.229 189.073 254.542 188.844 253.938C188.615 253.312 188.198 252.74 187.594 252.219C186.99 251.698 186.135 251.177 185.031 250.656C183.927 250.115 182.479 249.562 180.688 249C178.646 248.333 176.698 247.583 174.844 246.75C173.01 245.896 171.375 244.906 169.938 243.781C168.5 242.656 167.365 241.344 166.531 239.844C165.719 238.344 165.312 236.594 165.312 234.594C165.312 232.656 165.74 230.906 166.594 229.344C167.448 227.781 168.646 226.448 170.188 225.344C171.729 224.219 173.542 223.365 175.625 222.781C177.708 222.177 180 221.875 182.5 221.875C185.833 221.875 188.76 222.469 191.281 223.656C193.823 224.823 195.802 226.469 197.219 228.594C198.635 230.698 199.344 233.146 199.344 235.938H189.219C189.219 234.708 188.958 233.625 188.438 232.688C187.938 231.729 187.167 230.979 186.125 230.438C185.104 229.896 183.823 229.625 182.281 229.625C180.781 229.625 179.521 229.854 178.5 230.312C177.5 230.75 176.74 231.354 176.219 232.125C175.719 232.896 175.469 233.74 175.469 234.656C175.469 235.385 175.656 236.052 176.031 236.656C176.427 237.24 176.99 237.792 177.719 238.312C178.469 238.812 179.385 239.292 180.469 239.75C181.552 240.208 182.792 240.646 184.188 241.062C186.625 241.833 188.781 242.688 190.656 243.625C192.552 244.562 194.146 245.625 195.438 246.812C196.729 248 197.698 249.344 198.344 250.844C199.01 252.344 199.344 254.042 199.344 255.938C199.344 257.958 198.948 259.75 198.156 261.312C197.385 262.875 196.26 264.208 194.781 265.312C193.323 266.396 191.573 267.219 189.531 267.781C187.49 268.344 185.208 268.625 182.688 268.625C180.396 268.625 178.135 268.333 175.906 267.75C173.677 267.146 171.656 266.229 169.844 265C168.052 263.771 166.615 262.208 165.531 260.312C164.469 258.396 163.938 256.125 163.938 253.5H174.125C174.125 254.875 174.323 256.042 174.719 257C175.115 257.938 175.677 258.698 176.406 259.281C177.156 259.865 178.062 260.281 179.125 260.531C180.188 260.781 181.375 260.906 182.688 260.906C184.208 260.906 185.438 260.698 186.375 260.281C187.333 259.844 188.042 259.25 188.5 258.5C188.958 257.75 189.188 256.917 189.188 256ZM222.031 234.188V241.031H201.969V234.188H222.031ZM206.562 225.812H216.344V257.406C216.344 258.344 216.458 259.062 216.688 259.562C216.917 260.062 217.292 260.417 217.812 260.625C218.333 260.812 219 260.906 219.812 260.906C220.396 260.906 220.896 260.885 221.312 260.844C221.729 260.802 222.115 260.75 222.469 260.688V267.75C221.635 268.021 220.75 268.229 219.812 268.375C218.875 268.542 217.854 268.625 216.75 268.625C214.646 268.625 212.823 268.281 211.281 267.594C209.76 266.906 208.594 265.823 207.781 264.344C206.969 262.844 206.562 260.896 206.562 258.5V225.812ZM244.625 259.938V245.438C244.625 244.417 244.469 243.542 244.156 242.812C243.844 242.083 243.354 241.51 242.688 241.094C242.021 240.677 241.156 240.469 240.094 240.469C239.198 240.469 238.417 240.625 237.75 240.938C237.104 241.25 236.604 241.698 236.25 242.281C235.917 242.865 235.75 243.583 235.75 244.438H226C226 242.917 226.344 241.5 227.031 240.188C227.719 238.875 228.698 237.719 229.969 236.719C231.26 235.719 232.802 234.948 234.594 234.406C236.385 233.844 238.396 233.562 240.625 233.562C243.271 233.562 245.625 234.01 247.688 234.906C249.771 235.781 251.417 237.104 252.625 238.875C253.833 240.625 254.438 242.833 254.438 245.5V259.656C254.438 261.698 254.552 263.302 254.781 264.469C255.031 265.615 255.385 266.615 255.844 267.469V268H246C245.542 267.021 245.198 265.812 244.969 264.375C244.74 262.917 244.625 261.438 244.625 259.938ZM245.844 247.375L245.906 252.75H241.062C239.979 252.75 239.042 252.885 238.25 253.156C237.479 253.427 236.854 253.802 236.375 254.281C235.896 254.74 235.542 255.281 235.312 255.906C235.104 256.51 235 257.177 235 257.906C235 258.594 235.167 259.219 235.5 259.781C235.833 260.323 236.292 260.75 236.875 261.062C237.458 261.375 238.135 261.531 238.906 261.531C240.177 261.531 241.26 261.281 242.156 260.781C243.073 260.281 243.781 259.677 244.281 258.969C244.781 258.24 245.031 257.562 245.031 256.938L247.375 261C247 261.833 246.542 262.698 246 263.594C245.458 264.469 244.771 265.292 243.938 266.062C243.104 266.812 242.094 267.427 240.906 267.906C239.74 268.385 238.333 268.625 236.688 268.625C234.562 268.625 232.635 268.198 230.906 267.344C229.177 266.469 227.792 265.271 226.75 263.75C225.729 262.229 225.219 260.479 225.219 258.5C225.219 256.729 225.542 255.156 226.188 253.781C226.833 252.406 227.802 251.24 229.094 250.281C230.406 249.323 232.052 248.604 234.031 248.125C236.01 247.625 238.323 247.375 240.969 247.375H245.844ZM278.031 234.188V241.031H257.969V234.188H278.031ZM262.562 225.812H272.344V257.406C272.344 258.344 272.458 259.062 272.688 259.562C272.917 260.062 273.292 260.417 273.812 260.625C274.333 260.812 275 260.906 275.812 260.906C276.396 260.906 276.896 260.885 277.312 260.844C277.729 260.802 278.115 260.75 278.469 260.688V267.75C277.635 268.021 276.75 268.229 275.812 268.375C274.875 268.542 273.854 268.625 272.75 268.625C270.646 268.625 268.823 268.281 267.281 267.594C265.76 266.906 264.594 265.823 263.781 264.344C262.969 262.844 262.562 260.896 262.562 258.5V225.812ZM298.656 268.625C295.969 268.625 293.562 268.198 291.438 267.344C289.312 266.49 287.51 265.312 286.031 263.812C284.573 262.292 283.458 260.542 282.688 258.562C281.917 256.583 281.531 254.469 281.531 252.219V251.031C281.531 248.51 281.885 246.188 282.594 244.062C283.302 241.938 284.333 240.094 285.688 238.531C287.062 236.948 288.75 235.729 290.75 234.875C292.75 234 295.031 233.562 297.594 233.562C299.99 233.562 302.125 233.958 304 234.75C305.875 235.521 307.458 236.635 308.75 238.094C310.042 239.531 311.021 241.271 311.688 243.312C312.375 245.333 312.719 247.604 312.719 250.125V254.125H285.469V247.844H303.156V247.094C303.156 245.906 302.938 244.865 302.5 243.969C302.083 243.073 301.458 242.385 300.625 241.906C299.812 241.406 298.781 241.156 297.531 241.156C296.344 241.156 295.354 241.406 294.562 241.906C293.771 242.406 293.135 243.115 292.656 244.031C292.198 244.927 291.865 245.979 291.656 247.188C291.448 248.375 291.344 249.656 291.344 251.031V252.219C291.344 253.531 291.521 254.729 291.875 255.812C292.229 256.896 292.75 257.823 293.438 258.594C294.125 259.365 294.958 259.969 295.938 260.406C296.917 260.844 298.031 261.062 299.281 261.062C300.823 261.062 302.292 260.771 303.688 260.188C305.083 259.583 306.292 258.646 307.312 257.375L311.875 262.594C311.188 263.594 310.219 264.562 308.969 265.5C307.74 266.417 306.26 267.167 304.531 267.75C302.802 268.333 300.844 268.625 298.656 268.625ZM336.75 222.5L320.656 271.906H313.562L329.656 222.5H336.75ZM360.438 259.844V234.188H370.25V268H361.062L360.438 259.844ZM361.469 252.938L364.156 252.875C364.156 255.146 363.885 257.24 363.344 259.156C362.823 261.073 362.031 262.74 360.969 264.156C359.927 265.573 358.625 266.677 357.062 267.469C355.521 268.24 353.719 268.625 351.656 268.625C349.99 268.625 348.458 268.396 347.062 267.938C345.688 267.458 344.5 266.719 343.5 265.719C342.5 264.698 341.729 263.396 341.188 261.812C340.646 260.208 340.375 258.292 340.375 256.062V234.188H350.125V256.125C350.125 257 350.229 257.75 350.438 258.375C350.667 258.979 350.969 259.479 351.344 259.875C351.74 260.271 352.219 260.562 352.781 260.75C353.365 260.938 354 261.031 354.688 261.031C356.417 261.031 357.771 260.677 358.75 259.969C359.75 259.24 360.448 258.271 360.844 257.062C361.26 255.833 361.469 254.458 361.469 252.938ZM394.594 258.594C394.594 257.969 394.396 257.417 394 256.938C393.625 256.458 392.938 256.021 391.938 255.625C390.958 255.229 389.573 254.833 387.781 254.438C386.094 254.083 384.521 253.625 383.062 253.062C381.604 252.479 380.333 251.781 379.25 250.969C378.167 250.135 377.323 249.156 376.719 248.031C376.115 246.885 375.812 245.583 375.812 244.125C375.812 242.708 376.115 241.365 376.719 240.094C377.344 238.823 378.24 237.698 379.406 236.719C380.594 235.74 382.031 234.969 383.719 234.406C385.427 233.844 387.365 233.562 389.531 233.562C392.51 233.562 395.083 234.031 397.25 234.969C399.417 235.885 401.083 237.177 402.25 238.844C403.417 240.49 404 242.375 404 244.5H394.25C394.25 243.625 394.083 242.865 393.75 242.219C393.417 241.573 392.906 241.073 392.219 240.719C391.531 240.344 390.625 240.156 389.5 240.156C388.625 240.156 387.854 240.312 387.188 240.625C386.542 240.917 386.031 241.323 385.656 241.844C385.302 242.365 385.125 242.969 385.125 243.656C385.125 244.135 385.229 244.573 385.438 244.969C385.667 245.344 386.01 245.698 386.469 246.031C386.948 246.344 387.562 246.625 388.312 246.875C389.083 247.125 390.021 247.365 391.125 247.594C393.479 248.031 395.625 248.646 397.562 249.438C399.521 250.229 401.083 251.323 402.25 252.719C403.438 254.115 404.031 255.958 404.031 258.25C404.031 259.75 403.688 261.125 403 262.375C402.333 263.625 401.365 264.719 400.094 265.656C398.823 266.594 397.302 267.323 395.531 267.844C393.76 268.365 391.76 268.625 389.531 268.625C386.344 268.625 383.646 268.052 381.438 266.906C379.229 265.76 377.562 264.323 376.438 262.594C375.333 260.844 374.781 259.052 374.781 257.219H383.938C383.979 258.344 384.26 259.26 384.781 259.969C385.323 260.677 386.021 261.198 386.875 261.531C387.729 261.844 388.688 262 389.75 262C390.812 262 391.698 261.854 392.406 261.562C393.115 261.271 393.656 260.875 394.031 260.375C394.406 259.854 394.594 259.26 394.594 258.594ZM425.406 268.625C422.719 268.625 420.312 268.198 418.188 267.344C416.062 266.49 414.26 265.312 412.781 263.812C411.323 262.292 410.208 260.542 409.438 258.562C408.667 256.583 408.281 254.469 408.281 252.219V251.031C408.281 248.51 408.635 246.188 409.344 244.062C410.052 241.938 411.083 240.094 412.438 238.531C413.812 236.948 415.5 235.729 417.5 234.875C419.5 234 421.781 233.562 424.344 233.562C426.74 233.562 428.875 233.958 430.75 234.75C432.625 235.521 434.208 236.635 435.5 238.094C436.792 239.531 437.771 241.271 438.438 243.312C439.125 245.333 439.469 247.604 439.469 250.125V254.125H412.219V247.844H429.906V247.094C429.906 245.906 429.688 244.865 429.25 243.969C428.833 243.073 428.208 242.385 427.375 241.906C426.562 241.406 425.531 241.156 424.281 241.156C423.094 241.156 422.104 241.406 421.312 241.906C420.521 242.406 419.885 243.115 419.406 244.031C418.948 244.927 418.615 245.979 418.406 247.188C418.198 248.375 418.094 249.656 418.094 251.031V252.219C418.094 253.531 418.271 254.729 418.625 255.812C418.979 256.896 419.5 257.823 420.188 258.594C420.875 259.365 421.708 259.969 422.688 260.406C423.667 260.844 424.781 261.062 426.031 261.062C427.573 261.062 429.042 260.771 430.438 260.188C431.833 259.583 433.042 258.646 434.062 257.375L438.625 262.594C437.938 263.594 436.969 264.562 435.719 265.5C434.49 266.417 433.01 267.167 431.281 267.75C429.552 268.333 427.594 268.625 425.406 268.625ZM444.719 222.5H462.188C465.667 222.5 468.677 223.021 471.219 224.062C473.781 225.104 475.75 226.646 477.125 228.688C478.5 230.729 479.188 233.25 479.188 236.25C479.188 238.75 478.781 240.875 477.969 242.625C477.156 244.375 476.01 245.823 474.531 246.969C473.073 248.115 471.365 249.042 469.406 249.75L466.094 251.562H451.219L451.156 243.656H462.219C463.74 243.656 465 243.385 466 242.844C467 242.302 467.75 241.542 468.25 240.562C468.771 239.562 469.031 238.396 469.031 237.062C469.031 235.688 468.771 234.5 468.25 233.5C467.729 232.5 466.958 231.74 465.938 231.219C464.938 230.677 463.688 230.406 462.188 230.406H454.906V268H444.719V222.5ZM469.906 268L459.688 247.781L470.438 247.75L480.812 267.531V268H469.906ZM501.531 268.625C498.844 268.625 496.438 268.198 494.312 267.344C492.188 266.49 490.385 265.312 488.906 263.812C487.448 262.292 486.333 260.542 485.562 258.562C484.792 256.583 484.406 254.469 484.406 252.219V251.031C484.406 248.51 484.76 246.188 485.469 244.062C486.177 241.938 487.208 240.094 488.562 238.531C489.938 236.948 491.625 235.729 493.625 234.875C495.625 234 497.906 233.562 500.469 233.562C502.865 233.562 505 233.958 506.875 234.75C508.75 235.521 510.333 236.635 511.625 238.094C512.917 239.531 513.896 241.271 514.562 243.312C515.25 245.333 515.594 247.604 515.594 250.125V254.125H488.344V247.844H506.031V247.094C506.031 245.906 505.812 244.865 505.375 243.969C504.958 243.073 504.333 242.385 503.5 241.906C502.688 241.406 501.656 241.156 500.406 241.156C499.219 241.156 498.229 241.406 497.438 241.906C496.646 242.406 496.01 243.115 495.531 244.031C495.073 244.927 494.74 245.979 494.531 247.188C494.323 248.375 494.219 249.656 494.219 251.031V252.219C494.219 253.531 494.396 254.729 494.75 255.812C495.104 256.896 495.625 257.823 496.312 258.594C497 259.365 497.833 259.969 498.812 260.406C499.792 260.844 500.906 261.062 502.156 261.062C503.698 261.062 505.167 260.771 506.562 260.188C507.958 259.583 509.167 258.646 510.188 257.375L514.75 262.594C514.062 263.594 513.094 264.562 511.844 265.5C510.615 266.417 509.135 267.167 507.406 267.75C505.677 268.333 503.719 268.625 501.531 268.625ZM532.5 268H522.688V231.312C522.688 228.708 523.198 226.521 524.219 224.75C525.26 222.979 526.729 221.635 528.625 220.719C530.521 219.802 532.76 219.344 535.344 219.344C536.24 219.344 537.073 219.406 537.844 219.531C538.635 219.635 539.406 219.781 540.156 219.969V227.25C539.76 227.146 539.354 227.073 538.938 227.031C538.521 226.99 538.021 226.969 537.438 226.969C536.396 226.969 535.5 227.135 534.75 227.469C534.021 227.781 533.458 228.271 533.062 228.938C532.688 229.583 532.5 230.375 532.5 231.312V268ZM539.188 234.188V241.031H517.75V234.188H539.188ZM562.531 244.625V252.25H544.344V244.625H562.531ZM579.938 220V268H570.188V220H579.938ZM578.656 249.906L576.219 249.969C576.219 247.594 576.51 245.417 577.094 243.438C577.698 241.438 578.552 239.698 579.656 238.219C580.76 236.74 582.083 235.594 583.625 234.781C585.188 233.969 586.906 233.562 588.781 233.562C590.448 233.562 591.969 233.802 593.344 234.281C594.719 234.76 595.906 235.521 596.906 236.562C597.906 237.604 598.677 238.969 599.219 240.656C599.76 242.344 600.031 244.396 600.031 246.812V268H590.219V246.75C590.219 245.312 590.01 244.188 589.594 243.375C589.198 242.562 588.615 241.99 587.844 241.656C587.094 241.323 586.177 241.156 585.094 241.156C583.823 241.156 582.771 241.385 581.938 241.844C581.104 242.281 580.448 242.896 579.969 243.688C579.49 244.479 579.146 245.406 578.938 246.469C578.75 247.531 578.656 248.677 578.656 249.906ZM605 251.438V250.781C605 248.302 605.354 246.021 606.062 243.938C606.771 241.833 607.812 240.01 609.188 238.469C610.562 236.927 612.25 235.729 614.25 234.875C616.25 234 618.542 233.562 621.125 233.562C623.75 233.562 626.062 234 628.062 234.875C630.083 235.729 631.781 236.927 633.156 238.469C634.531 240.01 635.573 241.833 636.281 243.938C636.99 246.021 637.344 248.302 637.344 250.781V251.438C637.344 253.896 636.99 256.177 636.281 258.281C635.573 260.365 634.531 262.188 633.156 263.75C631.781 265.292 630.094 266.49 628.094 267.344C626.094 268.198 623.792 268.625 621.188 268.625C618.604 268.625 616.302 268.198 614.281 267.344C612.26 266.49 610.562 265.292 609.188 263.75C607.812 262.188 606.771 260.365 606.062 258.281C605.354 256.177 605 253.896 605 251.438ZM614.781 250.781V251.438C614.781 252.771 614.885 254.021 615.094 255.188C615.323 256.354 615.688 257.375 616.188 258.25C616.688 259.125 617.344 259.812 618.156 260.312C618.99 260.792 620 261.031 621.188 261.031C622.375 261.031 623.375 260.792 624.188 260.312C625 259.812 625.656 259.125 626.156 258.25C626.656 257.375 627.01 256.354 627.219 255.188C627.448 254.021 627.562 252.771 627.562 251.438V250.781C627.562 249.469 627.448 248.24 627.219 247.094C627.01 245.927 626.656 244.896 626.156 244C625.656 243.104 624.99 242.406 624.156 241.906C623.344 241.406 622.333 241.156 621.125 241.156C619.958 241.156 618.969 241.406 618.156 241.906C617.344 242.406 616.688 243.104 616.188 244C615.688 244.896 615.323 245.927 615.094 247.094C614.885 248.24 614.781 249.469 614.781 250.781ZM641.062 251.438V250.781C641.062 248.302 641.417 246.021 642.125 243.938C642.833 241.833 643.875 240.01 645.25 238.469C646.625 236.927 648.312 235.729 650.312 234.875C652.312 234 654.604 233.562 657.188 233.562C659.812 233.562 662.125 234 664.125 234.875C666.146 235.729 667.844 236.927 669.219 238.469C670.594 240.01 671.635 241.833 672.344 243.938C673.052 246.021 673.406 248.302 673.406 250.781V251.438C673.406 253.896 673.052 256.177 672.344 258.281C671.635 260.365 670.594 262.188 669.219 263.75C667.844 265.292 666.156 266.49 664.156 267.344C662.156 268.198 659.854 268.625 657.25 268.625C654.667 268.625 652.365 268.198 650.344 267.344C648.323 266.49 646.625 265.292 645.25 263.75C643.875 262.188 642.833 260.365 642.125 258.281C641.417 256.177 641.062 253.896 641.062 251.438ZM650.844 250.781V251.438C650.844 252.771 650.948 254.021 651.156 255.188C651.385 256.354 651.75 257.375 652.25 258.25C652.75 259.125 653.406 259.812 654.219 260.312C655.052 260.792 656.062 261.031 657.25 261.031C658.438 261.031 659.438 260.792 660.25 260.312C661.062 259.812 661.719 259.125 662.219 258.25C662.719 257.375 663.073 256.354 663.281 255.188C663.51 254.021 663.625 252.771 663.625 251.438V250.781C663.625 249.469 663.51 248.24 663.281 247.094C663.073 245.927 662.719 244.896 662.219 244C661.719 243.104 661.052 242.406 660.219 241.906C659.406 241.406 658.396 241.156 657.188 241.156C656.021 241.156 655.031 241.406 654.219 241.906C653.406 242.406 652.75 243.104 652.25 244C651.75 244.896 651.385 245.927 651.156 247.094C650.948 248.24 650.844 249.469 650.844 250.781ZM688.344 219.969V268H678.562V219.969H688.344ZM709.812 234.188L695.094 251.188L687.312 259L683.406 252.406L689.719 244.25L698.062 234.188H709.812ZM699.5 268L689.969 252.469L696.969 247L710.688 268H699.5ZM731.156 258.594C731.156 257.969 730.958 257.417 730.562 256.938C730.188 256.458 729.5 256.021 728.5 255.625C727.521 255.229 726.135 254.833 724.344 254.438C722.656 254.083 721.083 253.625 719.625 253.062C718.167 252.479 716.896 251.781 715.812 250.969C714.729 250.135 713.885 249.156 713.281 248.031C712.677 246.885 712.375 245.583 712.375 244.125C712.375 242.708 712.677 241.365 713.281 240.094C713.906 238.823 714.802 237.698 715.969 236.719C717.156 235.74 718.594 234.969 720.281 234.406C721.99 233.844 723.927 233.562 726.094 233.562C729.073 233.562 731.646 234.031 733.812 234.969C735.979 235.885 737.646 237.177 738.812 238.844C739.979 240.49 740.562 242.375 740.562 244.5H730.812C730.812 243.625 730.646 242.865 730.312 242.219C729.979 241.573 729.469 241.073 728.781 240.719C728.094 240.344 727.188 240.156 726.062 240.156C725.188 240.156 724.417 240.312 723.75 240.625C723.104 240.917 722.594 241.323 722.219 241.844C721.865 242.365 721.688 242.969 721.688 243.656C721.688 244.135 721.792 244.573 722 244.969C722.229 245.344 722.573 245.698 723.031 246.031C723.51 246.344 724.125 246.625 724.875 246.875C725.646 247.125 726.583 247.365 727.688 247.594C730.042 248.031 732.188 248.646 734.125 249.438C736.083 250.229 737.646 251.323 738.812 252.719C740 254.115 740.594 255.958 740.594 258.25C740.594 259.75 740.25 261.125 739.562 262.375C738.896 263.625 737.927 264.719 736.656 265.656C735.385 266.594 733.865 267.323 732.094 267.844C730.323 268.365 728.323 268.625 726.094 268.625C722.906 268.625 720.208 268.052 718 266.906C715.792 265.76 714.125 264.323 713 262.594C711.896 260.844 711.344 259.052 711.344 257.219H720.5C720.542 258.344 720.823 259.26 721.344 259.969C721.885 260.677 722.583 261.198 723.438 261.531C724.292 261.844 725.25 262 726.312 262C727.375 262 728.26 261.854 728.969 261.562C729.677 261.271 730.219 260.875 730.594 260.375C730.969 259.854 731.156 259.26 731.156 258.594Z" fill="black"/>
<path d="M64.5075 309.188V343H56.945V309.188H64.5075ZM56.445 300.312C56.445 299.167 56.82 298.219 57.57 297.469C58.3408 296.698 59.4033 296.312 60.7575 296.312C62.0908 296.312 63.1429 296.698 63.9137 297.469C64.6846 298.219 65.07 299.167 65.07 300.312C65.07 301.438 64.6846 302.375 63.9137 303.125C63.1429 303.875 62.0908 304.25 60.7575 304.25C59.4033 304.25 58.3408 303.875 57.57 303.125C56.82 302.375 56.445 301.438 56.445 300.312ZM80.2262 316.406V343H72.695V309.188H79.7887L80.2262 316.406ZM78.8825 324.844L76.445 324.812C76.4658 322.417 76.7992 320.219 77.445 318.219C78.1117 316.219 79.0283 314.5 80.195 313.062C81.3825 311.625 82.7992 310.521 84.445 309.75C86.0908 308.958 87.9242 308.562 89.945 308.562C91.57 308.562 93.0387 308.792 94.3512 309.25C95.6846 309.688 96.82 310.406 97.7575 311.406C98.7158 312.406 99.445 313.708 99.945 315.312C100.445 316.896 100.695 318.844 100.695 321.156V343H93.1325V321.125C93.1325 319.5 92.8929 318.219 92.4137 317.281C91.9554 316.323 91.2783 315.646 90.3825 315.25C89.5075 314.833 88.4137 314.625 87.1012 314.625C85.8096 314.625 84.6533 314.896 83.6325 315.438C82.6117 315.979 81.7471 316.719 81.0387 317.656C80.3512 318.594 79.82 319.677 79.445 320.906C79.07 322.135 78.8825 323.448 78.8825 324.844ZM125.07 297.5H141.164C144.622 297.5 147.57 298.021 150.007 299.062C152.445 300.104 154.31 301.646 155.601 303.688C156.914 305.708 157.57 308.208 157.57 311.188C157.57 313.458 157.153 315.458 156.32 317.188C155.487 318.917 154.31 320.375 152.789 321.562C151.268 322.729 149.455 323.635 147.351 324.281L144.976 325.438H130.507L130.445 319.219H141.289C143.164 319.219 144.726 318.885 145.976 318.219C147.226 317.552 148.164 316.646 148.789 315.5C149.435 314.333 149.757 313.021 149.757 311.562C149.757 309.979 149.445 308.604 148.82 307.438C148.216 306.25 147.278 305.344 146.007 304.719C144.737 304.073 143.122 303.75 141.164 303.75H132.914V343H125.07V297.5ZM151.039 343L140.351 322.562L148.57 322.531L159.414 342.594V343H151.039ZM179.539 343.625C177.039 343.625 174.778 343.219 172.757 342.406C170.757 341.573 169.049 340.417 167.632 338.938C166.237 337.458 165.164 335.719 164.414 333.719C163.664 331.719 163.289 329.562 163.289 327.25V326C163.289 323.354 163.674 320.958 164.445 318.812C165.216 316.667 166.289 314.833 167.664 313.312C169.039 311.771 170.664 310.594 172.539 309.781C174.414 308.969 176.445 308.562 178.632 308.562C181.049 308.562 183.164 308.969 184.976 309.781C186.789 310.594 188.289 311.74 189.476 313.219C190.685 314.677 191.58 316.417 192.164 318.438C192.768 320.458 193.07 322.688 193.07 325.125V328.344H166.945V322.938H185.632V322.344C185.591 320.99 185.32 319.719 184.82 318.531C184.341 317.344 183.601 316.385 182.601 315.656C181.601 314.927 180.268 314.562 178.601 314.562C177.351 314.562 176.237 314.833 175.257 315.375C174.299 315.896 173.497 316.656 172.851 317.656C172.205 318.656 171.705 319.865 171.351 321.281C171.018 322.677 170.851 324.25 170.851 326V327.25C170.851 328.729 171.049 330.104 171.445 331.375C171.862 332.625 172.466 333.719 173.257 334.656C174.049 335.594 175.007 336.333 176.132 336.875C177.257 337.396 178.539 337.656 179.976 337.656C181.789 337.656 183.403 337.292 184.82 336.562C186.237 335.833 187.466 334.802 188.507 333.469L192.476 337.312C191.747 338.375 190.799 339.396 189.632 340.375C188.466 341.333 187.039 342.115 185.351 342.719C183.685 343.323 181.747 343.625 179.539 343.625ZM218.007 336.219V320.094C218.007 318.885 217.789 317.844 217.351 316.969C216.914 316.094 216.247 315.417 215.351 314.938C214.476 314.458 213.372 314.219 212.039 314.219C210.81 314.219 209.747 314.427 208.851 314.844C207.955 315.26 207.257 315.823 206.757 316.531C206.257 317.24 206.007 318.042 206.007 318.938H198.507C198.507 317.604 198.83 316.312 199.476 315.062C200.122 313.812 201.06 312.698 202.289 311.719C203.518 310.74 204.987 309.969 206.695 309.406C208.403 308.844 210.32 308.562 212.445 308.562C214.987 308.562 217.237 308.99 219.195 309.844C221.174 310.698 222.726 311.99 223.851 313.719C224.997 315.427 225.57 317.573 225.57 320.156V335.188C225.57 336.729 225.674 338.115 225.882 339.344C226.112 340.552 226.435 341.604 226.851 342.5V343H219.132C218.778 342.188 218.497 341.156 218.289 339.906C218.101 338.635 218.007 337.406 218.007 336.219ZM219.101 322.438L219.164 327.094H213.757C212.362 327.094 211.132 327.229 210.07 327.5C209.007 327.75 208.122 328.125 207.414 328.625C206.705 329.125 206.174 329.729 205.82 330.438C205.466 331.146 205.289 331.948 205.289 332.844C205.289 333.74 205.497 334.562 205.914 335.312C206.33 336.042 206.935 336.615 207.726 337.031C208.539 337.448 209.518 337.656 210.664 337.656C212.205 337.656 213.549 337.344 214.695 336.719C215.862 336.073 216.778 335.292 217.445 334.375C218.112 333.438 218.466 332.552 218.507 331.719L220.945 335.062C220.695 335.917 220.268 336.833 219.664 337.812C219.06 338.792 218.268 339.729 217.289 340.625C216.33 341.5 215.174 342.219 213.82 342.781C212.487 343.344 210.945 343.625 209.195 343.625C206.987 343.625 205.018 343.188 203.289 342.312C201.56 341.417 200.205 340.219 199.226 338.719C198.247 337.198 197.757 335.479 197.757 333.562C197.757 331.771 198.091 330.188 198.757 328.812C199.445 327.417 200.445 326.25 201.757 325.312C203.091 324.375 204.716 323.667 206.632 323.188C208.549 322.688 210.737 322.438 213.195 322.438H219.101ZM247.257 337.625C248.487 337.625 249.591 337.385 250.57 336.906C251.57 336.406 252.372 335.719 252.976 334.844C253.601 333.969 253.945 332.958 254.007 331.812H261.101C261.06 334 260.414 335.99 259.164 337.781C257.914 339.573 256.257 341 254.195 342.062C252.132 343.104 249.851 343.625 247.351 343.625C244.768 343.625 242.518 343.188 240.601 342.312C238.685 341.417 237.091 340.188 235.82 338.625C234.549 337.062 233.591 335.26 232.945 333.219C232.32 331.177 232.007 328.99 232.007 326.656V325.562C232.007 323.229 232.32 321.042 232.945 319C233.591 316.938 234.549 315.125 235.82 313.562C237.091 312 238.685 310.781 240.601 309.906C242.518 309.01 244.757 308.562 247.32 308.562C250.028 308.562 252.403 309.104 254.445 310.188C256.487 311.25 258.091 312.74 259.257 314.656C260.445 316.552 261.06 318.76 261.101 321.281H254.007C253.945 320.031 253.632 318.906 253.07 317.906C252.528 316.885 251.757 316.073 250.757 315.469C249.778 314.865 248.601 314.562 247.226 314.562C245.705 314.562 244.445 314.875 243.445 315.5C242.445 316.104 241.664 316.938 241.101 318C240.539 319.042 240.132 320.219 239.882 321.531C239.653 322.823 239.539 324.167 239.539 325.562V326.656C239.539 328.052 239.653 329.406 239.882 330.719C240.112 332.031 240.507 333.208 241.07 334.25C241.653 335.271 242.445 336.094 243.445 336.719C244.445 337.323 245.716 337.625 247.257 337.625ZM282.382 309.188V314.688H263.32V309.188H282.382ZM268.82 300.906H276.351V333.656C276.351 334.698 276.497 335.5 276.789 336.062C277.101 336.604 277.528 336.969 278.07 337.156C278.612 337.344 279.247 337.438 279.976 337.438C280.497 337.438 280.997 337.406 281.476 337.344C281.955 337.281 282.341 337.219 282.632 337.156L282.664 342.906C282.039 343.094 281.31 343.26 280.476 343.406C279.664 343.552 278.726 343.625 277.664 343.625C275.935 343.625 274.403 343.323 273.07 342.719C271.737 342.094 270.695 341.083 269.945 339.688C269.195 338.292 268.82 336.438 268.82 334.125V300.906Z" fill="black"/>
<path d="M720 0H790C795.523 0 800 4.47715 800 10V80H720V0Z" fill="#03449D"/>
<path d="M757.461 50.9336V54H742.402V50.9336H757.461ZM743.164 25.5625V54H739.395V25.5625H743.164ZM755.469 37.7891V40.8555H742.402V37.7891H755.469ZM757.266 25.5625V28.6484H742.402V25.5625H757.266ZM764.57 25.5625L771.406 36.4609L778.242 25.5625H782.637L773.652 39.6445L782.852 54H778.418L771.406 42.8867L764.395 54H759.961L769.16 39.6445L760.176 25.5625H764.57Z" fill="#F8F7F2"/>
<defs>
<linearGradient id="paint0_linear_12_32" x1="400" y1="0" x2="400" y2="567.742" gradientUnits="userSpaceOnUse">
<stop stop-color="#C0B020" stop-opacity="0.71"/>
<stop offset="1" stop-color="#E6D53D"/>
</linearGradient>
</defs>
</svg>
