<svg width="127" height="30" viewBox="0 0 127 30" fill="none" xmlns="http://www.w3.org/2000/svg">
<circle cx="15" cy="15" r="14.5" stroke="#F8F7F2"/>
<circle cx="15" cy="15" r="13" fill="#404040"/>
<path d="M9.432 20.248H13.776V22H7.248V6.976H13.608V8.728H9.432V13.36H12.888V15.112H9.432V20.248ZM19.8666 14.32L23.0826 22H20.6826L18.6666 16.288L16.6506 22H14.3226L17.4906 14.32L14.5386 6.976H16.9386L18.6666 12.376L20.4186 6.976H22.7706L19.8666 14.32Z" fill="#F8F7F2"/>
<path d="M38.0397 20.54H41.6597V22H36.2197V9.48H41.5197V10.94H38.0397V14.8H40.9197V16.26H38.0397V20.54ZM45.9552 12.24H46.6552C47.8685 12.24 48.4752 12.8333 48.4752 14.02V22H46.6752V14.28C46.6752 14.04 46.6352 13.8867 46.5552 13.82C46.4752 13.74 46.3152 13.7 46.0752 13.7H45.3752C45.1352 13.7 44.9618 13.7533 44.8552 13.86C44.7618 13.9667 44.7152 14.1467 44.7152 14.4V22H42.9152V12.24H44.7152V13.02C44.8885 12.5 45.3018 12.24 45.9552 12.24ZM53.8598 8.62H55.6598V22H53.8598V21.22C53.6865 21.74 53.2732 22 52.6198 22H51.8998C50.6998 22 50.0998 21.4133 50.0998 20.24V14C50.0998 12.8133 50.6998 12.22 51.8998 12.22H52.6198C53.2732 12.22 53.6865 12.48 53.8598 13V8.62ZM52.4998 20.54H53.1998C53.4398 20.54 53.6065 20.4867 53.6998 20.38C53.8065 20.2733 53.8598 20.0933 53.8598 19.84V14.38C53.8598 14.1267 53.8065 13.9467 53.6998 13.84C53.6065 13.7333 53.4398 13.68 53.1998 13.68H52.4998C52.2598 13.68 52.0998 13.72 52.0198 13.8C51.9398 13.88 51.8998 14.0333 51.8998 14.26V19.96C51.8998 20.2 51.9398 20.36 52.0198 20.44C52.0998 20.5067 52.2598 20.54 52.4998 20.54ZM60.8069 12.22H61.2069V13.78H60.4869C59.6469 13.78 59.2269 14.2733 59.2269 15.26V22H57.4269V12.24H59.2269V13.44C59.3335 13.0933 59.5202 12.8067 59.7869 12.58C60.0669 12.34 60.4069 12.22 60.8069 12.22ZM62.1525 10.38V8.6H64.0325V10.38H62.1525ZM63.9925 22H62.1925V12.24H63.9925V22ZM72.4578 15.6L75.1378 22H73.1378L71.4578 17.24L69.7778 22H67.8378L70.4778 15.6L68.0178 9.48H70.0178L71.4578 13.98L72.9178 9.48H74.8778L72.4578 15.6ZM79.1388 12.24H79.8388C81.0521 12.24 81.6588 12.8333 81.6588 14.02V22H79.8588V14.28C79.8588 14.04 79.8188 13.8867 79.7388 13.82C79.6588 13.74 79.4988 13.7 79.2588 13.7H78.5588C78.3188 13.7 78.1454 13.7533 78.0388 13.86C77.9454 13.9667 77.8988 14.1467 77.8988 14.4V22H76.0988V8.62H77.8988V13.02C78.0721 12.5 78.4854 12.24 79.1388 12.24ZM87.1434 12.24H88.9434V22H87.1434V21.22C86.9701 21.74 86.5568 22 85.9034 22H85.1834C83.9834 22 83.3834 21.4133 83.3834 20.24V12.24H85.1834V19.96C85.1834 20.2 85.2234 20.36 85.3034 20.44C85.3834 20.5067 85.5434 20.54 85.7834 20.54H86.4834C86.7234 20.54 86.8901 20.4867 86.9834 20.38C87.0901 20.2733 87.1434 20.0933 87.1434 19.84V12.24ZM96.9081 12.24L94.6681 16.9L96.9081 22H94.9881L92.8281 16.9L94.9881 12.24H96.9081ZM90.7081 22V8.62H92.5081V22H90.7081ZM99.6766 12.24H101.637C102.89 12.24 103.517 12.8333 103.517 14.02V17.68H99.5766V20C99.5766 20.2267 99.6166 20.38 99.6966 20.46C99.7766 20.54 99.9366 20.58 100.177 20.58H101.097C101.337 20.58 101.497 20.54 101.577 20.46C101.657 20.38 101.697 20.22 101.697 19.98V19.18H103.457V20.24C103.457 21.4133 102.837 22 101.597 22H99.6766C98.4366 22 97.8166 21.4133 97.8166 20.24V14.02C97.8166 12.8333 98.4366 12.24 99.6766 12.24ZM99.5766 16.36H101.737V14.24C101.737 14.0133 101.697 13.86 101.617 13.78C101.55 13.7 101.397 13.66 101.157 13.66H100.177C99.9366 13.66 99.7766 13.7 99.6966 13.78C99.6166 13.86 99.5766 14.0133 99.5766 14.24V16.36ZM106.864 22H105.064V8.62H106.864V22ZM110.418 22H108.618V8.62H110.418V22ZM115.813 12.24H117.613V22H115.813V21.22C115.64 21.74 115.226 22 114.573 22H113.853C112.653 22 112.053 21.4133 112.053 20.24V14.02C112.053 12.8333 112.653 12.24 113.853 12.24H114.573C115.226 12.24 115.64 12.5 115.813 13.02V12.24ZM114.453 20.54H115.153C115.393 20.54 115.56 20.4867 115.653 20.38C115.76 20.2733 115.813 20.0933 115.813 19.84V14.4C115.813 14.1467 115.76 13.9667 115.653 13.86C115.56 13.7533 115.393 13.7 115.153 13.7H114.453C114.213 13.7 114.053 13.74 113.973 13.82C113.893 13.8867 113.853 14.04 113.853 14.28V19.96C113.853 20.2 113.893 20.36 113.973 20.44C114.053 20.5067 114.213 20.54 114.453 20.54ZM122.76 12.22H123.16V13.78H122.44C121.6 13.78 121.18 14.2733 121.18 15.26V22H119.38V12.24H121.18V13.44C121.287 13.0933 121.473 12.8067 121.74 12.58C122.02 12.34 122.36 12.22 122.76 12.22ZM124.106 10.38V8.6H125.986V10.38H124.106ZM125.946 22H124.146V12.24H125.946V22Z" fill="#F8F7F2"/>
</svg>
