<svg width="160" height="33" viewBox="0 0 160 33" fill="none" xmlns="http://www.w3.org/2000/svg">
<rect width="160" height="33" fill="#03449D"/>
<path d="M22.0078 21.4668V23H14.4785V21.4668H22.0078ZM14.8594 8.78125V23H12.9746V8.78125H14.8594ZM21.0117 14.8945V16.4277H14.4785V14.8945H21.0117ZM21.9102 8.78125V10.3242H14.4785V8.78125H21.9102ZM25.875 14.6895V23H24.0684V12.4336H25.7773L25.875 14.6895ZM25.4453 17.3164L24.6934 17.2871C24.6999 16.5645 24.8073 15.8971 25.0156 15.2852C25.224 14.6667 25.5169 14.1296 25.8945 13.6738C26.2721 13.2181 26.7214 12.8665 27.2422 12.6191C27.7695 12.3652 28.3522 12.2383 28.9902 12.2383C29.5111 12.2383 29.9798 12.3099 30.3965 12.4531C30.8132 12.5898 31.168 12.8112 31.4609 13.1172C31.7604 13.4232 31.9883 13.8203 32.1445 14.3086C32.3008 14.7904 32.3789 15.3796 32.3789 16.0762V23H30.5625V16.0566C30.5625 15.5033 30.4811 15.0605 30.3184 14.7285C30.1556 14.39 29.918 14.1458 29.6055 13.9961C29.293 13.8398 28.9089 13.7617 28.4531 13.7617C28.0039 13.7617 27.5938 13.8561 27.2227 14.0449C26.8581 14.2337 26.5423 14.4941 26.2754 14.8262C26.015 15.1582 25.8099 15.5391 25.6602 15.9688C25.5169 16.3919 25.4453 16.8411 25.4453 17.3164ZM41.7832 20.9492V8H43.5996V23H41.9395L41.7832 20.9492ZM34.6738 17.834V17.6289C34.6738 16.8216 34.7715 16.0892 34.9668 15.4316C35.1686 14.7676 35.4518 14.1979 35.8164 13.7227C36.1875 13.2474 36.627 12.8828 37.1348 12.6289C37.6491 12.3685 38.222 12.2383 38.8535 12.2383C39.5176 12.2383 40.097 12.3555 40.5918 12.5898C41.0931 12.8177 41.5163 13.153 41.8613 13.5957C42.2129 14.0319 42.4896 14.5592 42.6914 15.1777C42.8932 15.7962 43.0332 16.4961 43.1113 17.2773V18.1758C43.0397 18.9505 42.8997 19.6471 42.6914 20.2656C42.4896 20.8841 42.2129 21.4115 41.8613 21.8477C41.5163 22.2839 41.0931 22.6191 40.5918 22.8535C40.0905 23.0814 39.5046 23.1953 38.834 23.1953C38.2155 23.1953 37.6491 23.0618 37.1348 22.7949C36.627 22.528 36.1875 22.1536 35.8164 21.6719C35.4518 21.1901 35.1686 20.6237 34.9668 19.9727C34.7715 19.3151 34.6738 18.6022 34.6738 17.834ZM36.4902 17.6289V17.834C36.4902 18.3613 36.5423 18.8561 36.6465 19.3184C36.7572 19.7806 36.9264 20.1875 37.1543 20.5391C37.3822 20.8906 37.6719 21.1673 38.0234 21.3691C38.375 21.5645 38.7949 21.6621 39.2832 21.6621C39.8822 21.6621 40.3737 21.5352 40.7578 21.2812C41.1484 21.0273 41.4609 20.6921 41.6953 20.2754C41.9297 19.8587 42.112 19.4062 42.2422 18.918V16.5645C42.1641 16.2064 42.0501 15.8613 41.9004 15.5293C41.7572 15.1908 41.5684 14.8913 41.334 14.6309C41.1061 14.3639 40.8229 14.1523 40.4844 13.9961C40.1523 13.8398 39.7585 13.7617 39.3027 13.7617C38.8079 13.7617 38.3815 13.8659 38.0234 14.0742C37.6719 14.276 37.3822 14.556 37.1543 14.9141C36.9264 15.2656 36.7572 15.6758 36.6465 16.1445C36.5423 16.6068 36.4902 17.1016 36.4902 17.6289ZM48.2188 14.0938V23H46.4121V12.4336H48.1699L48.2188 14.0938ZM51.5195 12.375L51.5098 14.0547C51.36 14.0221 51.2168 14.0026 51.0801 13.9961C50.9499 13.9831 50.8001 13.9766 50.6309 13.9766C50.2142 13.9766 49.8464 14.0417 49.5273 14.1719C49.2083 14.3021 48.9382 14.4844 48.7168 14.7188C48.4954 14.9531 48.3197 15.2331 48.1895 15.5586C48.0658 15.8776 47.9844 16.2292 47.9453 16.6133L47.4375 16.9062C47.4375 16.2682 47.4993 15.6693 47.623 15.1094C47.7533 14.5495 47.9518 14.0547 48.2188 13.625C48.4857 13.1888 48.8242 12.8503 49.2344 12.6094C49.651 12.362 50.1458 12.2383 50.7188 12.2383C50.849 12.2383 50.9987 12.2546 51.168 12.2871C51.3372 12.3132 51.4544 12.3424 51.5195 12.375ZM55.1523 12.4336V23H53.3359V12.4336H55.1523ZM53.1992 9.63086C53.1992 9.33789 53.2871 9.09049 53.4629 8.88867C53.6452 8.68685 53.9121 8.58594 54.2637 8.58594C54.6087 8.58594 54.8724 8.68685 55.0547 8.88867C55.2435 9.09049 55.3379 9.33789 55.3379 9.63086C55.3379 9.91081 55.2435 10.1517 55.0547 10.3535C54.8724 10.5488 54.6087 10.6465 54.2637 10.6465C53.9121 10.6465 53.6452 10.5488 53.4629 10.3535C53.2871 10.1517 53.1992 9.91081 53.1992 9.63086Z" fill="#F8F7F2"/>
<path d="M63.8711 8.78125L67.2891 14.2305L70.707 8.78125H72.9043L68.4121 15.8223L73.0117 23H70.7949L67.2891 17.4434L63.7832 23H61.5664L66.166 15.8223L61.6738 8.78125H63.8711ZM76.7227 8V23H74.916V8H76.7227ZM76.293 17.3164L75.541 17.2871C75.5475 16.5645 75.6549 15.8971 75.8633 15.2852C76.0716 14.6667 76.3646 14.1296 76.7422 13.6738C77.1198 13.2181 77.569 12.8665 78.0898 12.6191C78.6172 12.3652 79.1999 12.2383 79.8379 12.2383C80.3587 12.2383 80.8275 12.3099 81.2441 12.4531C81.6608 12.5898 82.0156 12.8112 82.3086 13.1172C82.6081 13.4232 82.8359 13.8203 82.9922 14.3086C83.1484 14.7904 83.2266 15.3796 83.2266 16.0762V23H81.4102V16.0566C81.4102 15.5033 81.3288 15.0605 81.166 14.7285C81.0033 14.39 80.7656 14.1458 80.4531 13.9961C80.1406 13.8398 79.7565 13.7617 79.3008 13.7617C78.8516 13.7617 78.4414 13.8561 78.0703 14.0449C77.7057 14.2337 77.39 14.4941 77.123 14.8262C76.8626 15.1582 76.6576 15.5391 76.5078 15.9688C76.3646 16.3919 76.293 16.8411 76.293 17.3164ZM92.3965 20.5586V12.4336H94.2129V23H92.4844L92.3965 20.5586ZM92.7383 18.332L93.4902 18.3125C93.4902 19.0156 93.4154 19.6667 93.2656 20.2656C93.1224 20.8581 92.888 21.3724 92.5625 21.8086C92.237 22.2448 91.8105 22.5866 91.2832 22.834C90.7559 23.0749 90.1146 23.1953 89.3594 23.1953C88.8451 23.1953 88.373 23.1204 87.9434 22.9707C87.5202 22.821 87.1556 22.5898 86.8496 22.2773C86.5436 21.9648 86.306 21.5579 86.1367 21.0566C85.974 20.5553 85.8926 19.9531 85.8926 19.25V12.4336H87.6992V19.2695C87.6992 19.7448 87.7513 20.1387 87.8555 20.4512C87.9661 20.7572 88.1126 21.0013 88.2949 21.1836C88.4837 21.3594 88.6921 21.4831 88.9199 21.5547C89.1543 21.6263 89.3952 21.6621 89.6426 21.6621C90.4108 21.6621 91.0195 21.5156 91.4688 21.2227C91.918 20.9232 92.2402 20.5228 92.4355 20.0215C92.6374 19.5137 92.7383 18.9505 92.7383 18.332ZM98.7832 8V23H96.9668V8H98.7832ZM105.238 12.4336L100.629 17.3652L98.0508 20.041L97.9043 18.1172L99.75 15.9102L103.031 12.4336H105.238ZM103.588 23L99.8184 17.9609L100.756 16.3496L105.717 23H103.588ZM111.293 23.1953C110.557 23.1953 109.89 23.0716 109.291 22.8242C108.699 22.5703 108.188 22.2155 107.758 21.7598C107.335 21.304 107.009 20.7637 106.781 20.1387C106.553 19.5137 106.439 18.8301 106.439 18.0879V17.6777C106.439 16.8184 106.566 16.0534 106.82 15.3828C107.074 14.7057 107.419 14.1328 107.855 13.6641C108.292 13.1953 108.786 12.8405 109.34 12.5996C109.893 12.3587 110.466 12.2383 111.059 12.2383C111.814 12.2383 112.465 12.3685 113.012 12.6289C113.565 12.8893 114.018 13.2539 114.369 13.7227C114.721 14.1849 114.981 14.7318 115.15 15.3633C115.32 15.9883 115.404 16.6719 115.404 17.4141V18.2246H107.514V16.75H113.598V16.6133C113.572 16.1445 113.474 15.6888 113.305 15.2461C113.142 14.8034 112.882 14.4388 112.523 14.1523C112.165 13.8659 111.677 13.7227 111.059 13.7227C110.648 13.7227 110.271 13.8105 109.926 13.9863C109.581 14.1556 109.285 14.4095 109.037 14.748C108.79 15.0866 108.598 15.5 108.461 15.9883C108.324 16.4766 108.256 17.0397 108.256 17.6777V18.0879C108.256 18.5892 108.324 19.0612 108.461 19.5039C108.604 19.9401 108.809 20.3242 109.076 20.6562C109.35 20.9883 109.678 21.2487 110.062 21.4375C110.453 21.6263 110.896 21.7207 111.391 21.7207C112.029 21.7207 112.569 21.5905 113.012 21.3301C113.454 21.0697 113.842 20.7214 114.174 20.2852L115.268 21.1543C115.04 21.4993 114.75 21.8281 114.398 22.1406C114.047 22.4531 113.614 22.707 113.1 22.9023C112.592 23.0977 111.99 23.1953 111.293 23.1953ZM119.477 8V23H117.66V8H119.477ZM124.34 8V23H122.523V8H124.34ZM133.471 21.1934V15.7539C133.471 15.3372 133.386 14.9759 133.217 14.6699C133.054 14.3574 132.807 14.1165 132.475 13.9473C132.143 13.778 131.732 13.6934 131.244 13.6934C130.788 13.6934 130.388 13.7715 130.043 13.9277C129.704 14.084 129.438 14.2891 129.242 14.543C129.053 14.7969 128.959 15.0703 128.959 15.3633H127.152C127.152 14.9857 127.25 14.6113 127.445 14.2402C127.641 13.8691 127.921 13.5339 128.285 13.2344C128.656 12.9284 129.099 12.6875 129.613 12.5117C130.134 12.3294 130.714 12.2383 131.352 12.2383C132.12 12.2383 132.797 12.3685 133.383 12.6289C133.975 12.8893 134.438 13.2832 134.77 13.8105C135.108 14.3314 135.277 14.9857 135.277 15.7734V20.6953C135.277 21.0469 135.307 21.4212 135.365 21.8184C135.43 22.2155 135.525 22.5573 135.648 22.8438V23H133.764C133.673 22.7917 133.601 22.515 133.549 22.1699C133.497 21.8184 133.471 21.4928 133.471 21.1934ZM133.783 16.5938L133.803 17.8633H131.977C131.462 17.8633 131.003 17.9056 130.6 17.9902C130.196 18.0684 129.857 18.1888 129.584 18.3516C129.311 18.5143 129.102 18.7194 128.959 18.9668C128.816 19.2077 128.744 19.4909 128.744 19.8164C128.744 20.1484 128.819 20.4512 128.969 20.7246C129.118 20.998 129.343 21.2161 129.643 21.3789C129.949 21.5352 130.323 21.6133 130.766 21.6133C131.319 21.6133 131.807 21.4961 132.23 21.2617C132.654 21.0273 132.989 20.7409 133.236 20.4023C133.49 20.0638 133.627 19.735 133.646 19.416L134.418 20.2852C134.372 20.5586 134.249 20.8613 134.047 21.1934C133.845 21.5254 133.575 21.8444 133.236 22.1504C132.904 22.4499 132.507 22.7005 132.045 22.9023C131.589 23.0977 131.075 23.1953 130.502 23.1953C129.786 23.1953 129.158 23.0553 128.617 22.7754C128.083 22.4954 127.667 22.1211 127.367 21.6523C127.074 21.1771 126.928 20.6465 126.928 20.0605C126.928 19.4941 127.038 18.9961 127.26 18.5664C127.481 18.1302 127.8 17.7689 128.217 17.4824C128.633 17.1895 129.135 16.9681 129.721 16.8184C130.307 16.6686 130.961 16.5938 131.684 16.5938H133.783ZM139.926 14.0938V23H138.119V12.4336H139.877L139.926 14.0938ZM143.227 12.375L143.217 14.0547C143.067 14.0221 142.924 14.0026 142.787 13.9961C142.657 13.9831 142.507 13.9766 142.338 13.9766C141.921 13.9766 141.553 14.0417 141.234 14.1719C140.915 14.3021 140.645 14.4844 140.424 14.7188C140.202 14.9531 140.027 15.2331 139.896 15.5586C139.773 15.8776 139.691 16.2292 139.652 16.6133L139.145 16.9062C139.145 16.2682 139.206 15.6693 139.33 15.1094C139.46 14.5495 139.659 14.0547 139.926 13.625C140.193 13.1888 140.531 12.8503 140.941 12.6094C141.358 12.362 141.853 12.2383 142.426 12.2383C142.556 12.2383 142.706 12.2546 142.875 12.2871C143.044 12.3132 143.161 12.3424 143.227 12.375ZM146.859 12.4336V23H145.043V12.4336H146.859ZM144.906 9.63086C144.906 9.33789 144.994 9.09049 145.17 8.88867C145.352 8.68685 145.619 8.58594 145.971 8.58594C146.316 8.58594 146.579 8.68685 146.762 8.88867C146.951 9.09049 147.045 9.33789 147.045 9.63086C147.045 9.91081 146.951 10.1517 146.762 10.3535C146.579 10.5488 146.316 10.6465 145.971 10.6465C145.619 10.6465 145.352 10.5488 145.17 10.3535C144.994 10.1517 144.906 9.91081 144.906 9.63086Z" fill="#F8F7F2"/>
</svg>
