<svg width="146" height="30" viewBox="0 0 146 30" fill="none" xmlns="http://www.w3.org/2000/svg">
<circle cx="15" cy="15" r="14.5" stroke="#404040"/>
<circle cx="15" cy="15" r="12.5" fill="#404040" stroke="#404040"/>
<path d="M10.28 19.24H14.12V21H7.96V8.38H13.96V10.14H10.28V13.64H13.38V15.42H10.28V19.24ZM19.8605 14.56L22.7405 21H20.1805L18.6005 16.58L17.0005 21H14.5405L17.3205 14.56L14.6805 8.38H17.2605L18.6005 12.54L19.9405 8.38H22.4205L19.8605 14.56Z" fill="#F8F7F2"/>
<path d="M38.1034 18.75H42.0454V21H34.9534V9.444H41.8834V11.694H38.1034V14.052H41.3614V16.302H38.1034V18.75ZM47.6833 12.018H48.0073C49.6033 12.018 50.4013 12.762 50.4013 14.25V21H47.3413V14.664C47.3413 14.4 47.1913 14.268 46.8913 14.268H46.5853C46.2613 14.268 46.0993 14.448 46.0993 14.808V21H43.0393V12.018H46.0453V13.17C46.2133 12.402 46.7593 12.018 47.6833 12.018ZM55.8801 8.958H58.9401V21H55.9341V19.848C55.7661 20.616 55.2201 21 54.2961 21H53.9721C52.3761 21 51.5781 20.256 51.5781 18.768V14.25C51.5781 12.762 52.3761 12.018 53.9721 12.018H54.2961C55.1241 12.018 55.6521 12.342 55.8801 12.99V8.958ZM55.0881 18.75H55.3941C55.7181 18.75 55.8801 18.57 55.8801 18.21V14.808C55.8801 14.448 55.7181 14.268 55.3941 14.268H55.0881C54.7881 14.268 54.6381 14.4 54.6381 14.664V18.354C54.6381 18.618 54.7881 18.75 55.0881 18.75ZM65.3214 11.928H65.5914V14.592H64.5654C63.8094 14.592 63.4314 15 63.4314 15.816V21H60.3714V12.018H63.3774V13.404C63.4734 12.948 63.6894 12.588 64.0254 12.324C64.3614 12.06 64.7934 11.928 65.3214 11.928ZM66.3467 11.118V8.958H69.5147V11.118H66.3467ZM69.4607 21H66.4007V12.018H69.4607V21ZM80.1562 15.132L83.1622 21H79.6162L78.3742 17.76L77.1322 21H73.7842L76.6102 15.132L73.8562 9.444H77.4202L78.3742 12.396L79.3462 9.444H82.7302L80.1562 15.132ZM88.5349 12.018H88.8589C90.4549 12.018 91.2529 12.762 91.2529 14.25V21H88.1929V14.664C88.1929 14.4 88.0429 14.268 87.7429 14.268H87.4369C87.1129 14.268 86.9509 14.448 86.9509 14.808V21H83.8909V8.958H86.9509V12.99C87.1789 12.342 87.7069 12.018 88.5349 12.018ZM96.8216 12.018H99.8816V21H96.8756V19.848C96.7076 20.616 96.1616 21 95.2376 21H94.9136C93.3176 21 92.5196 20.256 92.5196 18.768V12.018H95.5796V18.354C95.5796 18.618 95.7296 18.75 96.0296 18.75H96.3356C96.6596 18.75 96.8216 18.57 96.8216 18.21V12.018ZM104.388 21H101.328V8.958H104.388V16.104L106.08 12.018H109.248L107.322 16.446L109.248 21H106.062L104.388 16.806V21ZM112.337 12.018H114.533C116.297 12.018 117.179 12.762 117.179 14.25V17.31H112.589V18.498C112.589 18.762 112.739 18.894 113.039 18.894H113.831C114.131 18.894 114.281 18.75 114.281 18.462V17.958H117.179V18.768C117.179 20.256 116.297 21 114.533 21H112.337C110.573 21 109.691 20.256 109.691 18.768V14.25C109.691 12.762 110.573 12.018 112.337 12.018ZM112.589 15.654H114.281V14.52C114.281 14.256 114.131 14.124 113.831 14.124H113.039C112.739 14.124 112.589 14.256 112.589 14.52V15.654ZM121.404 21H118.344V8.958H121.404V21ZM125.904 21H122.844V8.958H125.904V21ZM131.52 12.018H134.526V21H131.466V20.028C131.238 20.676 130.71 21 129.882 21H129.558C127.962 21 127.164 20.256 127.164 18.768V14.25C127.164 12.762 127.962 12.018 129.558 12.018H129.882C130.806 12.018 131.352 12.402 131.52 13.17V12.018ZM130.674 18.75H130.98C131.304 18.75 131.466 18.57 131.466 18.21V14.808C131.466 14.448 131.304 14.268 130.98 14.268H130.674C130.374 14.268 130.224 14.4 130.224 14.664V18.354C130.224 18.618 130.374 18.75 130.674 18.75ZM140.907 11.928H141.177V14.592H140.151C139.395 14.592 139.017 15 139.017 15.816V21H135.957V12.018H138.963V13.404C139.059 12.948 139.275 12.588 139.611 12.324C139.947 12.06 140.379 11.928 140.907 11.928ZM141.933 11.118V8.958H145.101V11.118H141.933ZM145.047 21H141.987V12.018H145.047V21Z" fill="#404040"/>
</svg>
