<?xml version="1.0" standalone="no"?>
<!DOCTYPE svg PUBLIC "-//W3C//DTD SVG 20010904//EN"
 "http://www.w3.org/TR/2001/REC-SVG-20010904/DTD/svg10.dtd">
<svg version="1.0" xmlns="http://www.w3.org/2000/svg"
 width="1920.000000pt" height="1973.000000pt" viewBox="0 0 1920.000000 1973.000000"
 preserveAspectRatio="xMidYMid meet">

<g transform="translate(0.000000,1973.000000) scale(0.100000,-0.100000)"
fill="#000000" stroke="none">
<path d="M0 9865 l0 -9865 9600 0 9600 0 0 9865 0 9865 -9600 0 -9600 0 0
-9865z m9973 7913 c42 0 77 -3 77 -8 0 -5 14 -17 31 -26 29 -14 33 -14 47 0
14 14 19 12 49 -21 21 -25 35 -52 39 -80 4 -26 13 -47 24 -53 18 -10 34 -43
45 -95 3 -16 15 -37 26 -46 11 -8 22 -26 23 -40 6 -43 18 -79 27 -79 5 0 9
-18 9 -39 0 -31 -6 -43 -27 -59 -26 -19 -27 -22 -12 -39 31 -36 42 -83 42
-188 0 -88 -4 -109 -18 -126 -15 -16 -24 -52 -25 -104 0 -16 28 -167 35 -192
4 -13 14 -23 21 -23 8 0 14 -6 14 -12 0 -27 -70 -118 -90 -118 -6 0 -10 -7
-10 -15 0 -8 -6 -15 -14 -15 -7 0 -16 -13 -19 -30 -5 -20 -12 -30 -25 -30 -10
0 -23 -5 -28 -10 -10 -10 -57 -21 -154 -37 -19 -3 -51 -16 -70 -29 -20 -13
-50 -26 -68 -28 -18 -2 -34 -5 -36 -7 -2 -2 -15 -23 -29 -45 -35 -56 -89 -89
-149 -89 l-46 0 -7 -44 c-5 -36 -16 -226 -16 -291 -1 -89 18 -200 51 -304 22
-67 42 -134 46 -151 11 -46 43 -106 80 -148 19 -20 34 -47 34 -60 0 -12 6 -31
14 -42 8 -11 17 -58 21 -105 6 -74 4 -91 -15 -132 -11 -27 -27 -48 -34 -48 -8
0 -16 -7 -20 -15 -3 -9 -19 -15 -41 -15 -19 0 -35 -3 -35 -8 0 -7 -19 -18 -87
-51 -19 -10 -28 -6 -65 29 -26 24 -57 42 -78 46 -19 3 -59 10 -87 16 -77 16
-153 -2 -192 -47 -17 -20 -40 -35 -58 -37 -28 -3 -27 -3 18 -30 56 -34 72 -35
92 -4 14 21 25 24 104 28 100 6 183 -8 183 -30 0 -9 7 -13 20 -9 11 3 18 1 15
-3 -3 -5 -1 -11 3 -14 5 -3 7 -17 4 -31 -5 -30 13 -55 39 -55 11 0 19 -7 19
-15 0 -8 5 -15 10 -15 15 0 12 -26 -5 -40 -12 -10 -24 -11 -48 -3 -18 5 -39 7
-47 3 -8 -4 -35 -17 -58 -29 -48 -23 -77 -27 -87 -11 -3 6 -7 28 -7 50 0 46
-11 51 -34 15 -16 -25 -16 -26 16 -55 l34 -30 -22 -20 c-16 -15 -22 -33 -22
-60 0 -22 5 -40 10 -40 6 0 24 16 41 35 18 20 40 35 53 35 17 0 18 -2 6 -10
-34 -21 -17 -119 18 -104 9 3 27 6 38 6 25 -2 49 22 39 38 -4 6 -8 31 -9 56
-1 24 1 40 4 33 5 -7 9 -6 13 4 4 11 18 13 53 11 26 -2 52 -8 57 -13 11 -11
-1 -34 -14 -26 -5 4 -9 0 -9 -9 0 -8 6 -16 13 -19 9 -3 9 -9 0 -25 -14 -24 -8
-52 12 -52 14 0 43 30 29 30 -12 0 19 20 31 20 6 0 3 -5 -5 -10 -9 -6 -11 -10
-3 -10 7 0 10 -7 7 -15 -4 -8 -1 -21 4 -28 15 -18 3 -32 -59 -73 -44 -28 -60
-34 -84 -28 -37 8 -209 10 -250 3 -65 -12 -125 -34 -256 -90 -136 -59 -189
-70 -230 -49 -24 14 -24 31 1 60 11 13 20 28 20 34 0 6 11 32 25 58 30 57 31
62 5 88 -22 22 -40 19 -40 -6 0 -16 -16 -19 -25 -4 -3 5 -12 7 -20 3 -9 -3
-22 0 -30 7 -12 10 -18 10 -30 0 -8 -7 -15 -17 -15 -22 0 -6 -11 -19 -24 -29
-13 -10 -26 -28 -29 -39 -4 -17 -2 -18 14 -9 11 5 19 6 19 0 0 -13 -30 -22
-51 -16 -11 4 -19 2 -19 -4 0 -6 -7 -11 -15 -11 -17 0 -17 1 -16 -108 0 -64
-3 -84 -14 -88 -25 -10 -19 -75 10 -114 33 -45 33 -81 -1 -101 -17 -10 -22
-19 -15 -23 13 -8 74 51 66 65 -8 12 37 29 76 29 23 0 40 11 69 41 l37 40 84
-25 c115 -34 216 -48 243 -34 44 24 179 1 197 -34 5 -10 7 -18 4 -18 -4 0 0
-7 9 -15 8 -9 32 -17 53 -19 68 -7 103 -18 103 -32 0 -8 10 -14 23 -15 16 -1
12 -4 -13 -11 -19 -5 -51 -27 -72 -48 -20 -21 -45 -41 -57 -45 -11 -3 -20 -11
-18 -17 1 -6 -9 -14 -22 -17 -31 -8 -40 -31 -12 -31 16 0 21 -6 21 -29 0 -23
5 -30 28 -34 18 -4 31 -1 40 11 11 14 12 14 12 -6 0 -12 -12 -32 -27 -46 -22
-21 -24 -27 -14 -40 8 -10 22 -14 35 -10 12 3 35 -2 51 -10 17 -9 45 -16 63
-16 28 0 33 -4 38 -28 3 -16 19 -36 40 -50 19 -12 34 -30 34 -40 0 -10 11 -25
25 -32 30 -16 32 -30 4 -37 -16 -5 -19 -11 -14 -27 11 -31 11 -99 1 -114 -6
-8 -4 -17 7 -25 20 -16 28 -87 9 -79 -38 14 -123 154 -102 167 5 3 7 12 4 20
-4 8 -10 12 -16 9 -5 -3 -7 -12 -4 -20 8 -22 -11 -26 -26 -6 -7 10 -21 19 -31
19 -17 0 -18 -6 -12 -45 l7 -45 -27 17 c-20 13 -30 15 -38 7 -6 -6 -19 -11
-29 -11 -10 0 -24 -12 -30 -26 -10 -21 -16 -24 -37 -19 -34 9 -52 24 -66 59
-12 28 -12 29 -31 9 -11 -11 -23 -28 -29 -37 -15 -26 -45 -10 -45 24 0 20 -6
29 -21 33 -14 4 -20 11 -16 21 7 17 -7 30 -42 41 -17 5 -21 4 -16 -5 6 -9 -1
-10 -24 -5 -23 5 -31 3 -31 -7 0 -17 -59 -70 -71 -63 -11 7 -49 -26 -49 -42 0
-17 -19 -17 -26 0 -3 8 -18 14 -35 14 -60 0 -63 48 -3 59 43 8 50 18 59 82 8
57 2 62 -36 35 -13 -10 -41 -27 -61 -37 -21 -11 -38 -23 -38 -28 0 -4 -5 -8
-11 -8 -6 0 -8 7 -5 15 3 8 9 22 13 32 5 13 2 15 -15 11 -19 -5 -20 -4 -11 14
6 10 17 22 25 25 21 8 17 18 -12 33 -19 10 -24 20 -21 37 3 18 1 21 -13 13 -9
-5 -29 -25 -44 -45 -31 -40 -46 -44 -53 -15 -3 11 -12 20 -19 20 -8 0 -14 5
-14 10 0 6 6 10 14 10 28 0 105 51 99 66 -3 8 -9 14 -14 14 -5 0 -9 11 -9 25
0 34 -28 32 -36 -2 -11 -44 -38 -57 -49 -23 -9 28 -25 25 -69 -16 -42 -39 -43
-50 -2 -34 39 14 49 13 41 -7 -4 -10 -8 -29 -9 -43 -1 -20 -7 -26 -29 -28 -15
-2 -32 -12 -38 -23 -7 -13 -17 -18 -28 -14 -10 3 -24 -1 -31 -10 -17 -20 -30
-19 -30 3 0 22 -39 27 -47 6 -3 -8 -11 -14 -17 -14 -19 0 -106 85 -106 104 0
20 -33 21 -50 1 -16 -19 -34 -20 -27 -1 7 18 -26 90 -36 80 -4 -4 -7 -20 -7
-36 0 -15 -3 -28 -7 -28 -18 0 -67 77 -74 117 -5 24 -16 51 -25 60 -15 16 -16
15 -9 -15 14 -67 -26 -98 -60 -46 -11 18 -20 23 -24 15 -6 -8 -17 -8 -43 3
-34 15 -36 14 -41 -6 -5 -18 -8 -19 -21 -8 -13 10 -16 10 -16 -4 0 -9 -2 -16
-5 -16 -10 0 -55 49 -55 60 0 22 -82 171 -103 185 -12 8 -26 32 -32 52 -12 43
-40 55 -50 22 -6 -17 -9 -19 -16 -8 -5 8 -9 27 -9 42 0 19 -12 40 -40 67 -22
22 -40 47 -40 57 0 10 -7 32 -16 48 -9 17 -20 55 -24 85 -4 30 -11 69 -15 85
l-8 30 25 -22 c13 -13 28 -23 31 -23 13 0 -5 104 -20 119 -8 8 -12 23 -9 35 3
12 1 28 -4 36 -6 9 -11 -6 -16 -48 -6 -60 -24 -87 -24 -38 0 27 -26 42 -45 26
-9 -8 -15 -7 -18 2 -4 10 -10 8 -22 -7 -14 -17 -17 -18 -25 -5 -5 8 -10 20
-10 26 0 14 -28 26 -41 18 -5 -3 -9 19 -9 48 0 30 -5 59 -12 66 -8 8 -8 15 0
24 7 9 7 19 2 28 -6 8 -10 39 -10 68 0 29 -6 65 -14 80 -7 15 -14 47 -15 70
-1 51 -8 65 -26 58 -15 -5 -20 7 -30 70 -5 30 -2 44 9 54 9 7 16 27 15 44 0
17 -3 25 -6 19 -9 -25 -26 -13 -20 15 3 16 0 35 -9 46 -18 25 -18 46 -1 46 30
0 37 22 16 51 -15 21 -18 37 -13 67 5 32 2 46 -17 71 -12 17 -29 31 -36 31 -7
0 -13 5 -13 11 0 6 7 8 15 5 24 -9 30 21 15 78 -23 88 -13 169 30 248 6 10 10
38 10 63 0 25 7 59 15 75 17 32 37 256 25 280 -4 8 -5 38 -2 65 2 28 5 76 5
108 1 31 4 57 9 57 8 0 58 100 58 118 0 5 11 32 25 59 30 59 47 102 50 125 1
10 9 26 19 37 13 15 17 35 16 88 -2 91 3 115 26 127 29 17 43 38 44 66 0 19 2
22 10 10 8 -13 9 -13 14 0 12 40 36 164 31 168 -3 3 -5 -2 -5 -11 0 -10 -8
-17 -20 -17 -17 0 -19 3 -11 19 6 10 14 43 17 73 4 29 10 55 15 56 5 2 9 15 9
28 0 13 5 24 12 24 6 0 1 8 -10 19 -22 18 -32 68 -12 56 6 -3 10 1 10 9 0 9
-6 13 -14 10 -10 -4 -15 10 -19 55 -10 89 17 201 46 201 5 0 7 7 3 15 -3 9 0
15 8 15 7 0 19 7 26 15 7 8 16 12 21 9 5 -3 9 -1 9 5 0 5 17 15 38 21 20 7 62
27 92 45 30 18 75 38 99 45 24 6 51 16 60 21 14 7 65 15 244 35 32 4 53 2 64
-8 18 -15 244 -21 718 -18 83 1 190 8 239 15 49 8 92 12 95 10 2 -3 -1 -5 -7
-5 -7 0 -12 -7 -12 -15 0 -16 19 -15 81 5 14 4 33 4 43 -2 17 -9 17 -11 0 -29
-9 -10 -24 -19 -33 -19 -14 -1 -13 -2 2 -11 9 -5 17 -17 17 -25 0 -9 7 -14 18
-12 11 2 17 -3 16 -14 -3 -28 19 -21 58 16 19 19 50 42 69 51 19 10 43 25 54
35 33 28 107 53 153 51 36 -2 43 1 40 16 -2 12 2 17 13 15 9 -1 19 6 22 17 4
17 9 18 58 8 30 -5 89 -9 132 -9z m-2563 -922 c0 -18 -5 -23 -25 -23 -30 0
-30 1 -7 26 23 26 32 25 32 -3z m-70 -300 c0 -28 -24 -53 -35 -36 -8 13 13 60
27 60 4 0 8 -11 8 -24z m-789 -558 c18 -4 87 -52 127 -89 9 -8 34 -23 54 -32
20 -10 40 -27 43 -38 4 -12 40 -53 81 -92 40 -39 77 -80 80 -91 4 -12 12 -28
19 -36 11 -14 18 -36 45 -140 5 -19 12 -136 15 -260 4 -154 11 -241 21 -277 8
-29 13 -71 11 -93 -2 -23 2 -72 9 -109 7 -36 21 -113 32 -171 11 -58 24 -120
28 -139 6 -31 5 -33 -14 -27 -12 4 -56 -2 -99 -13 -113 -29 -141 -32 -187 -14
-58 22 -110 76 -162 165 -24 42 -44 79 -44 82 0 3 -21 36 -46 73 -84 122 -127
232 -144 368 -5 33 -14 85 -20 115 -7 30 -16 75 -21 100 -5 25 -21 81 -35 126
-24 78 -25 85 -16 218 7 98 14 141 23 147 10 6 17 2 23 -16 6 -14 13 -25 18
-25 4 0 8 -12 9 -27 0 -21 6 -13 25 36 27 71 49 94 100 111 42 14 43 25 2 50
-23 15 -47 20 -78 18 -40 -3 -45 0 -48 19 -8 54 58 81 149 61z m-151 -97 c0
-5 -9 -19 -20 -32 l-19 -24 -1 33 c0 25 4 32 20 32 11 0 20 -4 20 -9z m3766
-46 c8 -20 -13 -45 -32 -38 -8 3 -14 16 -14 29 0 17 6 24 20 24 11 0 23 -7 26
-15z m240 -1320 c24 -24 18 -163 -9 -192 -24 -27 -37 -29 -37 -8 0 9 -9 15
-21 15 -15 0 -19 5 -15 16 3 8 2 13 -2 10 -11 -7 -58 131 -48 141 8 8 80 30
104 32 7 1 20 -6 28 -14z m-829 -171 c-3 -3 -12 -4 -19 -1 -8 3 -5 6 6 6 11 1
17 -2 13 -5z m-91 -360 c37 -18 43 -43 23 -88 -14 -29 -43 -36 -150 -36 -64 0
-79 3 -79 15 0 8 5 15 10 15 6 0 10 17 10 37 0 56 22 73 93 73 34 0 74 -7 93
-16z m219 -7 c26 -13 35 -27 35 -54 0 -33 -47 -61 -109 -65 -51 -3 -55 -1 -72
27 -22 38 -23 65 -3 93 15 21 21 23 72 16 32 -3 66 -11 77 -17z m125 -16 c0
-20 -13 -41 -21 -35 -15 9 -10 44 6 44 8 0 15 -4 15 -9z m-575 -52 c0 -10 -11
-14 -38 -13 -46 2 -56 10 -32 28 22 16 70 6 70 -15z m-1805 -110 c0 -5 -4 -9
-10 -9 -5 0 -10 7 -10 16 0 8 5 12 10 9 6 -3 10 -10 10 -16z m2365 -419 c-3
-5 -10 -10 -16 -10 -5 0 -9 5 -9 10 0 6 7 10 16 10 8 0 12 -4 9 -10z m-2015
-55 c0 -8 -4 -15 -10 -15 -5 0 -10 7 -10 15 0 8 5 15 10 15 6 0 10 -7 10 -15z
m145 5 c3 -5 1 -10 -4 -10 -6 0 -11 5 -11 10 0 6 2 10 4 10 3 0 8 -4 11 -10z
m-525 -66 c0 -9 70 -103 107 -143 18 -20 33 -42 33 -48 0 -12 13 -17 33 -14 4
0 7 -6 7 -14 0 -8 5 -15 10 -15 6 0 10 -7 10 -15 0 -8 5 -15 11 -15 6 0 9 9 6
20 -8 30 9 24 49 -15 19 -19 40 -35 46 -35 7 0 6 -5 -2 -15 -15 -18 1 -20 18
-3 8 8 20 4 48 -18 20 -16 49 -38 64 -49 15 -11 48 -37 73 -57 24 -21 48 -38
52 -38 4 0 24 -15 45 -32 47 -42 197 -146 252 -176 29 -15 52 -21 73 -17 23 4
25 3 10 -4 -18 -8 -18 -9 8 -16 18 -5 33 -3 40 4 8 8 7 11 -3 11 -11 0 -11 3
-3 11 9 9 19 7 40 -7 15 -10 40 -24 54 -30 29 -13 43 -55 25 -75 -8 -9 -6 -10
10 -7 15 4 21 1 20 -11 -1 -20 39 -27 60 -10 18 14 32 3 16 -13 -8 -8 0 -19
31 -43 62 -47 148 -100 219 -136 35 -17 84 -46 109 -64 25 -18 82 -52 125 -75
43 -24 104 -59 134 -79 58 -38 85 -54 135 -79 17 -8 37 -20 45 -27 8 -7 29
-17 45 -22 17 -6 123 -68 237 -139 115 -71 231 -142 258 -159 50 -30 227 -146
347 -228 33 -23 83 -55 109 -72 27 -16 50 -38 52 -48 3 -16 -171 -263 -217
-307 -18 -18 -45 -61 -63 -103 -7 -15 -20 -30 -30 -33 -10 -3 -18 -11 -18 -19
0 -16 -144 -196 -167 -209 -11 -6 -20 -4 -28 7 -6 9 -24 21 -38 26 -17 7 -27
18 -27 31 0 28 -25 76 -48 92 -11 7 -26 27 -35 44 -9 17 -27 38 -41 48 -14 9
-29 31 -34 49 -6 22 -15 33 -30 35 -14 2 -22 10 -22 22 0 10 -9 22 -20 25 -13
4 -20 15 -20 31 0 14 -6 24 -14 24 -14 0 -37 33 -52 73 -3 9 -13 17 -20 17 -8
0 -14 6 -14 13 0 7 -13 23 -30 35 -16 13 -30 27 -30 32 0 13 -42 55 -62 63
-10 3 -18 16 -18 27 0 14 -11 25 -33 35 -38 16 -60 38 -50 49 4 4 3 10 -2 14
-6 4 -15 16 -21 27 -6 11 -23 21 -40 22 -29 2 -57 29 -74 71 -5 12 -16 22 -25
22 -8 0 -15 5 -15 12 0 12 -85 98 -98 98 -4 0 -36 28 -72 61 -36 34 -77 67
-91 75 -15 7 -29 20 -32 28 -3 8 -23 26 -44 39 -21 14 -52 37 -69 53 -17 16
-51 45 -75 65 -93 78 -146 122 -197 167 -30 26 -61 51 -70 56 -9 5 -30 21 -47
36 -16 14 -54 43 -82 63 -29 20 -61 44 -70 53 -22 20 -115 88 -183 134 -28 19
-80 58 -115 85 -36 28 -88 68 -116 90 -29 22 -91 74 -139 115 -48 41 -129 111
-181 155 -52 43 -120 105 -151 137 -51 50 -58 62 -58 97 0 54 22 60 71 19 88
-75 112 -91 147 -103 43 -15 51 -12 31 12 -9 10 -21 29 -27 43 -7 14 -21 39
-31 55 -11 17 -20 37 -20 46 -1 8 -12 37 -26 64 -27 55 -23 83 6 36 10 -18 19
-34 19 -37z m2285 16 c-3 -5 -10 -10 -16 -10 -5 0 -9 5 -9 10 0 6 7 10 16 10
8 0 12 -4 9 -10z m-1437 -113 c3 -21 0 -26 -12 -21 -19 7 -22 58 -3 52 6 -3
13 -17 15 -31z m21 -50 c12 -15 5 -27 -16 -27 -7 0 -13 9 -13 20 0 23 13 26
29 7z m481 -38 c0 -6 -5 -20 -12 -32 -11 -21 -11 -21 -18 -2 -4 11 -5 26 -3
33 6 15 33 16 33 1z m1040 -59 c0 -5 -2 -10 -4 -10 -3 0 -8 5 -11 10 -3 6 -1
10 4 10 6 0 11 -4 11 -10z m-570 -100 c0 -16 -4 -30 -10 -30 -5 0 -10 14 -10
30 0 17 5 30 10 30 6 0 10 -13 10 -30z m-640 -435 c0 -17 -2 -18 -25 -9 -13 5
-14 8 -3 15 19 13 28 11 28 -6z m110 -94 c14 -12 20 -21 14 -21 -6 0 -17 7
-24 15 -7 8 -23 15 -36 15 -23 0 -31 10 -18 23 7 7 27 -3 64 -32z m660 -266
c0 -8 -7 -15 -15 -15 -13 0 -14 3 -3 15 16 18 18 18 18 0z m433 -28 c37 -10
51 -27 22 -27 -8 0 -15 -4 -15 -10 0 -13 34 -30 59 -30 14 0 21 -6 21 -20 0
-15 -7 -20 -25 -20 -19 0 -25 -5 -25 -21 0 -11 -14 -33 -32 -49 -36 -33 -83
-35 -104 -4 -8 11 -18 24 -24 31 -14 17 -12 30 6 37 12 5 15 14 10 41 -4 18
-4 45 0 59 5 20 12 25 37 24 18 0 49 -5 70 -11z m-148 -38 c-8 -12 -45 -12
-45 0 0 10 30 20 43 14 4 -3 5 -9 2 -14z m1001 -262 c104 -106 185 -196 243
-272 14 -19 71 -89 125 -155 104 -128 116 -155 106 -227 -8 -51 -34 -83 -67
-83 -29 0 -29 12 2 58 24 35 34 82 18 82 -21 0 -74 -43 -88 -71 l-17 -31 44
-42 c24 -22 57 -59 73 -81 17 -22 52 -67 78 -100 45 -56 62 -87 100 -175 23
-53 31 -177 17 -261 -11 -71 -22 -115 -56 -225 l-16 -51 33 -69 c29 -59 34
-80 34 -141 0 -66 -2 -74 -33 -110 -18 -21 -43 -60 -57 -88 -13 -27 -34 -64
-47 -82 -12 -17 -30 -41 -38 -53 -8 -13 -25 -35 -37 -50 -13 -15 -23 -32 -23
-37 0 -6 -9 -20 -20 -33 -11 -13 -20 -30 -20 -40 0 -22 -79 -100 -102 -100
-20 0 -24 29 -8 59 6 13 1 37 -20 88 -26 65 -28 79 -25 174 4 117 9 176 22
234 5 22 9 70 9 108 l-1 67 31 0 c22 0 34 -7 44 -25 7 -14 19 -25 27 -25 17 0
53 -31 53 -46 0 -6 7 -17 15 -24 12 -10 20 -9 40 4 21 14 23 20 15 42 -15 38
-12 51 10 57 24 6 26 39 6 115 -11 42 -12 60 -3 79 9 21 8 27 -6 38 -23 17
-22 61 3 92 15 19 17 29 10 38 -6 7 -8 25 -4 39 5 20 2 26 -10 26 -29 0 -51
80 -26 95 6 3 10 17 10 31 0 18 -5 24 -23 24 -30 0 -67 50 -67 90 0 20 -5 30
-15 30 -10 0 -15 10 -15 33 0 37 -13 62 -32 62 -7 0 -14 14 -16 33 -2 18 -10
36 -18 39 -8 3 -14 12 -14 20 0 8 -8 13 -17 11 -11 -2 -17 2 -15 11 2 8 0 36
-3 62 -6 42 -10 48 -32 51 -22 3 -26 9 -29 42 -4 43 -19 67 -38 60 -7 -3 -19
2 -26 11 -7 8 -23 15 -36 15 -17 0 -28 8 -34 26 -9 23 -14 25 -46 20 -32 -7
-35 -5 -45 23 -6 17 -17 31 -25 31 -8 0 -15 6 -15 13 -2 16 -5 47 -7 73 -1 12
-11 24 -22 27 -24 6 -26 20 -6 40 17 17 7 78 -17 105 -21 23 -37 67 -29 78 4
5 20 9 36 9 33 0 30 -14 38 167 1 43 5 78 8 78 3 0 55 -51 116 -113z m-114
-749 c161 -126 269 -278 307 -432 13 -55 7 -162 -14 -241 -8 -27 -18 -74 -23
-102 -9 -52 -9 -53 14 -53 19 0 24 -5 24 -25 0 -23 -4 -25 -43 -25 -79 0 -93
-26 -127 -240 -18 -108 -25 -123 -51 -110 -22 12 -48 33 -108 87 -20 18 -40
33 -45 33 -13 0 -35 32 -36 52 0 9 -9 20 -20 23 -11 3 -20 10 -20 14 0 4 -18
27 -40 51 -22 24 -40 52 -40 62 0 10 -6 19 -12 20 -7 0 -18 2 -25 2 -11 1 -53
48 -53 60 0 4 -10 20 -21 36 -13 17 -24 51 -28 87 -6 57 -7 58 -43 67 -25 6
-38 15 -37 25 0 11 2 12 6 4 2 -7 9 -13 14 -13 17 0 9 22 -16 42 -29 22 -33
56 -8 65 13 5 12 8 -8 15 -22 8 -22 10 -6 19 10 6 17 22 17 41 0 30 35 89 88
145 12 13 20 28 17 33 -3 5 12 18 35 30 25 13 40 27 40 39 0 32 11 51 31 51
22 0 38 26 32 50 -3 10 0 21 6 24 6 4 11 2 11 -3 0 -6 5 -11 11 -11 6 0 9 6 7
12 -10 28 61 104 99 107 6 1 35 -18 65 -41z m345 -933 c0 -8 -4 -15 -8 -15
-11 0 -20 16 -12 24 11 11 20 7 20 -9z m181 -916 c-2 -6 -8 -10 -13 -10 -5 0
-11 4 -13 10 -2 6 4 11 13 11 9 0 15 -5 13 -11z m58 -146 c-1 -17 -7 -28 -15
-28 -21 0 -24 20 -6 39 21 21 22 21 21 -11z m5 -153 c5 0 9 -7 9 -15 0 -8 -4
-15 -9 -15 -21 0 -41 13 -41 27 0 10 6 13 16 9 9 -3 20 -6 25 -6z m-128 -50
c-3 -12 -8 -19 -11 -16 -5 6 5 36 12 36 2 0 2 -9 -1 -20z m21 -122 c-9 -14
-24 2 -24 25 1 21 1 21 15 3 8 -10 12 -23 9 -28z m115 -37 c14 -9 8 -61 -7
-61 -13 0 -32 39 -26 55 7 17 13 18 33 6z m-84 -91 c3 -5 1 -10 -4 -10 -6 0
-11 5 -11 10 0 6 2 10 4 10 3 0 8 -4 11 -10z m1345 -7539 c0 -11 -16 -40 -35
-65 -19 -26 -35 -52 -35 -58 0 -21 -89 -95 -148 -124 -105 -51 -251 -43 -364
21 -20 11 -52 43 -71 70 -18 28 -49 58 -68 68 -43 23 -18 18 101 -17 76 -22
102 -25 246 -24 89 0 167 -3 173 -6 26 -17 -6 -23 -141 -30 -114 -5 -153 -3
-193 9 -28 8 -63 15 -80 15 -29 -1 -29 -1 -10 -15 11 -8 27 -21 35 -29 24 -23
62 -34 99 -28 25 3 38 0 47 -12 9 -13 28 -17 87 -17 41 0 87 3 103 7 36 9 103
50 110 68 3 7 29 38 58 68 29 31 59 70 66 87 14 36 20 39 20 12z"/>
<path d="M7576 17074 c-4 -9 -4 -19 -2 -21 8 -8 26 8 26 23 0 19 -16 18 -24
-2z"/>
<path d="M7506 16661 c-4 -7 -5 -15 -2 -18 9 -9 19 4 14 18 -4 11 -6 11 -12 0z"/>
<path d="M8540 16287 c-55 -29 -75 -43 -83 -54 -9 -14 -37 -18 -37 -5 0 4 9
13 20 20 18 11 28 42 14 42 -12 0 -79 -34 -96 -48 -10 -9 -28 -12 -44 -9 -34
6 -87 -18 -100 -46 -12 -28 -63 -42 -71 -19 -15 40 -54 42 -90 6 -14 -14 -35
-27 -46 -30 -11 -2 -33 -18 -48 -36 -16 -18 -40 -45 -54 -59 -14 -14 -28 -40
-31 -57 -5 -27 -4 -32 12 -32 11 0 27 7 38 15 10 8 43 20 72 26 40 9 53 16 52
28 -2 10 5 17 20 19 12 2 22 7 22 12 0 14 92 31 164 30 103 -2 108 -1 100 12
-5 8 15 9 81 4 48 -3 92 -9 97 -12 22 -14 -19 -23 -74 -17 -49 5 -58 3 -58
-10 0 -9 8 -20 18 -26 15 -8 14 -11 -11 -20 -15 -6 -51 -22 -80 -35 -29 -13
-63 -27 -77 -31 -14 -4 -32 -14 -40 -21 -8 -8 -38 -32 -67 -55 -56 -43 -101
-105 -87 -119 5 -5 20 -10 34 -12 l25 -3 -27 -24 c-16 -14 -28 -28 -28 -32 0
-5 23 -11 51 -15 31 -4 62 -16 79 -30 21 -18 40 -24 79 -24 34 0 51 4 51 13 1
7 7 4 15 -7 14 -18 15 -18 50 8 42 32 98 45 111 25 4 -7 7 -30 5 -51 -2 -35 0
-39 28 -44 32 -7 43 -24 16 -24 -9 0 -25 -8 -36 -19 -20 -18 -19 -18 26 -31
27 -8 45 -18 45 -27 0 -11 8 -14 33 -10 157 23 204 33 282 60 112 38 225 122
225 166 0 17 -6 21 -30 21 -16 0 -30 5 -30 10 0 9 17 14 47 13 16 -1 12 19 -7
33 -12 10 -9 16 18 39 20 17 35 42 42 68 6 23 17 57 25 75 8 18 15 42 15 54 0
11 6 26 14 32 8 6 17 36 21 67 l6 57 -56 46 c-39 32 -66 46 -86 46 -17 0 -42
6 -57 14 -30 16 -312 23 -366 10 -21 -5 -27 -4 -22 5 8 12 -1 17 -54 25 -21 4
-45 0 -60 -7z m-466 -174 c-21 -15 -44 -17 -44 -3 0 6 11 10 25 10 14 0 24 3
24 8 -3 17 3 26 8 13 3 -8 -2 -20 -13 -28z m439 -138 c-13 -34 -103 -61 -103
-30 0 18 47 44 82 45 21 0 26 -4 21 -15z m25 -123 c2 -7 -6 -12 -17 -12 -21 0
-27 11 -14 24 9 9 26 2 31 -12z m300 -21 c8 -4 14 -23 15 -42 2 -29 -3 -36
-33 -51 -35 -17 -115 -25 -108 -10 2 4 17 31 33 60 30 53 58 66 93 43z"/>
<path d="M9113 15615 c-15 -16 -16 -25 -5 -25 4 0 13 9 20 20 14 23 3 26 -15
5z"/>
<path d="M7258 14673 c-3 -11 3 -35 14 -54 l19 -34 -6 40 c-9 53 -20 74 -27
48z"/>
<path d="M9308 14463 c-3 -10 2 -26 11 -36 11 -14 12 -20 2 -30 -9 -9 -13 -7
-17 11 -8 27 -54 32 -54 6 0 -10 -5 -14 -16 -10 -18 7 -64 -21 -64 -40 0 -7
14 -33 30 -57 17 -25 30 -55 30 -66 0 -20 4 -21 38 -15 55 9 93 51 94 101 0
22 -4 49 -10 59 -7 12 -6 23 1 36 9 13 9 23 1 36 -15 24 -41 27 -46 5z"/>
<path d="M7360 14347 c0 -10 8 -17 18 -17 9 0 13 4 7 8 -5 4 -13 11 -17 16 -5
5 -8 2 -8 -7z"/>
<path d="M9101 14321 c-8 -5 -20 -7 -27 -4 -7 2 -17 -5 -24 -16 -6 -12 -17
-21 -24 -21 -16 0 -30 -106 -18 -139 l8 -22 24 20 c48 39 60 55 60 78 0 13 4
23 8 23 11 0 32 46 32 70 0 21 -16 25 -39 11z m-16 -41 c-3 -5 -10 -10 -16
-10 -5 0 -9 5 -9 10 0 6 7 10 16 10 8 0 12 -4 9 -10z m-15 -70 c0 -18 -5 -30
-13 -30 -8 0 -14 12 -14 30 0 18 6 30 14 30 8 0 13 -12 13 -30z"/>
<path d="M7585 14001 c-3 -6 -3 -22 1 -37 6 -23 4 -26 -10 -21 -16 6 -17 2
-11 -35 7 -43 21 -78 31 -78 3 0 2 25 -1 55 -5 38 -4 55 4 55 13 0 15 56 2 65
-5 3 -12 1 -16 -4z"/>
<path d="M7892 13458 c6 -18 28 -21 28 -4 0 9 -7 16 -16 16 -9 0 -14 -5 -12
-12z"/>
<path d="M9545 13240 c3 -5 12 -10 20 -10 8 0 17 5 20 10 4 6 -5 10 -20 10
-15 0 -24 -4 -20 -10z"/>
<path d="M9540 13135 c-7 -8 -20 -15 -28 -15 -12 0 -13 -3 -5 -11 15 -15 39
-6 53 20 12 24 -2 28 -20 6z"/>
<path d="M9736 12995 c-3 -9 0 -15 9 -15 8 0 15 7 15 15 0 8 -4 15 -9 15 -5 0
-11 -7 -15 -15z"/>
<path d="M6400 15541 c0 -53 30 -151 47 -151 9 0 12 7 9 18 -3 9 -8 35 -12 57
-4 22 -15 56 -25 75 l-18 35 -1 -34z"/>
<path d="M6750 15447 c-41 -22 -78 -69 -88 -116 -3 -13 -38 -65 -59 -89 -34
-36 -37 -114 -9 -197 16 -44 78 -121 104 -127 41 -11 47 8 16 51 -71 100 -75
109 -72 204 1 48 4 91 7 96 3 4 22 16 41 26 43 22 91 61 119 97 17 21 19 31
11 52 -12 31 -13 31 -70 3z"/>
<path d="M6840 14878 c0 -19 51 -79 76 -88 57 -22 73 23 25 71 -22 21 -39 29
-65 29 -21 0 -36 -5 -36 -12z"/>
<path d="M9765 10860 c3 -5 8 -10 11 -10 2 0 4 5 4 10 0 6 -5 10 -11 10 -5 0
-7 -4 -4 -10z"/>
<path d="M11092 10594 c4 -21 22 -23 26 -1 2 10 -3 17 -13 17 -10 0 -15 -6
-13 -16z"/>
</g>
</svg>
